<?xml version="1.0" encoding="UTF-8" standalone="no"?>
<!DOCTYPE svg PUBLIC "-//W3C//DTD SVG 1.1//EN" "http://www.w3.org/Graphics/SVG/1.1/DTD/svg11.dtd">
<svg xmlns="http://www.w3.org/2000/svg" xmlns:xlink="http://www.w3.org/1999/xlink" version="1.1" width="396pt" height="273pt" viewBox="0 0 396 273">
<g enable-background="new">
<text xml:space="preserve" transform="matrix(0 -1 1 0 0 273)" font-size="12" font-family="Helvetica"><tspan y="14.4" x="102.45 105.785999 112.45799 115.79399 122.46599 126.46199 133.13399 139.13399 142.46999 145.80599 154.46999 161.14199 164.47798">Interest Rate</tspan></text>
<clipPath id="cp0">
<path transform="matrix(1,0,0,-1,0,273)" d="M 57.6 0 L 381.6 0 L 381.6 273.6 L 57.6 273.6 Z "/>
</clipPath>
<g clip-path="url(#cp0)">
<path transform="matrix(1,0,0,-1,0,273)" stroke-width=".75" stroke-linecap="round" stroke-linejoin="round" fill="none" stroke="#000000" d="M 110.34 50.43 L 184.41 50.43 L 184.41 113.79 L 110.34 113.79 Z "/>
<path transform="matrix(1,0,0,-1,0,273)" stroke-width="1.5" stroke-linecap="round" stroke-linejoin="round" fill="none" stroke="#000000" d="M 110.34 72.12 L 184.41 72.12 "/>
<path transform="matrix(1,0,0,-1,0,273)" stroke-width=".75" stroke-linecap="round" stroke-linejoin="round" fill="none" stroke="#000000" d="M 147.38 21.26 L 147.38 50.43 "/>
<path transform="matrix(1,0,0,-1,0,273)" stroke-width=".75" stroke-linecap="round" stroke-linejoin="round" fill="none" stroke="#000000" d="M 110.34 21.26 L 184.41 21.26 "/>
<path transform="matrix(1,0,0,-1,0,273)" stroke-width=".75" stroke-linecap="round" stroke-linejoin="round" fill="none" stroke="#000000" d="M 147.38 198.95 L 147.38 113.79 "/>
<path transform="matrix(1,0,0,-1,0,273)" stroke-width=".75" stroke-linecap="round" stroke-linejoin="round" fill="none" stroke="#000000" d="M 110.34 198.95 L 184.41 198.95 "/>
<g>
<path transform="matrix(1,0,0,-1,0,273)" d="M 144.14 252.34 C 144.14 254.12 145.6 255.58 147.38 255.58 C 149.16 255.58 150.62 254.12 150.62 252.34 C 150.62 250.56 149.16 249.1 147.38 249.1 C 145.6 249.1 144.14 250.56 144.14 252.34 " fill-opacity=".251"/>
<path transform="matrix(1,0,0,-1,0,273)" stroke-width=".75" stroke-linecap="round" stroke-linejoin="round" fill="none" stroke="#000000" stroke-opacity=".251" d="M 144.14 252.34 C 144.14 254.12 145.6 255.58 147.38 255.58 C 149.16 255.58 150.62 254.12 150.62 252.34 C 150.62 250.56 149.16 249.1 147.38 249.1 C 145.6 249.1 144.14 250.56 144.14 252.34 "/>
</g>
<g>
<path transform="matrix(1,0,0,-1,0,273)" d="M 144.14 236.38 C 144.14 238.16 145.6 239.62 147.38 239.62 C 149.16 239.62 150.62 238.16 150.62 236.38 C 150.62 234.6 149.16 233.14 147.38 233.14 C 145.6 233.14 144.14 234.6 144.14 236.38 " fill-opacity=".251"/>
<path transform="matrix(1,0,0,-1,0,273)" stroke-width=".75" stroke-linecap="round" stroke-linejoin="round" fill="none" stroke="#000000" stroke-opacity=".251" d="M 144.14 236.38 C 144.14 238.16 145.6 239.62 147.38 239.62 C 149.16 239.62 150.62 238.16 150.62 236.38 C 150.62 234.6 149.16 233.14 147.38 233.14 C 145.6 233.14 144.14 234.6 144.14 236.38 "/>
</g>
</g>
<path transform="matrix(1,0,0,-1,0,273)" stroke-width=".75" stroke-linecap="round" stroke-linejoin="round" fill="none" stroke="#000000" d="M 57.6 0 L 57.6 273.6 "/>
<path transform="matrix(1,0,0,-1,0,273)" stroke-width=".75" stroke-linecap="round" stroke-linejoin="round" fill="none" stroke="#000000" d="M 57.6 17.84 L 53.28 17.84 "/>
<path transform="matrix(1,0,0,-1,0,273)" stroke-width=".75" stroke-linecap="round" stroke-linejoin="round" fill="none" stroke="#000000" d="M 57.6 72.89 L 53.28 72.89 "/>
<path transform="matrix(1,0,0,-1,0,273)" stroke-width=".75" stroke-linecap="round" stroke-linejoin="round" fill="none" stroke="#000000" d="M 57.6 127.94 L 53.28 127.94 "/>
<path transform="matrix(1,0,0,-1,0,273)" stroke-width=".75" stroke-linecap="round" stroke-linejoin="round" fill="none" stroke="#000000" d="M 57.6 182.98 L 53.28 182.98 "/>
<path transform="matrix(1,0,0,-1,0,273)" stroke-width=".75" stroke-linecap="round" stroke-linejoin="round" fill="none" stroke="#000000" d="M 57.6 238.03 L 53.28 238.03 "/>
<text xml:space="preserve" transform="matrix(1 0 -0 1 0 273)" font-size="12" font-family="Helvetica"><tspan y="-13.54" x="32.34 39.012">5%</tspan></text>
<text xml:space="preserve" transform="matrix(1 0 -0 1 0 273)" font-size="12" font-family="Helvetica"><tspan y="-68.58" x="25.67 32.342004 39.014005">10%</tspan></text>
<text xml:space="preserve" transform="matrix(1 0 -0 1 0 273)" font-size="12" font-family="Helvetica"><tspan y="-123.63" x="25.67 32.342004 39.014005">15%</tspan></text>
<text xml:space="preserve" transform="matrix(1 0 -0 1 0 273)" font-size="12" font-family="Helvetica"><tspan y="-178.68" x="25.67 32.342004 39.014005">20%</tspan></text>
<text xml:space="preserve" transform="matrix(1 0 -0 1 0 273)" font-size="12" font-family="Helvetica"><tspan y="-233.72" x="25.67 32.342004 39.014005">25%</tspan></text>
<clipPath id="cp1">
<path transform="matrix(1,0,0,-1,0,273)" d="M 57.6 0 L 381.6 0 L 381.6 273.6 L 57.6 273.6 Z "/>
</clipPath>
<g clip-path="url(#cp1)">
<path transform="matrix(1,0,0,-1,0,273)" stroke-width=".75" stroke-linecap="round" stroke-linejoin="round" fill="none" stroke="#000000" d="M 258.49 32.27 L 186.27 21.26 "/>
<path transform="matrix(1,0,0,-1,0,273)" stroke-width=".75" stroke-linecap="round" stroke-linejoin="round" fill="none" stroke="#000000" d="M 190.76 24.86 L 186.27 21.26 L 191.63 19.16 "/>
<text xml:space="preserve" transform="matrix(1 0 -0 1 0 273)" font-size="12" font-family="Helvetica"><tspan y="-29.39" x="265.69 268.354 274.846 283.39 290.062 294.058 297.394 306.058 312.73 315.394 321.394 327.15403 333.82603">lower whisker</tspan></text>
<path transform="matrix(1,0,0,-1,0,273)" stroke-width=".75" stroke-linecap="round" stroke-linejoin="round" fill="none" stroke="#000000" d="M 258.49 58.38 L 186.27 50.43 "/>
<path transform="matrix(1,0,0,-1,0,273)" stroke-width=".75" stroke-linecap="round" stroke-linejoin="round" fill="none" stroke="#000000" d="M 190.91 53.84 L 186.27 50.43 L 191.54 48.11 "/>
<text xml:space="preserve" transform="matrix(1 0 -0 1 0 273)" font-size="12" font-family="Helvetica"><tspan y="-57.7" x="265.69">Q</tspan></text>
<text xml:space="preserve" transform="matrix(1 0 -0 1 0 273)" font-size="8" font-family="Helvetica"><tspan y="-55.5" x="275.02">1</tspan></text>
<text xml:space="preserve" transform="matrix(1 0 -0 1 0 273)" font-size="12" font-family="Symbol"><tspan y="-57.7" x="279.47"> </tspan></text>
<text xml:space="preserve" transform="matrix(1 0 -0 1 0 273)" font-size="12" font-family="Symbol"><tspan y="-57.7" x="282.47"> </tspan></text>
<text xml:space="preserve" transform="matrix(1 0 -0 1 0 273)" font-size="12" font-family="Helvetica"><tspan y="-57.7" x="285.47 289.466 292.802 295.466 299.462 305.462 308.798 312.134 318.806 325.478 332.15 336.626 339.962 342.626 345.29 351.962">(first quartile)</tspan></text>
<path transform="matrix(1,0,0,-1,0,273)" stroke-width=".75" stroke-linecap="round" stroke-linejoin="round" fill="none" stroke="#000000" d="M 258.49 83.24 L 186.27 72.12 "/>
<path transform="matrix(1,0,0,-1,0,273)" stroke-width=".75" stroke-linecap="round" stroke-linejoin="round" fill="none" stroke="#000000" d="M 190.76 75.73 L 186.27 72.12 L 191.64 70.03 "/>
<text xml:space="preserve" transform="matrix(1 0 -0 1 0 273)" font-size="12" font-family="Helvetica"><tspan y="-81.08" x="265.69 275.686 282.358 289.03 291.694 298.366">median</tspan></text>
<path transform="matrix(1,0,0,-1,0,273)" stroke-width=".75" stroke-linecap="round" stroke-linejoin="round" fill="none" stroke="#000000" d="M 258.49 127.7 L 186.27 113.79 "/>
<path transform="matrix(1,0,0,-1,0,273)" stroke-width=".75" stroke-linecap="round" stroke-linejoin="round" fill="none" stroke="#000000" d="M 190.62 117.56 L 186.27 113.79 L 191.71 111.91 "/>
<text xml:space="preserve" transform="matrix(1 0 -0 1 0 273)" font-size="12" font-family="Helvetica"><tspan y="-127.14" x="265.69">Q</tspan></text>
<text xml:space="preserve" transform="matrix(1 0 -0 1 0 273)" font-size="8" font-family="Helvetica"><tspan y="-124.94" x="275.02">3</tspan></text>
<text xml:space="preserve" transform="matrix(1 0 -0 1 0 273)" font-size="12" font-family="Symbol"><tspan y="-127.14" x="279.47"> </tspan></text>
<text xml:space="preserve" transform="matrix(1 0 -0 1 0 273)" font-size="12" font-family="Symbol"><tspan y="-127.14" x="282.47"> </tspan></text>
<text xml:space="preserve" transform="matrix(1 0 -0 1 0 273)" font-size="12" font-family="Helvetica"><tspan y="-127.14" x="285.47 289.466 292.802 299.474 302.138 306.134 312.806 316.142 322.814 329.486 336.158 340.634 343.97 346.634 349.298 355.97">(third quartile)</tspan></text>
<path transform="matrix(1,0,0,-1,0,273)" stroke-width=".75" stroke-linecap="round" stroke-linejoin="round" fill="none" stroke="#000000" d="M 258.49 185.04 L 186.27 198.95 "/>
<path transform="matrix(1,0,0,-1,0,273)" stroke-width=".75" stroke-linecap="round" stroke-linejoin="round" fill="none" stroke="#000000" d="M 191.71 200.83 L 186.27 198.95 L 190.62 195.18 "/>
<text xml:space="preserve" transform="matrix(1 0 -0 1 0 273)" font-size="12" font-family="Helvetica"><tspan y="-181.44" x="265.69 272.362 279.034 285.706 292.378 296.374 299.71 308.374 315.046 317.71 323.71 329.47 336.142">upper whisker</tspan></text>
<path transform="matrix(1,0,0,-1,0,273)" stroke-width=".75" stroke-linecap="round" stroke-linejoin="round" fill="none" stroke="#000000" d="M 258.49 203.27 L 186.27 208.83 "/>
<path transform="matrix(1,0,0,-1,0,273)" stroke-width=".75" stroke-linecap="round" stroke-linejoin="round" fill="none" stroke="#000000" d="M 191.46 211.32 L 186.27 208.83 L 191.02 205.57 "/>
<path transform="matrix(1,0,0,-1,0,273)" stroke-width=".75" stroke-linecap="round" stroke-dasharray="0,3" stroke-linejoin="round" fill="none" stroke="#000000" stroke-opacity=".4" d="M 116.27 208.83 L 178.49 208.83 "/>
<text xml:space="preserve" transform="matrix(1 0 -0 1 0 273)" font-size="12" font-family="Helvetica"><tspan y="-200.39" x="265.69 275.686 282.358 288.358 291.694 300.358 307.03 309.694 315.694 321.454 328.126 332.122 335.458 339.454 346.126 352.798 358.798">max whisker reach</tspan></text>
<path transform="matrix(1,0,0,-1,0,273)" stroke-width=".75" stroke-linecap="round" stroke-linejoin="round" fill="none" stroke="#000000" d="M 258.49 242.33 L 158.49 250.14 "/>
<path transform="matrix(1,0,0,-1,0,273)" stroke-width=".75" stroke-linecap="round" stroke-linejoin="round" fill="none" stroke="#000000" d="M 163.69 252.62 L 158.49 250.14 L 163.24 246.88 "/>
<path transform="matrix(1,0,0,-1,0,273)" stroke-width=".75" stroke-linecap="round" stroke-linejoin="round" fill="none" stroke="#000000" d="M 258.49 242.33 L 158.49 239.68 "/>
<path transform="matrix(1,0,0,-1,0,273)" stroke-width=".75" stroke-linecap="round" stroke-linejoin="round" fill="none" stroke="#000000" d="M 163.4 242.69 L 158.49 239.68 L 163.55 236.94 "/>
<text xml:space="preserve" transform="matrix(1 0 -0 1 0 273)" font-size="12" font-family="Helvetica"><tspan y="-239.46" x="265.69 271.69 278.362 284.362 291.034 297.706 303.706 307.042 313.714 320.386 323.722 330.39399 337.06599 340.40199 343.06599 345.72999 352.40199 356.39799">suspected outliers</tspan></text>
<g>
<path transform="matrix(1,0,0,-1,0,273)" d="M 72.46 21.26 C 72.46 22.74 73.67 23.96 75.16 23.96 C 76.64 23.96 77.86 22.74 77.86 21.26 C 77.86 19.77 76.64 18.56 75.16 18.56 C 73.67 18.56 72.46 19.77 72.46 21.26 " fill="#569bbd" fill-opacity=".502"/>
<path transform="matrix(1,0,0,-1,0,273)" stroke-width=".75" stroke-linecap="round" stroke-linejoin="round" fill="none" stroke="#569bbd" stroke-opacity=".502" d="M 72.46 21.26 C 72.46 22.74 73.67 23.96 75.16 23.96 C 76.64 23.96 77.86 22.74 77.86 21.26 C 77.86 19.77 76.64 18.56 75.16 18.56 C 73.67 18.56 72.46 19.77 72.46 21.26 "/>
</g>
<g>
<path transform="matrix(1,0,0,-1,0,273)" d="M 78.01 21.26 C 78.01 22.74 79.23 23.96 80.71 23.96 C 82.2 23.96 83.41 22.74 83.41 21.26 C 83.41 19.77 82.2 18.56 80.71 18.56 C 79.23 18.56 78.01 19.77 78.01 21.26 " fill="#569bbd" fill-opacity=".502"/>
<path transform="matrix(1,0,0,-1,0,273)" stroke-width=".75" stroke-linecap="round" stroke-linejoin="round" fill="none" stroke="#569bbd" stroke-opacity=".502" d="M 78.01 21.26 C 78.01 22.74 79.23 23.96 80.71 23.96 C 82.2 23.96 83.41 22.74 83.41 21.26 C 83.41 19.77 82.2 18.56 80.71 18.56 C 79.23 18.56 78.01 19.77 78.01 21.26 "/>
</g>
<g>
<path transform="matrix(1,0,0,-1,0,273)" d="M 83.57 21.37 C 83.57 22.85 84.78 24.07 86.27 24.07 C 87.75 24.07 88.97 22.85 88.97 21.37 C 88.97 19.88 87.75 18.67 86.27 18.67 C 84.78 18.67 83.57 19.88 83.57 21.37 " fill="#569bbd" fill-opacity=".502"/>
<path transform="matrix(1,0,0,-1,0,273)" stroke-width=".75" stroke-linecap="round" stroke-linejoin="round" fill="none" stroke="#569bbd" stroke-opacity=".502" d="M 83.57 21.37 C 83.57 22.85 84.78 24.07 86.27 24.07 C 87.75 24.07 88.97 22.85 88.97 21.37 C 88.97 19.88 87.75 18.67 86.27 18.67 C 84.78 18.67 83.57 19.88 83.57 21.37 "/>
</g>
<g>
<path transform="matrix(1,0,0,-1,0,273)" d="M 72.46 29.73 C 72.46 31.22 73.67 32.43 75.16 32.43 C 76.64 32.43 77.86 31.22 77.86 29.73 C 77.86 28.25 76.64 27.03 75.16 27.03 C 73.67 27.03 72.46 28.25 72.46 29.73 " fill="#569bbd" fill-opacity=".502"/>
<path transform="matrix(1,0,0,-1,0,273)" stroke-width=".75" stroke-linecap="round" stroke-linejoin="round" fill="none" stroke="#569bbd" stroke-opacity=".502" d="M 72.46 29.73 C 72.46 31.22 73.67 32.43 75.16 32.43 C 76.64 32.43 77.86 31.22 77.86 29.73 C 77.86 28.25 76.64 27.03 75.16 27.03 C 73.67 27.03 72.46 28.25 72.46 29.73 "/>
</g>
<g>
<path transform="matrix(1,0,0,-1,0,273)" d="M 78.01 29.73 C 78.01 31.22 79.23 32.43 80.71 32.43 C 82.2 32.43 83.41 31.22 83.41 29.73 C 83.41 28.25 82.2 27.03 80.71 27.03 C 79.23 27.03 78.01 28.25 78.01 29.73 " fill="#569bbd" fill-opacity=".502"/>
<path transform="matrix(1,0,0,-1,0,273)" stroke-width=".75" stroke-linecap="round" stroke-linejoin="round" fill="none" stroke="#569bbd" stroke-opacity=".502" d="M 78.01 29.73 C 78.01 31.22 79.23 32.43 80.71 32.43 C 82.2 32.43 83.41 31.22 83.41 29.73 C 83.41 28.25 82.2 27.03 80.71 27.03 C 79.23 27.03 78.01 28.25 78.01 29.73 "/>
</g>
<g>
<path transform="matrix(1,0,0,-1,0,273)" d="M 83.57 29.73 C 83.57 31.22 84.78 32.43 86.27 32.43 C 87.75 32.43 88.97 31.22 88.97 29.73 C 88.97 28.25 87.75 27.03 86.27 27.03 C 84.78 27.03 83.57 28.25 83.57 29.73 " fill="#569bbd" fill-opacity=".502"/>
<path transform="matrix(1,0,0,-1,0,273)" stroke-width=".75" stroke-linecap="round" stroke-linejoin="round" fill="none" stroke="#569bbd" stroke-opacity=".502" d="M 83.57 29.73 C 83.57 31.22 84.78 32.43 86.27 32.43 C 87.75 32.43 88.97 31.22 88.97 29.73 C 88.97 28.25 87.75 27.03 86.27 27.03 C 84.78 27.03 83.57 28.25 83.57 29.73 "/>
</g>
<g>
<path transform="matrix(1,0,0,-1,0,273)" d="M 75.23 36.67 C 75.23 38.16 76.45 39.37 77.93 39.37 C 79.42 39.37 80.63 38.16 80.63 36.67 C 80.63 35.19 79.42 33.97 77.93 33.97 C 76.45 33.97 75.23 35.19 75.23 36.67 " fill="#569bbd" fill-opacity=".502"/>
<path transform="matrix(1,0,0,-1,0,273)" stroke-width=".75" stroke-linecap="round" stroke-linejoin="round" fill="none" stroke="#569bbd" stroke-opacity=".502" d="M 75.23 36.67 C 75.23 38.16 76.45 39.37 77.93 39.37 C 79.42 39.37 80.63 38.16 80.63 36.67 C 80.63 35.19 79.42 33.97 77.93 33.97 C 76.45 33.97 75.23 35.19 75.23 36.67 "/>
</g>
<g>
<path transform="matrix(1,0,0,-1,0,273)" d="M 80.79 36.67 C 80.79 38.16 82 39.37 83.49 39.37 C 84.97 39.37 86.19 38.16 86.19 36.67 C 86.19 35.19 84.97 33.97 83.49 33.97 C 82 33.97 80.79 35.19 80.79 36.67 " fill="#569bbd" fill-opacity=".502"/>
<path transform="matrix(1,0,0,-1,0,273)" stroke-width=".75" stroke-linecap="round" stroke-linejoin="round" fill="none" stroke="#569bbd" stroke-opacity=".502" d="M 80.79 36.67 C 80.79 38.16 82 39.37 83.49 39.37 C 84.97 39.37 86.19 38.16 86.19 36.67 C 86.19 35.19 84.97 33.97 83.49 33.97 C 82 33.97 80.79 35.19 80.79 36.67 "/>
</g>
<g>
<path transform="matrix(1,0,0,-1,0,273)" d="M 72.46 43.72 C 72.46 45.2 73.67 46.42 75.16 46.42 C 76.64 46.42 77.86 45.2 77.86 43.72 C 77.86 42.23 76.64 41.02 75.16 41.02 C 73.67 41.02 72.46 42.23 72.46 43.72 " fill="#569bbd" fill-opacity=".502"/>
<path transform="matrix(1,0,0,-1,0,273)" stroke-width=".75" stroke-linecap="round" stroke-linejoin="round" fill="none" stroke="#569bbd" stroke-opacity=".502" d="M 72.46 43.72 C 72.46 45.2 73.67 46.42 75.16 46.42 C 76.64 46.42 77.86 45.2 77.86 43.72 C 77.86 42.23 76.64 41.02 75.16 41.02 C 73.67 41.02 72.46 42.23 72.46 43.72 "/>
</g>
<g>
<path transform="matrix(1,0,0,-1,0,273)" d="M 78.01 43.72 C 78.01 45.2 79.23 46.42 80.71 46.42 C 82.2 46.42 83.41 45.2 83.41 43.72 C 83.41 42.23 82.2 41.02 80.71 41.02 C 79.23 41.02 78.01 42.23 78.01 43.72 " fill="#569bbd" fill-opacity=".502"/>
<path transform="matrix(1,0,0,-1,0,273)" stroke-width=".75" stroke-linecap="round" stroke-linejoin="round" fill="none" stroke="#569bbd" stroke-opacity=".502" d="M 78.01 43.72 C 78.01 45.2 79.23 46.42 80.71 46.42 C 82.2 46.42 83.41 45.2 83.41 43.72 C 83.41 42.23 82.2 41.02 80.71 41.02 C 79.23 41.02 78.01 42.23 78.01 43.72 "/>
</g>
<g>
<path transform="matrix(1,0,0,-1,0,273)" d="M 83.57 43.61 C 83.57 45.09 84.78 46.31 86.27 46.31 C 87.75 46.31 88.97 45.09 88.97 43.61 C 88.97 42.12 87.75 40.91 86.27 40.91 C 84.78 40.91 83.57 42.12 83.57 43.61 " fill="#569bbd" fill-opacity=".502"/>
<path transform="matrix(1,0,0,-1,0,273)" stroke-width=".75" stroke-linecap="round" stroke-linejoin="round" fill="none" stroke="#569bbd" stroke-opacity=".502" d="M 83.57 43.61 C 83.57 45.09 84.78 46.31 86.27 46.31 C 87.75 46.31 88.97 45.09 88.97 43.61 C 88.97 42.12 87.75 40.91 86.27 40.91 C 84.78 40.91 83.57 42.12 83.57 43.61 "/>
</g>
<g>
<path transform="matrix(1,0,0,-1,0,273)" d="M 69.68 50.54 C 69.68 52.03 70.89 53.24 72.38 53.24 C 73.86 53.24 75.08 52.03 75.08 50.54 C 75.08 49.06 73.86 47.84 72.38 47.84 C 70.89 47.84 69.68 49.06 69.68 50.54 " fill="#569bbd" fill-opacity=".502"/>
<path transform="matrix(1,0,0,-1,0,273)" stroke-width=".75" stroke-linecap="round" stroke-linejoin="round" fill="none" stroke="#569bbd" stroke-opacity=".502" d="M 69.68 50.54 C 69.68 52.03 70.89 53.24 72.38 53.24 C 73.86 53.24 75.08 52.03 75.08 50.54 C 75.08 49.06 73.86 47.84 72.38 47.84 C 70.89 47.84 69.68 49.06 69.68 50.54 "/>
</g>
<g>
<path transform="matrix(1,0,0,-1,0,273)" d="M 75.23 50.43 C 75.23 51.92 76.45 53.13 77.93 53.13 C 79.42 53.13 80.63 51.92 80.63 50.43 C 80.63 48.95 79.42 47.73 77.93 47.73 C 76.45 47.73 75.23 48.95 75.23 50.43 " fill="#569bbd" fill-opacity=".502"/>
<path transform="matrix(1,0,0,-1,0,273)" stroke-width=".75" stroke-linecap="round" stroke-linejoin="round" fill="none" stroke="#569bbd" stroke-opacity=".502" d="M 75.23 50.43 C 75.23 51.92 76.45 53.13 77.93 53.13 C 79.42 53.13 80.63 51.92 80.63 50.43 C 80.63 48.95 79.42 47.73 77.93 47.73 C 76.45 47.73 75.23 48.95 75.23 50.43 "/>
</g>
<g>
<path transform="matrix(1,0,0,-1,0,273)" d="M 80.79 50.43 C 80.79 51.92 82 53.13 83.49 53.13 C 84.97 53.13 86.19 51.92 86.19 50.43 C 86.19 48.95 84.97 47.73 83.49 47.73 C 82 47.73 80.79 48.95 80.79 50.43 " fill="#569bbd" fill-opacity=".502"/>
<path transform="matrix(1,0,0,-1,0,273)" stroke-width=".75" stroke-linecap="round" stroke-linejoin="round" fill="none" stroke="#569bbd" stroke-opacity=".502" d="M 80.79 50.43 C 80.79 51.92 82 53.13 83.49 53.13 C 84.97 53.13 86.19 51.92 86.19 50.43 C 86.19 48.95 84.97 47.73 83.49 47.73 C 82 47.73 80.79 48.95 80.79 50.43 "/>
</g>
<g>
<path transform="matrix(1,0,0,-1,0,273)" d="M 86.34 50.43 C 86.34 51.92 87.56 53.13 89.04 53.13 C 90.53 53.13 91.74 51.92 91.74 50.43 C 91.74 48.95 90.53 47.73 89.04 47.73 C 87.56 47.73 86.34 48.95 86.34 50.43 " fill="#569bbd" fill-opacity=".502"/>
<path transform="matrix(1,0,0,-1,0,273)" stroke-width=".75" stroke-linecap="round" stroke-linejoin="round" fill="none" stroke="#569bbd" stroke-opacity=".502" d="M 86.34 50.43 C 86.34 51.92 87.56 53.13 89.04 53.13 C 90.53 53.13 91.74 51.92 91.74 50.43 C 91.74 48.95 90.53 47.73 89.04 47.73 C 87.56 47.73 86.34 48.95 86.34 50.43 "/>
</g>
<g>
<path transform="matrix(1,0,0,-1,0,273)" d="M 66.9 66.62 C 66.9 68.1 68.11 69.32 69.6 69.32 C 71.08 69.32 72.3 68.1 72.3 66.62 C 72.3 65.13 71.08 63.92 69.6 63.92 C 68.11 63.92 66.9 65.13 66.9 66.62 " fill="#569bbd" fill-opacity=".502"/>
<path transform="matrix(1,0,0,-1,0,273)" stroke-width=".75" stroke-linecap="round" stroke-linejoin="round" fill="none" stroke="#569bbd" stroke-opacity=".502" d="M 66.9 66.62 C 66.9 68.1 68.11 69.32 69.6 69.32 C 71.08 69.32 72.3 68.1 72.3 66.62 C 72.3 65.13 71.08 63.92 69.6 63.92 C 68.11 63.92 66.9 65.13 66.9 66.62 "/>
</g>
<g>
<path transform="matrix(1,0,0,-1,0,273)" d="M 72.46 66.73 C 72.46 68.21 73.67 69.43 75.16 69.43 C 76.64 69.43 77.86 68.21 77.86 66.73 C 77.86 65.24 76.64 64.03 75.16 64.03 C 73.67 64.03 72.46 65.24 72.46 66.73 " fill="#569bbd" fill-opacity=".502"/>
<path transform="matrix(1,0,0,-1,0,273)" stroke-width=".75" stroke-linecap="round" stroke-linejoin="round" fill="none" stroke="#569bbd" stroke-opacity=".502" d="M 72.46 66.73 C 72.46 68.21 73.67 69.43 75.16 69.43 C 76.64 69.43 77.86 68.21 77.86 66.73 C 77.86 65.24 76.64 64.03 75.16 64.03 C 73.67 64.03 72.46 65.24 72.46 66.73 "/>
</g>
<g>
<path transform="matrix(1,0,0,-1,0,273)" d="M 78.01 66.73 C 78.01 68.21 79.23 69.43 80.71 69.43 C 82.2 69.43 83.41 68.21 83.41 66.73 C 83.41 65.24 82.2 64.03 80.71 64.03 C 79.23 64.03 78.01 65.24 78.01 66.73 " fill="#569bbd" fill-opacity=".502"/>
<path transform="matrix(1,0,0,-1,0,273)" stroke-width=".75" stroke-linecap="round" stroke-linejoin="round" fill="none" stroke="#569bbd" stroke-opacity=".502" d="M 78.01 66.73 C 78.01 68.21 79.23 69.43 80.71 69.43 C 82.2 69.43 83.41 68.21 83.41 66.73 C 83.41 65.24 82.2 64.03 80.71 64.03 C 79.23 64.03 78.01 65.24 78.01 66.73 "/>
</g>
<g>
<path transform="matrix(1,0,0,-1,0,273)" d="M 83.57 66.73 C 83.57 68.21 84.78 69.43 86.27 69.43 C 87.75 69.43 88.97 68.21 88.97 66.73 C 88.97 65.24 87.75 64.03 86.27 64.03 C 84.78 64.03 83.57 65.24 83.57 66.73 " fill="#569bbd" fill-opacity=".502"/>
<path transform="matrix(1,0,0,-1,0,273)" stroke-width=".75" stroke-linecap="round" stroke-linejoin="round" fill="none" stroke="#569bbd" stroke-opacity=".502" d="M 83.57 66.73 C 83.57 68.21 84.78 69.43 86.27 69.43 C 87.75 69.43 88.97 68.21 88.97 66.73 C 88.97 65.24 87.75 64.03 86.27 64.03 C 84.78 64.03 83.57 65.24 83.57 66.73 "/>
</g>
<g>
<path transform="matrix(1,0,0,-1,0,273)" d="M 89.12 66.62 C 89.12 68.1 90.34 69.32 91.82 69.32 C 93.31 69.32 94.52 68.1 94.52 66.62 C 94.52 65.13 93.31 63.92 91.82 63.92 C 90.34 63.92 89.12 65.13 89.12 66.62 " fill="#569bbd" fill-opacity=".502"/>
<path transform="matrix(1,0,0,-1,0,273)" stroke-width=".75" stroke-linecap="round" stroke-linejoin="round" fill="none" stroke="#569bbd" stroke-opacity=".502" d="M 89.12 66.62 C 89.12 68.1 90.34 69.32 91.82 69.32 C 93.31 69.32 94.52 68.1 94.52 66.62 C 94.52 65.13 93.31 63.92 91.82 63.92 C 90.34 63.92 89.12 65.13 89.12 66.62 "/>
</g>
<g>
<path transform="matrix(1,0,0,-1,0,273)" d="M 64.12 72.01 C 64.12 73.5 65.34 74.71 66.82 74.71 C 68.31 74.71 69.52 73.5 69.52 72.01 C 69.52 70.53 68.31 69.31 66.82 69.31 C 65.34 69.31 64.12 70.53 64.12 72.01 " fill="#569bbd" fill-opacity=".502"/>
<path transform="matrix(1,0,0,-1,0,273)" stroke-width=".75" stroke-linecap="round" stroke-linejoin="round" fill="none" stroke="#569bbd" stroke-opacity=".502" d="M 64.12 72.01 C 64.12 73.5 65.34 74.71 66.82 74.71 C 68.31 74.71 69.52 73.5 69.52 72.01 C 69.52 70.53 68.31 69.31 66.82 69.31 C 65.34 69.31 64.12 70.53 64.12 72.01 "/>
</g>
<g>
<path transform="matrix(1,0,0,-1,0,273)" d="M 69.68 72.01 C 69.68 73.5 70.89 74.71 72.38 74.71 C 73.86 74.71 75.08 73.5 75.08 72.01 C 75.08 70.53 73.86 69.31 72.38 69.31 C 70.89 69.31 69.68 70.53 69.68 72.01 " fill="#569bbd" fill-opacity=".502"/>
<path transform="matrix(1,0,0,-1,0,273)" stroke-width=".75" stroke-linecap="round" stroke-linejoin="round" fill="none" stroke="#569bbd" stroke-opacity=".502" d="M 69.68 72.01 C 69.68 73.5 70.89 74.71 72.38 74.71 C 73.86 74.71 75.08 73.5 75.08 72.01 C 75.08 70.53 73.86 69.31 72.38 69.31 C 70.89 69.31 69.68 70.53 69.68 72.01 "/>
</g>
<g>
<path transform="matrix(1,0,0,-1,0,273)" d="M 75.23 72.01 C 75.23 73.5 76.45 74.71 77.93 74.71 C 79.42 74.71 80.63 73.5 80.63 72.01 C 80.63 70.53 79.42 69.31 77.93 69.31 C 76.45 69.31 75.23 70.53 75.23 72.01 " fill="#569bbd" fill-opacity=".502"/>
<path transform="matrix(1,0,0,-1,0,273)" stroke-width=".75" stroke-linecap="round" stroke-linejoin="round" fill="none" stroke="#569bbd" stroke-opacity=".502" d="M 75.23 72.01 C 75.23 73.5 76.45 74.71 77.93 74.71 C 79.42 74.71 80.63 73.5 80.63 72.01 C 80.63 70.53 79.42 69.31 77.93 69.31 C 76.45 69.31 75.23 70.53 75.23 72.01 "/>
</g>
<g>
<path transform="matrix(1,0,0,-1,0,273)" d="M 80.79 72.01 C 80.79 73.5 82 74.71 83.49 74.71 C 84.97 74.71 86.19 73.5 86.19 72.01 C 86.19 70.53 84.97 69.31 83.49 69.31 C 82 69.31 80.79 70.53 80.79 72.01 " fill="#569bbd" fill-opacity=".502"/>
<path transform="matrix(1,0,0,-1,0,273)" stroke-width=".75" stroke-linecap="round" stroke-linejoin="round" fill="none" stroke="#569bbd" stroke-opacity=".502" d="M 80.79 72.01 C 80.79 73.5 82 74.71 83.49 74.71 C 84.97 74.71 86.19 73.5 86.19 72.01 C 86.19 70.53 84.97 69.31 83.49 69.31 C 82 69.31 80.79 70.53 80.79 72.01 "/>
</g>
<g>
<path transform="matrix(1,0,0,-1,0,273)" d="M 86.34 72.12 C 86.34 73.61 87.56 74.82 89.04 74.82 C 90.53 74.82 91.74 73.61 91.74 72.12 C 91.74 70.64 90.53 69.42 89.04 69.42 C 87.56 69.42 86.34 70.64 86.34 72.12 " fill="#569bbd" fill-opacity=".502"/>
<path transform="matrix(1,0,0,-1,0,273)" stroke-width=".75" stroke-linecap="round" stroke-linejoin="round" fill="none" stroke="#569bbd" stroke-opacity=".502" d="M 86.34 72.12 C 86.34 73.61 87.56 74.82 89.04 74.82 C 90.53 74.82 91.74 73.61 91.74 72.12 C 91.74 70.64 90.53 69.42 89.04 69.42 C 87.56 69.42 86.34 70.64 86.34 72.12 "/>
</g>
<g>
<path transform="matrix(1,0,0,-1,0,273)" d="M 91.9 72.12 C 91.9 73.61 93.11 74.82 94.6 74.82 C 96.08 74.82 97.3 73.61 97.3 72.12 C 97.3 70.64 96.08 69.42 94.6 69.42 C 93.11 69.42 91.9 70.64 91.9 72.12 " fill="#569bbd" fill-opacity=".502"/>
<path transform="matrix(1,0,0,-1,0,273)" stroke-width=".75" stroke-linecap="round" stroke-linejoin="round" fill="none" stroke="#569bbd" stroke-opacity=".502" d="M 91.9 72.12 C 91.9 73.61 93.11 74.82 94.6 74.82 C 96.08 74.82 97.3 73.61 97.3 72.12 C 97.3 70.64 96.08 69.42 94.6 69.42 C 93.11 69.42 91.9 70.64 91.9 72.12 "/>
</g>
<g>
<path transform="matrix(1,0,0,-1,0,273)" d="M 75.23 77.51 C 75.23 79 76.45 80.21 77.93 80.21 C 79.42 80.21 80.63 79 80.63 77.51 C 80.63 76.03 79.42 74.81 77.93 74.81 C 76.45 74.81 75.23 76.03 75.23 77.51 " fill="#569bbd" fill-opacity=".502"/>
<path transform="matrix(1,0,0,-1,0,273)" stroke-width=".75" stroke-linecap="round" stroke-linejoin="round" fill="none" stroke="#569bbd" stroke-opacity=".502" d="M 75.23 77.51 C 75.23 79 76.45 80.21 77.93 80.21 C 79.42 80.21 80.63 79 80.63 77.51 C 80.63 76.03 79.42 74.81 77.93 74.81 C 76.45 74.81 75.23 76.03 75.23 77.51 "/>
</g>
<g>
<path transform="matrix(1,0,0,-1,0,273)" d="M 80.79 77.51 C 80.79 79 82 80.21 83.49 80.21 C 84.97 80.21 86.19 79 86.19 77.51 C 86.19 76.03 84.97 74.81 83.49 74.81 C 82 74.81 80.79 76.03 80.79 77.51 " fill="#569bbd" fill-opacity=".502"/>
<path transform="matrix(1,0,0,-1,0,273)" stroke-width=".75" stroke-linecap="round" stroke-linejoin="round" fill="none" stroke="#569bbd" stroke-opacity=".502" d="M 80.79 77.51 C 80.79 79 82 80.21 83.49 80.21 C 84.97 80.21 86.19 79 86.19 77.51 C 86.19 76.03 84.97 74.81 83.49 74.81 C 82 74.81 80.79 76.03 80.79 77.51 "/>
</g>
<g>
<path transform="matrix(1,0,0,-1,0,273)" d="M 66.9 82.8 C 66.9 84.28 68.11 85.5 69.6 85.5 C 71.08 85.5 72.3 84.28 72.3 82.8 C 72.3 81.31 71.08 80.1 69.6 80.1 C 68.11 80.1 66.9 81.31 66.9 82.8 " fill="#569bbd" fill-opacity=".502"/>
<path transform="matrix(1,0,0,-1,0,273)" stroke-width=".75" stroke-linecap="round" stroke-linejoin="round" fill="none" stroke="#569bbd" stroke-opacity=".502" d="M 66.9 82.8 C 66.9 84.28 68.11 85.5 69.6 85.5 C 71.08 85.5 72.3 84.28 72.3 82.8 C 72.3 81.31 71.08 80.1 69.6 80.1 C 68.11 80.1 66.9 81.31 66.9 82.8 "/>
</g>
<g>
<path transform="matrix(1,0,0,-1,0,273)" d="M 72.46 82.91 C 72.46 84.39 73.67 85.61 75.16 85.61 C 76.64 85.61 77.86 84.39 77.86 82.91 C 77.86 81.42 76.64 80.21 75.16 80.21 C 73.67 80.21 72.46 81.42 72.46 82.91 " fill="#569bbd" fill-opacity=".502"/>
<path transform="matrix(1,0,0,-1,0,273)" stroke-width=".75" stroke-linecap="round" stroke-linejoin="round" fill="none" stroke="#569bbd" stroke-opacity=".502" d="M 72.46 82.91 C 72.46 84.39 73.67 85.61 75.16 85.61 C 76.64 85.61 77.86 84.39 77.86 82.91 C 77.86 81.42 76.64 80.21 75.16 80.21 C 73.67 80.21 72.46 81.42 72.46 82.91 "/>
</g>
<g>
<path transform="matrix(1,0,0,-1,0,273)" d="M 78.01 82.91 C 78.01 84.39 79.23 85.61 80.71 85.61 C 82.2 85.61 83.41 84.39 83.41 82.91 C 83.41 81.42 82.2 80.21 80.71 80.21 C 79.23 80.21 78.01 81.42 78.01 82.91 " fill="#569bbd" fill-opacity=".502"/>
<path transform="matrix(1,0,0,-1,0,273)" stroke-width=".75" stroke-linecap="round" stroke-linejoin="round" fill="none" stroke="#569bbd" stroke-opacity=".502" d="M 78.01 82.91 C 78.01 84.39 79.23 85.61 80.71 85.61 C 82.2 85.61 83.41 84.39 83.41 82.91 C 83.41 81.42 82.2 80.21 80.71 80.21 C 79.23 80.21 78.01 81.42 78.01 82.91 "/>
</g>
<g>
<path transform="matrix(1,0,0,-1,0,273)" d="M 83.57 82.8 C 83.57 84.28 84.78 85.5 86.27 85.5 C 87.75 85.5 88.97 84.28 88.97 82.8 C 88.97 81.31 87.75 80.1 86.27 80.1 C 84.78 80.1 83.57 81.31 83.57 82.8 " fill="#569bbd" fill-opacity=".502"/>
<path transform="matrix(1,0,0,-1,0,273)" stroke-width=".75" stroke-linecap="round" stroke-linejoin="round" fill="none" stroke="#569bbd" stroke-opacity=".502" d="M 83.57 82.8 C 83.57 84.28 84.78 85.5 86.27 85.5 C 87.75 85.5 88.97 84.28 88.97 82.8 C 88.97 81.31 87.75 80.1 86.27 80.1 C 84.78 80.1 83.57 81.31 83.57 82.8 "/>
</g>
<g>
<path transform="matrix(1,0,0,-1,0,273)" d="M 89.12 82.91 C 89.12 84.39 90.34 85.61 91.82 85.61 C 93.31 85.61 94.52 84.39 94.52 82.91 C 94.52 81.42 93.31 80.21 91.82 80.21 C 90.34 80.21 89.12 81.42 89.12 82.91 " fill="#569bbd" fill-opacity=".502"/>
<path transform="matrix(1,0,0,-1,0,273)" stroke-width=".75" stroke-linecap="round" stroke-linejoin="round" fill="none" stroke="#569bbd" stroke-opacity=".502" d="M 89.12 82.91 C 89.12 84.39 90.34 85.61 91.82 85.61 C 93.31 85.61 94.52 84.39 94.52 82.91 C 94.52 81.42 93.31 80.21 91.82 80.21 C 90.34 80.21 89.12 81.42 89.12 82.91 "/>
</g>
<g>
<path transform="matrix(1,0,0,-1,0,273)" d="M 78.01 94.69 C 78.01 96.17 79.23 97.39 80.71 97.39 C 82.2 97.39 83.41 96.17 83.41 94.69 C 83.41 93.2 82.2 91.99 80.71 91.99 C 79.23 91.99 78.01 93.2 78.01 94.69 " fill="#569bbd" fill-opacity=".502"/>
<path transform="matrix(1,0,0,-1,0,273)" stroke-width=".75" stroke-linecap="round" stroke-linejoin="round" fill="none" stroke="#569bbd" stroke-opacity=".502" d="M 78.01 94.69 C 78.01 96.17 79.23 97.39 80.71 97.39 C 82.2 97.39 83.41 96.17 83.41 94.69 C 83.41 93.2 82.2 91.99 80.71 91.99 C 79.23 91.99 78.01 93.2 78.01 94.69 "/>
</g>
<g>
<path transform="matrix(1,0,0,-1,0,273)" d="M 72.46 101.74 C 72.46 103.22 73.67 104.44 75.16 104.44 C 76.64 104.44 77.86 103.22 77.86 101.74 C 77.86 100.25 76.64 99.04 75.16 99.04 C 73.67 99.04 72.46 100.25 72.46 101.74 " fill="#569bbd" fill-opacity=".502"/>
<path transform="matrix(1,0,0,-1,0,273)" stroke-width=".75" stroke-linecap="round" stroke-linejoin="round" fill="none" stroke="#569bbd" stroke-opacity=".502" d="M 72.46 101.74 C 72.46 103.22 73.67 104.44 75.16 104.44 C 76.64 104.44 77.86 103.22 77.86 101.74 C 77.86 100.25 76.64 99.04 75.16 99.04 C 73.67 99.04 72.46 100.25 72.46 101.74 "/>
</g>
<g>
<path transform="matrix(1,0,0,-1,0,273)" d="M 78.01 101.74 C 78.01 103.22 79.23 104.44 80.71 104.44 C 82.2 104.44 83.41 103.22 83.41 101.74 C 83.41 100.25 82.2 99.04 80.71 99.04 C 79.23 99.04 78.01 100.25 78.01 101.74 " fill="#569bbd" fill-opacity=".502"/>
<path transform="matrix(1,0,0,-1,0,273)" stroke-width=".75" stroke-linecap="round" stroke-linejoin="round" fill="none" stroke="#569bbd" stroke-opacity=".502" d="M 78.01 101.74 C 78.01 103.22 79.23 104.44 80.71 104.44 C 82.2 104.44 83.41 103.22 83.41 101.74 C 83.41 100.25 82.2 99.04 80.71 99.04 C 79.23 99.04 78.01 100.25 78.01 101.74 "/>
</g>
<g>
<path transform="matrix(1,0,0,-1,0,273)" d="M 83.57 101.74 C 83.57 103.22 84.78 104.44 86.27 104.44 C 87.75 104.44 88.97 103.22 88.97 101.74 C 88.97 100.25 87.75 99.04 86.27 99.04 C 84.78 99.04 83.57 100.25 83.57 101.74 " fill="#569bbd" fill-opacity=".502"/>
<path transform="matrix(1,0,0,-1,0,273)" stroke-width=".75" stroke-linecap="round" stroke-linejoin="round" fill="none" stroke="#569bbd" stroke-opacity=".502" d="M 83.57 101.74 C 83.57 103.22 84.78 104.44 86.27 104.44 C 87.75 104.44 88.97 103.22 88.97 101.74 C 88.97 100.25 87.75 99.04 86.27 99.04 C 84.78 99.04 83.57 100.25 83.57 101.74 "/>
</g>
<g>
<path transform="matrix(1,0,0,-1,0,273)" d="M 78.01 117.81 C 78.01 119.29 79.23 120.51 80.71 120.51 C 82.2 120.51 83.41 119.29 83.41 117.81 C 83.41 116.32 82.2 115.11 80.71 115.11 C 79.23 115.11 78.01 116.32 78.01 117.81 " fill="#569bbd" fill-opacity=".502"/>
<path transform="matrix(1,0,0,-1,0,273)" stroke-width=".75" stroke-linecap="round" stroke-linejoin="round" fill="none" stroke="#569bbd" stroke-opacity=".502" d="M 78.01 117.81 C 78.01 119.29 79.23 120.51 80.71 120.51 C 82.2 120.51 83.41 119.29 83.41 117.81 C 83.41 116.32 82.2 115.11 80.71 115.11 C 79.23 115.11 78.01 116.32 78.01 117.81 "/>
</g>
<g>
<path transform="matrix(1,0,0,-1,0,273)" d="M 78.01 128.38 C 78.01 129.86 79.23 131.08 80.71 131.08 C 82.2 131.08 83.41 129.86 83.41 128.38 C 83.41 126.89 82.2 125.68 80.71 125.68 C 79.23 125.68 78.01 126.89 78.01 128.38 " fill="#569bbd" fill-opacity=".502"/>
<path transform="matrix(1,0,0,-1,0,273)" stroke-width=".75" stroke-linecap="round" stroke-linejoin="round" fill="none" stroke="#569bbd" stroke-opacity=".502" d="M 78.01 128.38 C 78.01 129.86 79.23 131.08 80.71 131.08 C 82.2 131.08 83.41 129.86 83.41 128.38 C 83.41 126.89 82.2 125.68 80.71 125.68 C 79.23 125.68 78.01 126.89 78.01 128.38 "/>
</g>
<g>
<path transform="matrix(1,0,0,-1,0,273)" d="M 78.01 139.17 C 78.01 140.65 79.23 141.87 80.71 141.87 C 82.2 141.87 83.41 140.65 83.41 139.17 C 83.41 137.68 82.2 136.47 80.71 136.47 C 79.23 136.47 78.01 137.68 78.01 139.17 " fill="#569bbd" fill-opacity=".502"/>
<path transform="matrix(1,0,0,-1,0,273)" stroke-width=".75" stroke-linecap="round" stroke-linejoin="round" fill="none" stroke="#569bbd" stroke-opacity=".502" d="M 78.01 139.17 C 78.01 140.65 79.23 141.87 80.71 141.87 C 82.2 141.87 83.41 140.65 83.41 139.17 C 83.41 137.68 82.2 136.47 80.71 136.47 C 79.23 136.47 78.01 137.68 78.01 139.17 "/>
</g>
<g>
<path transform="matrix(1,0,0,-1,0,273)" d="M 72.46 150.95 C 72.46 152.43 73.67 153.65 75.16 153.65 C 76.64 153.65 77.86 152.43 77.86 150.95 C 77.86 149.46 76.64 148.25 75.16 148.25 C 73.67 148.25 72.46 149.46 72.46 150.95 " fill="#569bbd" fill-opacity=".502"/>
<path transform="matrix(1,0,0,-1,0,273)" stroke-width=".75" stroke-linecap="round" stroke-linejoin="round" fill="none" stroke="#569bbd" stroke-opacity=".502" d="M 72.46 150.95 C 72.46 152.43 73.67 153.65 75.16 153.65 C 76.64 153.65 77.86 152.43 77.86 150.95 C 77.86 149.46 76.64 148.25 75.16 148.25 C 73.67 148.25 72.46 149.46 72.46 150.95 "/>
</g>
<g>
<path transform="matrix(1,0,0,-1,0,273)" d="M 78.01 150.95 C 78.01 152.43 79.23 153.65 80.71 153.65 C 82.2 153.65 83.41 152.43 83.41 150.95 C 83.41 149.46 82.2 148.25 80.71 148.25 C 79.23 148.25 78.01 149.46 78.01 150.95 " fill="#569bbd" fill-opacity=".502"/>
<path transform="matrix(1,0,0,-1,0,273)" stroke-width=".75" stroke-linecap="round" stroke-linejoin="round" fill="none" stroke="#569bbd" stroke-opacity=".502" d="M 78.01 150.95 C 78.01 152.43 79.23 153.65 80.71 153.65 C 82.2 153.65 83.41 152.43 83.41 150.95 C 83.41 149.46 82.2 148.25 80.71 148.25 C 79.23 148.25 78.01 149.46 78.01 150.95 "/>
</g>
<g>
<path transform="matrix(1,0,0,-1,0,273)" d="M 83.57 150.95 C 83.57 152.43 84.78 153.65 86.27 153.65 C 87.75 153.65 88.97 152.43 88.97 150.95 C 88.97 149.46 87.75 148.25 86.27 148.25 C 84.78 148.25 83.57 149.46 83.57 150.95 " fill="#569bbd" fill-opacity=".502"/>
<path transform="matrix(1,0,0,-1,0,273)" stroke-width=".75" stroke-linecap="round" stroke-linejoin="round" fill="none" stroke="#569bbd" stroke-opacity=".502" d="M 83.57 150.95 C 83.57 152.43 84.78 153.65 86.27 153.65 C 87.75 153.65 88.97 152.43 88.97 150.95 C 88.97 149.46 87.75 148.25 86.27 148.25 C 84.78 148.25 83.57 149.46 83.57 150.95 "/>
</g>
<g>
<path transform="matrix(1,0,0,-1,0,273)" d="M 78.01 161.63 C 78.01 163.11 79.23 164.33 80.71 164.33 C 82.2 164.33 83.41 163.11 83.41 161.63 C 83.41 160.14 82.2 158.93 80.71 158.93 C 79.23 158.93 78.01 160.14 78.01 161.63 " fill="#569bbd" fill-opacity=".502"/>
<path transform="matrix(1,0,0,-1,0,273)" stroke-width=".75" stroke-linecap="round" stroke-linejoin="round" fill="none" stroke="#569bbd" stroke-opacity=".502" d="M 78.01 161.63 C 78.01 163.11 79.23 164.33 80.71 164.33 C 82.2 164.33 83.41 163.11 83.41 161.63 C 83.41 160.14 82.2 158.93 80.71 158.93 C 79.23 158.93 78.01 160.14 78.01 161.63 "/>
</g>
<g>
<path transform="matrix(1,0,0,-1,0,273)" d="M 78.01 165.92 C 78.01 167.4 79.23 168.62 80.71 168.62 C 82.2 168.62 83.41 167.4 83.41 165.92 C 83.41 164.43 82.2 163.22 80.71 163.22 C 79.23 163.22 78.01 164.43 78.01 165.92 " fill="#569bbd" fill-opacity=".502"/>
<path transform="matrix(1,0,0,-1,0,273)" stroke-width=".75" stroke-linecap="round" stroke-linejoin="round" fill="none" stroke="#569bbd" stroke-opacity=".502" d="M 78.01 165.92 C 78.01 167.4 79.23 168.62 80.71 168.62 C 82.2 168.62 83.41 167.4 83.41 165.92 C 83.41 164.43 82.2 163.22 80.71 163.22 C 79.23 163.22 78.01 164.43 78.01 165.92 "/>
</g>
<g>
<path transform="matrix(1,0,0,-1,0,273)" d="M 78.01 176.6 C 78.01 178.08 79.23 179.3 80.71 179.3 C 82.2 179.3 83.41 178.08 83.41 176.6 C 83.41 175.11 82.2 173.9 80.71 173.9 C 79.23 173.9 78.01 175.11 78.01 176.6 " fill="#569bbd" fill-opacity=".502"/>
<path transform="matrix(1,0,0,-1,0,273)" stroke-width=".75" stroke-linecap="round" stroke-linejoin="round" fill="none" stroke="#569bbd" stroke-opacity=".502" d="M 78.01 176.6 C 78.01 178.08 79.23 179.3 80.71 179.3 C 82.2 179.3 83.41 178.08 83.41 176.6 C 83.41 175.11 82.2 173.9 80.71 173.9 C 79.23 173.9 78.01 175.11 78.01 176.6 "/>
</g>
<g>
<path transform="matrix(1,0,0,-1,0,273)" d="M 78.01 182.98 C 78.01 184.47 79.23 185.68 80.71 185.68 C 82.2 185.68 83.41 184.47 83.41 182.98 C 83.41 181.5 82.2 180.28 80.71 180.28 C 79.23 180.28 78.01 181.5 78.01 182.98 " fill="#569bbd" fill-opacity=".502"/>
<path transform="matrix(1,0,0,-1,0,273)" stroke-width=".75" stroke-linecap="round" stroke-linejoin="round" fill="none" stroke="#569bbd" stroke-opacity=".502" d="M 78.01 182.98 C 78.01 184.47 79.23 185.68 80.71 185.68 C 82.2 185.68 83.41 184.47 83.41 182.98 C 83.41 181.5 82.2 180.28 80.71 180.28 C 79.23 180.28 78.01 181.5 78.01 182.98 "/>
</g>
<g>
<path transform="matrix(1,0,0,-1,0,273)" d="M 78.01 198.95 C 78.01 200.43 79.23 201.65 80.71 201.65 C 82.2 201.65 83.41 200.43 83.41 198.95 C 83.41 197.46 82.2 196.25 80.71 196.25 C 79.23 196.25 78.01 197.46 78.01 198.95 " fill="#569bbd" fill-opacity=".502"/>
<path transform="matrix(1,0,0,-1,0,273)" stroke-width=".75" stroke-linecap="round" stroke-linejoin="round" fill="none" stroke="#569bbd" stroke-opacity=".502" d="M 78.01 198.95 C 78.01 200.43 79.23 201.65 80.71 201.65 C 82.2 201.65 83.41 200.43 83.41 198.95 C 83.41 197.46 82.2 196.25 80.71 196.25 C 79.23 196.25 78.01 197.46 78.01 198.95 "/>
</g>
<g>
<path transform="matrix(1,0,0,-1,0,273)" d="M 78.01 236.38 C 78.01 237.86 79.23 239.08 80.71 239.08 C 82.2 239.08 83.41 237.86 83.41 236.38 C 83.41 234.89 82.2 233.68 80.71 233.68 C 79.23 233.68 78.01 234.89 78.01 236.38 " fill="#569bbd" fill-opacity=".502"/>
<path transform="matrix(1,0,0,-1,0,273)" stroke-width=".75" stroke-linecap="round" stroke-linejoin="round" fill="none" stroke="#569bbd" stroke-opacity=".502" d="M 78.01 236.38 C 78.01 237.86 79.23 239.08 80.71 239.08 C 82.2 239.08 83.41 237.86 83.41 236.38 C 83.41 234.89 82.2 233.68 80.71 233.68 C 79.23 233.68 78.01 234.89 78.01 236.38 "/>
</g>
<g>
<path transform="matrix(1,0,0,-1,0,273)" d="M 78.01 252.34 C 78.01 253.83 79.23 255.04 80.71 255.04 C 82.2 255.04 83.41 253.83 83.41 252.34 C 83.41 250.86 82.2 249.64 80.71 249.64 C 79.23 249.64 78.01 250.86 78.01 252.34 " fill="#569bbd" fill-opacity=".502"/>
<path transform="matrix(1,0,0,-1,0,273)" stroke-width=".75" stroke-linecap="round" stroke-linejoin="round" fill="none" stroke="#569bbd" stroke-opacity=".502" d="M 78.01 252.34 C 78.01 253.83 79.23 255.04 80.71 255.04 C 82.2 255.04 83.41 253.83 83.41 252.34 C 83.41 250.86 82.2 249.64 80.71 249.64 C 79.23 249.64 78.01 250.86 78.01 252.34 "/>
</g>
</g>
</g>
</svg>
