<?xml version="1.0" encoding="UTF-8" standalone="no"?>
<!DOCTYPE svg PUBLIC "-//W3C//DTD SVG 1.1//EN" "http://www.w3.org/Graphics/SVG/1.1/DTD/svg11.dtd">
<svg xmlns="http://www.w3.org/2000/svg" xmlns:xlink="http://www.w3.org/1999/xlink" version="1.1" width="427pt" height="182pt" viewBox="0 0 427 182">
<g enable-background="new">
<path transform="matrix(1,0,0,-1,0,182)" stroke-width=".75" stroke-linecap="round" stroke-linejoin="round" fill="none" stroke="#000000" d="M 14.4 28.8 L 413.28 28.8 "/>
<path transform="matrix(1,0,0,-1,0,182)" stroke-width=".75" stroke-linecap="round" stroke-linejoin="round" fill="none" stroke="#000000" d="M 66.11 28.8 L 66.11 24.48 "/>
<path transform="matrix(1,0,0,-1,0,182)" stroke-width=".75" stroke-linecap="round" stroke-linejoin="round" fill="none" stroke="#000000" d="M 139.97 28.8 L 139.97 24.48 "/>
<path transform="matrix(1,0,0,-1,0,182)" stroke-width=".75" stroke-linecap="round" stroke-linejoin="round" fill="none" stroke="#000000" d="M 213.84 28.8 L 213.84 24.48 "/>
<path transform="matrix(1,0,0,-1,0,182)" stroke-width=".75" stroke-linecap="round" stroke-linejoin="round" fill="none" stroke="#000000" d="M 287.71 28.8 L 287.71 24.48 "/>
<path transform="matrix(1,0,0,-1,0,182)" stroke-width=".75" stroke-linecap="round" stroke-linejoin="round" fill="none" stroke="#000000" d="M 361.57 28.8 L 361.57 24.48 "/>
<text xml:space="preserve" transform="matrix(1 0 -0 1 0 182)" font-size="12" font-family="Helvetica"><tspan y="-8.64" x="59.27 66.278">&#x2212;4</tspan></text>
<text xml:space="preserve" transform="matrix(1 0 -0 1 0 182)" font-size="12" font-family="Helvetica"><tspan y="-8.64" x="133.13 140.138">&#x2212;2</tspan></text>
<text xml:space="preserve" transform="matrix(1 0 -0 1 0 182)" font-size="12" font-family="Helvetica"><tspan y="-8.64" x="210.5">0</tspan></text>
<text xml:space="preserve" transform="matrix(1 0 -0 1 0 182)" font-size="12" font-family="Helvetica"><tspan y="-8.64" x="284.37">2</tspan></text>
<text xml:space="preserve" transform="matrix(1 0 -0 1 0 182)" font-size="12" font-family="Helvetica"><tspan y="-8.64" x="358.24">4</tspan></text>
<path transform="matrix(1,0,0,-1,0,182)" stroke-width=".75" stroke-linecap="round" stroke-linejoin="round" fill="none" stroke="#000000" d="M 14.4 28.8 L 413.28 28.8 "/>
<path transform="matrix(1,0,0,-1,0,182)" stroke-width=".75" stroke-linecap="round" stroke-linejoin="round" fill="none" stroke="#000000" d="M 29.17 28.8 L 29.17 27.36 "/>
<path transform="matrix(1,0,0,-1,0,182)" stroke-width=".75" stroke-linecap="round" stroke-linejoin="round" fill="none" stroke="#000000" d="M 103.04 28.8 L 103.04 27.36 "/>
<path transform="matrix(1,0,0,-1,0,182)" stroke-width=".75" stroke-linecap="round" stroke-linejoin="round" fill="none" stroke="#000000" d="M 176.91 28.8 L 176.91 27.36 "/>
<path transform="matrix(1,0,0,-1,0,182)" stroke-width=".75" stroke-linecap="round" stroke-linejoin="round" fill="none" stroke="#000000" d="M 250.77 28.8 L 250.77 27.36 "/>
<path transform="matrix(1,0,0,-1,0,182)" stroke-width=".75" stroke-linecap="round" stroke-linejoin="round" fill="none" stroke="#000000" d="M 324.64 28.8 L 324.64 27.36 "/>
<path transform="matrix(1,0,0,-1,0,182)" stroke-width=".75" stroke-linecap="round" stroke-linejoin="round" fill="none" stroke="#000000" d="M 398.51 28.8 L 398.51 27.36 "/>
<clipPath id="cp0">
<path transform="matrix(1,0,0,-1,0,182)" d="M 14.4 28.8 L 413.28 28.8 L 413.28 167.76001 L 14.4 167.76001 Z "/>
</clipPath>
<g clip-path="url(#cp0)">
<path transform="matrix(1,0,0,-1,0,182)" stroke-width=".75" stroke-linecap="round" stroke-linejoin="round" fill="none" stroke="#000000" d="M 14.4 33.95 L 413.28 33.95 "/>
<path transform="matrix(1,0,0,-1,0,182)" stroke-width=".75" stroke-linecap="round" stroke-linejoin="round" fill="none" stroke="#569bbd" d="M 0 33.95 L .37 33.95 L 1.1 33.95 L 1.84 33.95 L 2.58 33.95 L 3.32 33.95 L 4.06 33.95 L 4.8 33.95 L 5.54 33.95 L 6.27 33.95 L 7.01 33.95 L 7.75 33.95 L 8.49 33.95 L 9.23 33.95 L 9.97 33.95 L 10.71 33.95 L 11.45 33.95 L 12.18 33.95 L 12.92 33.95 L 13.66 33.95 L 14.4 33.95 L 15.14 33.95 L 15.88 33.95 L 16.62 33.95 L 17.35 33.95 L 18.09 33.95 L 18.83 33.95 L 19.57 33.95 L 20.31 33.95 L 21.05 33.95 L 21.79 33.95 L 22.53 33.95 L 23.26 33.95 L 24 33.95 L 24.74 33.95 L 25.48 33.95 L 26.22 33.95 L 26.96 33.95 L 27.7 33.95 L 28.43 33.95 L 29.17 33.95 L 29.91 33.95 L 30.65 33.95 L 31.39 33.95 L 32.13 33.95 L 32.87 33.95 L 33.61 33.95 L 34.34 33.95 L 35.08 33.95 L 35.82 33.95 L 36.56 33.95 L 37.3 33.95 L 38.04 33.95 L 38.78 33.95 L 39.51 33.95 L 40.25 33.95 L 40.99 33.95 L 41.73 33.95 L 42.47 33.95 L 43.21 33.95 L 43.95 33.95 L 44.69 33.95 L 45.42 33.95 L 46.16 33.95 L 46.9 33.95 L 47.64 33.95 L 48.38 33.95 L 49.12 33.95 L 49.86 33.95 L 50.59 33.95 L 51.33 33.95 L 52.07 33.96 L 52.81 33.96 L 53.55 33.96 L 54.29 33.96 L 55.03 33.96 L 55.77 33.96 L 56.5 33.96 L 57.24 33.96 L 57.98 33.96 L 58.72 33.97 L 59.46 33.97 L 60.2 33.97 L 60.94 33.97 L 61.67 33.97 L 62.41 33.98 L 63.15 33.98 L 63.89 33.98 L 64.63 33.98 L 65.37 33.99 L 66.11 33.99 L 66.85 33.99 L 67.58 34 L 68.32 34 L 69.06 34.01 L 69.8 34.01 L 70.54 34.02 L 71.28 34.02 L 72.02 34.03 L 72.75 34.03 L 73.49 34.04 L 74.23 34.05 L 74.97 34.06 L 75.71 34.06 L 76.45 34.07 L 77.19 34.08 L 77.93 34.09 L 78.66 34.11 L 79.4 34.12 L 80.14 34.13 L 80.88 34.14 L 81.62 34.16 L 82.36 34.17 L 83.1 34.19 L 83.83 34.21 L 84.57 34.23 L 85.31 34.25 L 86.05 34.27 L 86.79 34.29 L 87.53 34.32 L 88.27 34.34 L 89.01 34.37 L 89.74 34.4 L 90.48 34.43 L 91.22 34.47 L 91.96 34.5 L 92.7 34.54 L 93.44 34.58 L 94.18 34.62 L 94.91 34.67 L 95.65 34.72 L 96.39 34.77 L 97.13 34.82 L 97.87 34.88 L 98.61 34.94 L 99.35 35 L 100.09 35.07 L 100.82 35.14 L 101.56 35.21 L 102.3 35.29 L 103.04 35.38 L 103.78 35.46 L 104.52 35.56 L 105.26 35.65 L 105.99 35.76 L 106.73 35.87 L 107.47 35.98 L 108.21 36.1 L 108.95 36.23 L 109.69 36.36 L 110.43 36.5 L 111.17 36.65 L 111.9 36.8 L 112.64 36.96 L 113.38 37.13 L 114.12 37.31 L 114.86 37.49 L 115.6 37.69 L 116.34 37.89 L 117.07 38.1 L 117.81 38.33 L 118.55 38.56 L 119.29 38.8 L 120.03 39.06 L 120.77 39.32 L 121.51 39.6 L 122.25 39.89 L 122.98 40.19 L 123.72 40.5 L 124.46 40.83 L 125.2 41.17 L 125.94 41.52 L 126.68 41.89 L 127.42 42.27 L 128.15 42.67 L 128.89 43.08 L 129.63 43.51 L 130.37 43.96 L 131.11 44.42 L 131.85 44.89 L 132.59 45.39 L 133.33 45.9 L 134.06 46.43 L 134.8 46.98 L 135.54 47.55 L 136.28 48.13 L 137.02 48.74 L 137.76 49.36 L 138.5 50.01 L 139.23 50.67 L 139.97 51.36 L 140.71 52.07 L 141.45 52.8 L 142.19 53.54 L 142.93 54.32 L 143.67 55.11 L 144.41 55.92 L 145.14 56.76 L 145.88 57.62 L 146.62 58.5 L 147.36 59.41 L 148.1 60.34 L 148.84 61.29 L 149.58 62.26 L 150.31 63.26 L 151.05 64.28 L 151.79 65.32 L 152.53 66.39 L 153.27 67.48 L 154.01 68.59 L 154.75 69.72 L 155.49 70.88 L 156.22 72.05 L 156.96 73.25 L 157.7 74.48 L 158.44 75.72 L 159.18 76.98 L 159.92 78.27 L 160.66 79.57 L 161.39 80.89 L 162.13 82.24 L 162.87 83.6 L 163.61 84.98 L 164.35 86.37 L 165.09 87.79 L 165.83 89.22 L 166.57 90.66 L 167.3 92.12 L 168.04 93.59 L 168.78 95.08 L 169.52 96.58 L 170.26 98.08 L 171 99.6 L 171.74 101.13 L 172.47 102.67 L 173.21 104.21 L 173.95 105.76 L 174.69 107.31 L 175.43 108.87 L 176.17 110.43 L 176.91 111.99 L 177.65 113.55 L 178.38 115.11 L 179.12 116.66 L 179.86 118.22 L 180.6 119.76 L 181.34 121.31 L 182.08 122.84 L 182.82 124.36 L 183.55 125.88 L 184.29 127.38 L 185.03 128.87 L 185.77 130.34 L 186.51 131.8 L 187.25 133.23 L 187.99 134.65 L 188.73 136.05 L 189.46 137.43 L 190.2 138.79 L 190.94 140.11 L 191.68 141.42 L 192.42 142.69 L 193.16 143.94 L 193.9 145.16 L 194.63 146.34 L 195.37 147.49 L 196.11 148.61 L 196.85 149.7 L 197.59 150.74 L 198.33 151.75 L 199.07 152.72 L 199.81 153.65 L 200.54 154.54 L 201.28 155.39 L 202.02 156.19 L 202.76 156.95 L 203.5 157.67 L 204.24 158.34 L 204.98 158.96 L 205.71 159.54 L 206.45 160.07 L 207.19 160.55 L 207.93 160.98 L 208.67 161.36 L 209.41 161.69 L 210.15 161.97 L 210.89 162.2 L 211.62 162.38 L 212.36 162.51 L 213.1 162.59 L 213.84 162.61 L 214.58 162.59 L 215.32 162.51 L 216.06 162.38 L 216.79 162.2 L 217.53 161.97 L 218.27 161.69 L 219.01 161.36 L 219.75 160.98 L 220.49 160.55 L 221.23 160.07 L 221.97 159.54 L 222.7 158.96 L 223.44 158.34 L 224.18 157.67 L 224.92 156.95 L 225.66 156.19 L 226.4 155.39 L 227.14 154.54 L 227.87 153.65 L 228.61 152.72 L 229.35 151.75 L 230.09 150.74 L 230.83 149.7 L 231.57 148.61 L 232.31 147.49 L 233.05 146.34 L 233.78 145.16 L 234.52 143.94 L 235.26 142.69 L 236 141.42 L 236.74 140.11 L 237.48 138.79 L 238.22 137.43 L 238.95 136.05 L 239.69 134.65 L 240.43 133.23 L 241.17 131.8 L 241.91 130.34 L 242.65 128.87 L 243.39 127.38 L 244.13 125.88 L 244.86 124.36 L 245.6 122.84 L 246.34 121.31 L 247.08 119.76 L 247.82 118.22 L 248.56 116.66 L 249.3 115.11 L 250.03 113.55 L 250.77 111.99 L 251.51 110.43 L 252.25 108.87 L 252.99 107.31 L 253.73 105.76 L 254.47 104.21 L 255.21 102.67 L 255.94 101.13 L 256.68 99.6 L 257.42 98.08 L 258.16 96.58 L 258.9 95.08 L 259.64 93.59 L 260.38 92.12 L 261.11 90.66 L 261.85 89.22 L 262.59 87.79 L 263.33 86.37 L 264.07 84.98 L 264.81 83.6 L 265.55 82.24 L 266.29 80.89 L 267.02 79.57 L 267.76 78.27 L 268.5 76.98 L 269.24 75.72 L 269.98 74.48 L 270.72 73.25 L 271.46 72.05 L 272.19 70.88 L 272.93 69.72 L 273.67 68.59 L 274.41 67.48 L 275.15 66.39 L 275.89 65.32 L 276.63 64.28 L 277.37 63.26 L 278.1 62.26 L 278.84 61.29 L 279.58 60.34 L 280.32 59.41 L 281.06 58.5 L 281.8 57.62 L 282.54 56.76 L 283.27 55.92 L 284.01 55.11 L 284.75 54.32 L 285.49 53.54 L 286.23 52.8 L 286.97 52.07 L 287.71 51.36 L 288.45 50.67 L 289.18 50.01 L 289.92 49.36 L 290.66 48.74 L 291.4 48.13 L 292.14 47.55 L 292.88 46.98 L 293.62 46.43 L 294.35 45.9 L 295.09 45.39 L 295.83 44.89 L 296.57 44.42 L 297.31 43.96 L 298.05 43.51 L 298.79 43.08 L 299.53 42.67 L 300.26 42.27 L 301 41.89 L 301.74 41.52 L 302.48 41.17 L 303.22 40.83 L 303.96 40.5 L 304.7 40.19 L 305.43 39.89 L 306.17 39.6 L 306.91 39.32 L 307.65 39.06 L 308.39 38.8 L 309.13 38.56 L 309.87 38.33 L 310.61 38.1 L 311.34 37.89 L 312.08 37.69 L 312.82 37.49 L 313.56 37.31 L 314.3 37.13 L 315.04 36.96 L 315.78 36.8 L 316.51 36.65 L 317.25 36.5 L 317.99 36.36 L 318.73 36.23 L 319.47 36.1 L 320.21 35.98 L 320.95 35.87 L 321.69 35.76 L 322.42 35.65 L 323.16 35.56 L 323.9 35.46 L 324.64 35.38 L 325.38 35.29 L 326.12 35.21 L 326.86 35.14 L 327.59 35.07 L 328.33 35 L 329.07 34.94 L 329.81 34.88 L 330.55 34.82 L 331.29 34.77 L 332.03 34.72 L 332.77 34.67 L 333.5 34.62 L 334.24 34.58 L 334.98 34.54 L 335.72 34.5 L 336.46 34.47 L 337.2 34.43 L 337.94 34.4 L 338.67 34.37 L 339.41 34.34 L 340.15 34.32 L 340.89 34.29 L 341.63 34.27 L 342.37 34.25 L 343.11 34.23 L 343.85 34.21 L 344.58 34.19 L 345.32 34.17 L 346.06 34.16 L 346.8 34.14 L 347.54 34.13 L 348.28 34.12 L 349.02 34.11 L 349.75 34.09 L 350.49 34.08 L 351.23 34.07 L 351.97 34.06 L 352.71 34.06 L 353.45 34.05 L 354.19 34.04 L 354.93 34.03 L 355.66 34.03 L 356.4 34.02 L 357.14 34.02 L 357.88 34.01 L 358.62 34.01 L 359.36 34 L 360.1 34 L 360.83 33.99 L 361.57 33.99 L 362.31 33.99 L 363.05 33.98 L 363.79 33.98 L 364.53 33.98 L 365.27 33.98 L 366.01 33.97 L 366.74 33.97 L 367.48 33.97 L 368.22 33.97 L 368.96 33.97 L 369.7 33.96 L 370.44 33.96 L 371.18 33.96 L 371.91 33.96 L 372.65 33.96 L 373.39 33.96 L 374.13 33.96 L 374.87 33.96 L 375.61 33.96 L 376.35 33.95 L 377.09 33.95 L 377.82 33.95 L 378.56 33.95 L 379.3 33.95 L 380.04 33.95 L 380.78 33.95 L 381.52 33.95 L 382.26 33.95 L 382.99 33.95 L 383.73 33.95 L 384.47 33.95 L 385.21 33.95 L 385.95 33.95 L 386.69 33.95 L 387.43 33.95 L 388.17 33.95 L 388.9 33.95 L 389.64 33.95 L 390.38 33.95 L 391.12 33.95 L 391.86 33.95 L 392.6 33.95 L 393.34 33.95 L 394.07 33.95 L 394.81 33.95 L 395.55 33.95 L 396.29 33.95 L 397.03 33.95 L 397.77 33.95 L 398.51 33.95 L 399.25 33.95 L 399.98 33.95 L 400.72 33.95 L 401.46 33.95 L 402.2 33.95 L 402.94 33.95 L 403.68 33.95 L 404.42 33.95 L 405.15 33.95 L 405.89 33.95 L 406.63 33.95 L 407.37 33.95 L 408.11 33.95 L 408.85 33.95 L 409.59 33.95 L 410.33 33.95 L 411.06 33.95 L 411.8 33.95 L 412.54 33.95 L 413.28 33.95 L 414.02 33.95 L 414.76 33.95 L 415.5 33.95 L 416.23 33.95 L 416.97 33.95 L 417.71 33.95 L 418.45 33.95 L 419.19 33.95 L 419.93 33.95 L 420.67 33.95 L 421.41 33.95 L 422.14 33.95 L 422.88 33.95 L 423.62 33.95 L 424.36 33.95 L 425.1 33.95 L 425.84 33.95 L 426.58 33.95 L 427.31 33.95 L 427.68 33.95 "/>
<path transform="matrix(1,0,0,-1,0,182)" stroke-width="1.12" stroke-linecap="round" stroke-linejoin="round" fill="none" stroke="#569bbd" stroke-opacity=".537" d="M 0 34.02 L .37 34.02 L 1.1 34.02 L 1.84 34.03 L 2.58 34.03 L 3.32 34.03 L 4.06 34.03 L 4.8 34.04 L 5.54 34.04 L 6.27 34.04 L 7.01 34.04 L 7.75 34.05 L 8.49 34.05 L 9.23 34.05 L 9.97 34.05 L 10.71 34.06 L 11.45 34.06 L 12.18 34.06 L 12.92 34.06 L 13.66 34.07 L 14.4 34.07 L 15.14 34.07 L 15.88 34.08 L 16.62 34.08 L 17.35 34.08 L 18.09 34.09 L 18.83 34.09 L 19.57 34.1 L 20.31 34.1 L 21.05 34.1 L 21.79 34.11 L 22.53 34.11 L 23.26 34.12 L 24 34.12 L 24.74 34.13 L 25.48 34.13 L 26.22 34.14 L 26.96 34.14 L 27.7 34.15 L 28.43 34.15 L 29.17 34.16 L 29.91 34.16 L 30.65 34.17 L 31.39 34.18 L 32.13 34.18 L 32.87 34.19 L 33.61 34.2 L 34.34 34.2 L 35.08 34.21 L 35.82 34.22 L 36.56 34.23 L 37.3 34.23 L 38.04 34.24 L 38.78 34.25 L 39.51 34.26 L 40.25 34.27 L 40.99 34.28 L 41.73 34.29 L 42.47 34.3 L 43.21 34.31 L 43.95 34.32 L 44.69 34.33 L 45.42 34.34 L 46.16 34.35 L 46.9 34.36 L 47.64 34.37 L 48.38 34.39 L 49.12 34.4 L 49.86 34.41 L 50.59 34.43 L 51.33 34.44 L 52.07 34.45 L 52.81 34.47 L 53.55 34.48 L 54.29 34.5 L 55.03 34.52 L 55.77 34.53 L 56.5 34.55 L 57.24 34.57 L 57.98 34.59 L 58.72 34.61 L 59.46 34.63 L 60.2 34.65 L 60.94 34.67 L 61.67 34.69 L 62.41 34.71 L 63.15 34.74 L 63.89 34.76 L 64.63 34.78 L 65.37 34.81 L 66.11 34.84 L 66.85 34.86 L 67.58 34.89 L 68.32 34.92 L 69.06 34.95 L 69.8 34.98 L 70.54 35.01 L 71.28 35.04 L 72.02 35.08 L 72.75 35.11 L 73.49 35.15 L 74.23 35.19 L 74.97 35.23 L 75.71 35.27 L 76.45 35.31 L 77.19 35.35 L 77.93 35.39 L 78.66 35.44 L 79.4 35.48 L 80.14 35.53 L 80.88 35.58 L 81.62 35.63 L 82.36 35.69 L 83.1 35.74 L 83.83 35.8 L 84.57 35.86 L 85.31 35.92 L 86.05 35.98 L 86.79 36.04 L 87.53 36.11 L 88.27 36.18 L 89.01 36.25 L 89.74 36.32 L 90.48 36.4 L 91.22 36.48 L 91.96 36.56 L 92.7 36.64 L 93.44 36.73 L 94.18 36.82 L 94.91 36.91 L 95.65 37 L 96.39 37.1 L 97.13 37.2 L 97.87 37.31 L 98.61 37.42 L 99.35 37.53 L 100.09 37.64 L 100.82 37.76 L 101.56 37.88 L 102.3 38.01 L 103.04 38.14 L 103.78 38.28 L 104.52 38.42 L 105.26 38.56 L 105.99 38.71 L 106.73 38.87 L 107.47 39.02 L 108.21 39.19 L 108.95 39.36 L 109.69 39.53 L 110.43 39.71 L 111.17 39.9 L 111.9 40.09 L 112.64 40.29 L 113.38 40.5 L 114.12 40.71 L 114.86 40.93 L 115.6 41.15 L 116.34 41.38 L 117.07 41.62 L 117.81 41.87 L 118.55 42.13 L 119.29 42.39 L 120.03 42.66 L 120.77 42.94 L 121.51 43.23 L 122.25 43.53 L 122.98 43.83 L 123.72 44.15 L 124.46 44.48 L 125.2 44.81 L 125.94 45.16 L 126.68 45.52 L 127.42 45.88 L 128.15 46.26 L 128.89 46.65 L 129.63 47.05 L 130.37 47.47 L 131.11 47.89 L 131.85 48.33 L 132.59 48.78 L 133.33 49.25 L 134.06 49.72 L 134.8 50.21 L 135.54 50.72 L 136.28 51.24 L 137.02 51.77 L 137.76 52.32 L 138.5 52.89 L 139.23 53.47 L 139.97 54.06 L 140.71 54.67 L 141.45 55.3 L 142.19 55.95 L 142.93 56.61 L 143.67 57.29 L 144.41 57.98 L 145.14 58.7 L 145.88 59.43 L 146.62 60.18 L 147.36 60.95 L 148.1 61.74 L 148.84 62.54 L 149.58 63.37 L 150.31 64.21 L 151.05 65.08 L 151.79 65.96 L 152.53 66.87 L 153.27 67.79 L 154.01 68.74 L 154.75 69.7 L 155.49 70.69 L 156.22 71.69 L 156.96 72.72 L 157.7 73.77 L 158.44 74.83 L 159.18 75.92 L 159.92 77.03 L 160.66 78.15 L 161.39 79.3 L 162.13 80.47 L 162.87 81.66 L 163.61 82.86 L 164.35 84.09 L 165.09 85.33 L 165.83 86.59 L 166.57 87.87 L 167.3 89.17 L 168.04 90.49 L 168.78 91.82 L 169.52 93.17 L 170.26 94.53 L 171 95.91 L 171.74 97.3 L 172.47 98.7 L 173.21 100.12 L 173.95 101.55 L 174.69 102.98 L 175.43 104.43 L 176.17 105.89 L 176.91 107.35 L 177.65 108.83 L 178.38 110.3 L 179.12 111.78 L 179.86 113.27 L 180.6 114.75 L 181.34 116.24 L 182.08 117.72 L 182.82 119.21 L 183.55 120.68 L 184.29 122.16 L 185.03 123.62 L 185.77 125.08 L 186.51 126.53 L 187.25 127.97 L 187.99 129.39 L 188.73 130.8 L 189.46 132.19 L 190.2 133.57 L 190.94 134.92 L 191.68 136.25 L 192.42 137.56 L 193.16 138.85 L 193.9 140.11 L 194.63 141.34 L 195.37 142.54 L 196.11 143.71 L 196.85 144.84 L 197.59 145.94 L 198.33 147.01 L 199.07 148.03 L 199.81 149.02 L 200.54 149.96 L 201.28 150.87 L 202.02 151.73 L 202.76 152.54 L 203.5 153.31 L 204.24 154.03 L 204.98 154.7 L 205.71 155.32 L 206.45 155.9 L 207.19 156.42 L 207.93 156.88 L 208.67 157.3 L 209.41 157.66 L 210.15 157.97 L 210.89 158.22 L 211.62 158.41 L 212.36 158.55 L 213.1 158.64 L 213.84 158.66 L 214.58 158.64 L 215.32 158.55 L 216.06 158.41 L 216.79 158.22 L 217.53 157.97 L 218.27 157.66 L 219.01 157.3 L 219.75 156.88 L 220.49 156.42 L 221.23 155.9 L 221.97 155.32 L 222.7 154.7 L 223.44 154.03 L 224.18 153.31 L 224.92 152.54 L 225.66 151.73 L 226.4 150.87 L 227.14 149.96 L 227.87 149.02 L 228.61 148.03 L 229.35 147.01 L 230.09 145.94 L 230.83 144.84 L 231.57 143.71 L 232.31 142.54 L 233.05 141.34 L 233.78 140.11 L 234.52 138.85 L 235.26 137.56 L 236 136.25 L 236.74 134.92 L 237.48 133.57 L 238.22 132.19 L 238.95 130.8 L 239.69 129.39 L 240.43 127.97 L 241.17 126.53 L 241.91 125.08 L 242.65 123.62 L 243.39 122.16 L 244.13 120.68 L 244.86 119.21 L 245.6 117.72 L 246.34 116.24 L 247.08 114.75 L 247.82 113.27 L 248.56 111.78 L 249.3 110.3 L 250.03 108.83 L 250.77 107.35 L 251.51 105.89 L 252.25 104.43 L 252.99 102.98 L 253.73 101.55 L 254.47 100.12 L 255.21 98.7 L 255.94 97.3 L 256.68 95.91 L 257.42 94.53 L 258.16 93.17 L 258.9 91.82 L 259.64 90.49 L 260.38 89.17 L 261.11 87.87 L 261.85 86.59 L 262.59 85.33 L 263.33 84.09 L 264.07 82.86 L 264.81 81.66 L 265.55 80.47 L 266.29 79.3 L 267.02 78.15 L 267.76 77.03 L 268.5 75.92 L 269.24 74.83 L 269.98 73.77 L 270.72 72.72 L 271.46 71.69 L 272.19 70.69 L 272.93 69.7 L 273.67 68.74 L 274.41 67.79 L 275.15 66.87 L 275.89 65.96 L 276.63 65.08 L 277.37 64.21 L 278.1 63.37 L 278.84 62.54 L 279.58 61.74 L 280.32 60.95 L 281.06 60.18 L 281.8 59.43 L 282.54 58.7 L 283.27 57.98 L 284.01 57.29 L 284.75 56.61 L 285.49 55.95 L 286.23 55.3 L 286.97 54.67 L 287.71 54.06 L 288.45 53.47 L 289.18 52.89 L 289.92 52.32 L 290.66 51.77 L 291.4 51.24 L 292.14 50.72 L 292.88 50.21 L 293.62 49.72 L 294.35 49.25 L 295.09 48.78 L 295.83 48.33 L 296.57 47.89 L 297.31 47.47 L 298.05 47.05 L 298.79 46.65 L 299.53 46.26 L 300.26 45.88 L 301 45.52 L 301.74 45.16 L 302.48 44.81 L 303.22 44.48 L 303.96 44.15 L 304.7 43.83 L 305.43 43.53 L 306.17 43.23 L 306.91 42.94 L 307.65 42.66 L 308.39 42.39 L 309.13 42.13 L 309.87 41.87 L 310.61 41.62 L 311.34 41.38 L 312.08 41.15 L 312.82 40.93 L 313.56 40.71 L 314.3 40.5 L 315.04 40.29 L 315.78 40.09 L 316.51 39.9 L 317.25 39.71 L 317.99 39.53 L 318.73 39.36 L 319.47 39.19 L 320.21 39.02 L 320.95 38.87 L 321.69 38.71 L 322.42 38.56 L 323.16 38.42 L 323.9 38.28 L 324.64 38.14 L 325.38 38.01 L 326.12 37.88 L 326.86 37.76 L 327.59 37.64 L 328.33 37.53 L 329.07 37.42 L 329.81 37.31 L 330.55 37.2 L 331.29 37.1 L 332.03 37 L 332.77 36.91 L 333.5 36.82 L 334.24 36.73 L 334.98 36.64 L 335.72 36.56 L 336.46 36.48 L 337.2 36.4 L 337.94 36.32 L 338.67 36.25 L 339.41 36.18 L 340.15 36.11 L 340.89 36.04 L 341.63 35.98 L 342.37 35.92 L 343.11 35.86 L 343.85 35.8 L 344.58 35.74 L 345.32 35.69 L 346.06 35.63 L 346.8 35.58 L 347.54 35.53 L 348.28 35.48 L 349.02 35.44 L 349.75 35.39 L 350.49 35.35 L 351.23 35.31 L 351.97 35.27 L 352.71 35.23 L 353.45 35.19 L 354.19 35.15 L 354.93 35.11 L 355.66 35.08 L 356.4 35.04 L 357.14 35.01 L 357.88 34.98 L 358.62 34.95 L 359.36 34.92 L 360.1 34.89 L 360.83 34.86 L 361.57 34.84 L 362.31 34.81 L 363.05 34.78 L 363.79 34.76 L 364.53 34.74 L 365.27 34.71 L 366.01 34.69 L 366.74 34.67 L 367.48 34.65 L 368.22 34.63 L 368.96 34.61 L 369.7 34.59 L 370.44 34.57 L 371.18 34.55 L 371.91 34.53 L 372.65 34.52 L 373.39 34.5 L 374.13 34.48 L 374.87 34.47 L 375.61 34.45 L 376.35 34.44 L 377.09 34.43 L 377.82 34.41 L 378.56 34.4 L 379.3 34.39 L 380.04 34.37 L 380.78 34.36 L 381.52 34.35 L 382.26 34.34 L 382.99 34.33 L 383.73 34.32 L 384.47 34.31 L 385.21 34.3 L 385.95 34.29 L 386.69 34.28 L 387.43 34.27 L 388.17 34.26 L 388.9 34.25 L 389.64 34.24 L 390.38 34.23 L 391.12 34.23 L 391.86 34.22 L 392.6 34.21 L 393.34 34.2 L 394.07 34.2 L 394.81 34.19 L 395.55 34.18 L 396.29 34.18 L 397.03 34.17 L 397.77 34.16 L 398.51 34.16 L 399.25 34.15 L 399.98 34.15 L 400.72 34.14 L 401.46 34.14 L 402.2 34.13 L 402.94 34.13 L 403.68 34.12 L 404.42 34.12 L 405.15 34.11 L 405.89 34.11 L 406.63 34.1 L 407.37 34.1 L 408.11 34.1 L 408.85 34.09 L 409.59 34.09 L 410.33 34.08 L 411.06 34.08 L 411.8 34.08 L 412.54 34.07 L 413.28 34.07 L 414.02 34.07 L 414.76 34.06 L 415.5 34.06 L 416.23 34.06 L 416.97 34.06 L 417.71 34.05 L 418.45 34.05 L 419.19 34.05 L 419.93 34.05 L 420.67 34.04 L 421.41 34.04 L 422.14 34.04 L 422.88 34.04 L 423.62 34.03 L 424.36 34.03 L 425.1 34.03 L 425.84 34.03 L 426.58 34.02 L 427.31 34.02 L 427.68 34.02 "/>
<path transform="matrix(1,0,0,-1,0,182)" stroke-width="1.12" stroke-linecap="round" stroke-linejoin="round" fill="none" stroke="#569bbd" stroke-opacity=".408" d="M 0 34.4 L .37 34.4 L 1.1 34.41 L 1.84 34.41 L 2.58 34.42 L 3.32 34.43 L 4.06 34.44 L 4.8 34.44 L 5.54 34.45 L 6.27 34.46 L 7.01 34.47 L 7.75 34.48 L 8.49 34.48 L 9.23 34.49 L 9.97 34.5 L 10.71 34.51 L 11.45 34.52 L 12.18 34.53 L 12.92 34.54 L 13.66 34.55 L 14.4 34.56 L 15.14 34.57 L 15.88 34.58 L 16.62 34.59 L 17.35 34.6 L 18.09 34.61 L 18.83 34.62 L 19.57 34.63 L 20.31 34.64 L 21.05 34.66 L 21.79 34.67 L 22.53 34.68 L 23.26 34.69 L 24 34.7 L 24.74 34.72 L 25.48 34.73 L 26.22 34.74 L 26.96 34.76 L 27.7 34.77 L 28.43 34.79 L 29.17 34.8 L 29.91 34.82 L 30.65 34.83 L 31.39 34.85 L 32.13 34.86 L 32.87 34.88 L 33.61 34.9 L 34.34 34.91 L 35.08 34.93 L 35.82 34.95 L 36.56 34.96 L 37.3 34.98 L 38.04 35 L 38.78 35.02 L 39.51 35.04 L 40.25 35.06 L 40.99 35.08 L 41.73 35.1 L 42.47 35.12 L 43.21 35.14 L 43.95 35.17 L 44.69 35.19 L 45.42 35.21 L 46.16 35.23 L 46.9 35.26 L 47.64 35.28 L 48.38 35.31 L 49.12 35.33 L 49.86 35.36 L 50.59 35.39 L 51.33 35.41 L 52.07 35.44 L 52.81 35.47 L 53.55 35.5 L 54.29 35.53 L 55.03 35.56 L 55.77 35.59 L 56.5 35.62 L 57.24 35.66 L 57.98 35.69 L 58.72 35.72 L 59.46 35.76 L 60.2 35.79 L 60.94 35.83 L 61.67 35.87 L 62.41 35.91 L 63.15 35.94 L 63.89 35.98 L 64.63 36.03 L 65.37 36.07 L 66.11 36.11 L 66.85 36.15 L 67.58 36.2 L 68.32 36.24 L 69.06 36.29 L 69.8 36.34 L 70.54 36.39 L 71.28 36.44 L 72.02 36.49 L 72.75 36.54 L 73.49 36.6 L 74.23 36.65 L 74.97 36.71 L 75.71 36.77 L 76.45 36.83 L 77.19 36.89 L 77.93 36.95 L 78.66 37.01 L 79.4 37.08 L 80.14 37.15 L 80.88 37.21 L 81.62 37.28 L 82.36 37.36 L 83.1 37.43 L 83.83 37.51 L 84.57 37.58 L 85.31 37.66 L 86.05 37.74 L 86.79 37.83 L 87.53 37.91 L 88.27 38 L 89.01 38.09 L 89.74 38.18 L 90.48 38.27 L 91.22 38.37 L 91.96 38.47 L 92.7 38.57 L 93.44 38.68 L 94.18 38.78 L 94.91 38.89 L 95.65 39 L 96.39 39.12 L 97.13 39.24 L 97.87 39.36 L 98.61 39.48 L 99.35 39.61 L 100.09 39.74 L 100.82 39.87 L 101.56 40.01 L 102.3 40.15 L 103.04 40.3 L 103.78 40.45 L 104.52 40.6 L 105.26 40.76 L 105.99 40.92 L 106.73 41.08 L 107.47 41.25 L 108.21 41.42 L 108.95 41.6 L 109.69 41.78 L 110.43 41.97 L 111.17 42.16 L 111.9 42.36 L 112.64 42.56 L 113.38 42.77 L 114.12 42.98 L 114.86 43.2 L 115.6 43.43 L 116.34 43.66 L 117.07 43.89 L 117.81 44.14 L 118.55 44.39 L 119.29 44.64 L 120.03 44.91 L 120.77 45.18 L 121.51 45.45 L 122.25 45.74 L 122.98 46.03 L 123.72 46.33 L 124.46 46.64 L 125.2 46.95 L 125.94 47.28 L 126.68 47.61 L 127.42 47.95 L 128.15 48.3 L 128.89 48.66 L 129.63 49.03 L 130.37 49.41 L 131.11 49.8 L 131.85 50.19 L 132.59 50.6 L 133.33 51.02 L 134.06 51.45 L 134.8 51.9 L 135.54 52.35 L 136.28 52.82 L 137.02 53.29 L 137.76 53.78 L 138.5 54.28 L 139.23 54.8 L 139.97 55.33 L 140.71 55.87 L 141.45 56.42 L 142.19 56.99 L 142.93 57.57 L 143.67 58.17 L 144.41 58.78 L 145.14 59.41 L 145.88 60.05 L 146.62 60.71 L 147.36 61.39 L 148.1 62.08 L 148.84 62.78 L 149.58 63.51 L 150.31 64.25 L 151.05 65.01 L 151.79 65.78 L 152.53 66.57 L 153.27 67.38 L 154.01 68.21 L 154.75 69.06 L 155.49 69.93 L 156.22 70.81 L 156.96 71.71 L 157.7 72.64 L 158.44 73.58 L 159.18 74.54 L 159.92 75.52 L 160.66 76.52 L 161.39 77.54 L 162.13 78.58 L 162.87 79.63 L 163.61 80.71 L 164.35 81.81 L 165.09 82.92 L 165.83 84.06 L 166.57 85.21 L 167.3 86.39 L 168.04 87.58 L 168.78 88.79 L 169.52 90.02 L 170.26 91.26 L 171 92.53 L 171.74 93.81 L 172.47 95.1 L 173.21 96.41 L 173.95 97.74 L 174.69 99.08 L 175.43 100.43 L 176.17 101.8 L 176.91 103.18 L 177.65 104.57 L 178.38 105.97 L 179.12 107.38 L 179.86 108.8 L 180.6 110.22 L 181.34 111.65 L 182.08 113.08 L 182.82 114.52 L 183.55 115.96 L 184.29 117.4 L 185.03 118.84 L 185.77 120.27 L 186.51 121.7 L 187.25 123.13 L 187.99 124.55 L 188.73 125.95 L 189.46 127.35 L 190.2 128.73 L 190.94 130.1 L 191.68 131.45 L 192.42 132.78 L 193.16 134.09 L 193.9 135.38 L 194.63 136.65 L 195.37 137.88 L 196.11 139.09 L 196.85 140.27 L 197.59 141.41 L 198.33 142.52 L 199.07 143.6 L 199.81 144.63 L 200.54 145.62 L 201.28 146.58 L 202.02 147.48 L 202.76 148.35 L 203.5 149.16 L 204.24 149.93 L 204.98 150.64 L 205.71 151.31 L 206.45 151.92 L 207.19 152.48 L 207.93 152.98 L 208.67 153.42 L 209.41 153.81 L 210.15 154.14 L 210.89 154.41 L 211.62 154.62 L 212.36 154.77 L 213.1 154.86 L 213.84 154.89 L 214.58 154.86 L 215.32 154.77 L 216.06 154.62 L 216.79 154.41 L 217.53 154.14 L 218.27 153.81 L 219.01 153.42 L 219.75 152.98 L 220.49 152.48 L 221.23 151.92 L 221.97 151.31 L 222.7 150.64 L 223.44 149.93 L 224.18 149.16 L 224.92 148.35 L 225.66 147.48 L 226.4 146.58 L 227.14 145.62 L 227.87 144.63 L 228.61 143.6 L 229.35 142.52 L 230.09 141.41 L 230.83 140.27 L 231.57 139.09 L 232.31 137.88 L 233.05 136.65 L 233.78 135.38 L 234.52 134.09 L 235.26 132.78 L 236 131.45 L 236.74 130.1 L 237.48 128.73 L 238.22 127.35 L 238.95 125.95 L 239.69 124.55 L 240.43 123.13 L 241.17 121.7 L 241.91 120.27 L 242.65 118.84 L 243.39 117.4 L 244.13 115.96 L 244.86 114.52 L 245.6 113.08 L 246.34 111.65 L 247.08 110.22 L 247.82 108.8 L 248.56 107.38 L 249.3 105.97 L 250.03 104.57 L 250.77 103.18 L 251.51 101.8 L 252.25 100.43 L 252.99 99.08 L 253.73 97.74 L 254.47 96.41 L 255.21 95.1 L 255.94 93.81 L 256.68 92.53 L 257.42 91.26 L 258.16 90.02 L 258.9 88.79 L 259.64 87.58 L 260.38 86.39 L 261.11 85.21 L 261.85 84.06 L 262.59 82.92 L 263.33 81.81 L 264.07 80.71 L 264.81 79.63 L 265.55 78.58 L 266.29 77.54 L 267.02 76.52 L 267.76 75.52 L 268.5 74.54 L 269.24 73.58 L 269.98 72.64 L 270.72 71.71 L 271.46 70.81 L 272.19 69.93 L 272.93 69.06 L 273.67 68.21 L 274.41 67.38 L 275.15 66.57 L 275.89 65.78 L 276.63 65.01 L 277.37 64.25 L 278.1 63.51 L 278.84 62.78 L 279.58 62.08 L 280.32 61.39 L 281.06 60.71 L 281.8 60.05 L 282.54 59.41 L 283.27 58.78 L 284.01 58.17 L 284.75 57.57 L 285.49 56.99 L 286.23 56.42 L 286.97 55.87 L 287.71 55.33 L 288.45 54.8 L 289.18 54.28 L 289.92 53.78 L 290.66 53.29 L 291.4 52.82 L 292.14 52.35 L 292.88 51.9 L 293.62 51.45 L 294.35 51.02 L 295.09 50.6 L 295.83 50.19 L 296.57 49.8 L 297.31 49.41 L 298.05 49.03 L 298.79 48.66 L 299.53 48.3 L 300.26 47.95 L 301 47.61 L 301.74 47.28 L 302.48 46.95 L 303.22 46.64 L 303.96 46.33 L 304.7 46.03 L 305.43 45.74 L 306.17 45.45 L 306.91 45.18 L 307.65 44.91 L 308.39 44.64 L 309.13 44.39 L 309.87 44.14 L 310.61 43.89 L 311.34 43.66 L 312.08 43.43 L 312.82 43.2 L 313.56 42.98 L 314.3 42.77 L 315.04 42.56 L 315.78 42.36 L 316.51 42.16 L 317.25 41.97 L 317.99 41.78 L 318.73 41.6 L 319.47 41.42 L 320.21 41.25 L 320.95 41.08 L 321.69 40.92 L 322.42 40.76 L 323.16 40.6 L 323.9 40.45 L 324.64 40.3 L 325.38 40.15 L 326.12 40.01 L 326.86 39.87 L 327.59 39.74 L 328.33 39.61 L 329.07 39.48 L 329.81 39.36 L 330.55 39.24 L 331.29 39.12 L 332.03 39 L 332.77 38.89 L 333.5 38.78 L 334.24 38.68 L 334.98 38.57 L 335.72 38.47 L 336.46 38.37 L 337.2 38.27 L 337.94 38.18 L 338.67 38.09 L 339.41 38 L 340.15 37.91 L 340.89 37.83 L 341.63 37.74 L 342.37 37.66 L 343.11 37.58 L 343.85 37.51 L 344.58 37.43 L 345.32 37.36 L 346.06 37.28 L 346.8 37.21 L 347.54 37.15 L 348.28 37.08 L 349.02 37.01 L 349.75 36.95 L 350.49 36.89 L 351.23 36.83 L 351.97 36.77 L 352.71 36.71 L 353.45 36.65 L 354.19 36.6 L 354.93 36.54 L 355.66 36.49 L 356.4 36.44 L 357.14 36.39 L 357.88 36.34 L 358.62 36.29 L 359.36 36.24 L 360.1 36.2 L 360.83 36.15 L 361.57 36.11 L 362.31 36.07 L 363.05 36.03 L 363.79 35.98 L 364.53 35.94 L 365.27 35.91 L 366.01 35.87 L 366.74 35.83 L 367.48 35.79 L 368.22 35.76 L 368.96 35.72 L 369.7 35.69 L 370.44 35.66 L 371.18 35.62 L 371.91 35.59 L 372.65 35.56 L 373.39 35.53 L 374.13 35.5 L 374.87 35.47 L 375.61 35.44 L 376.35 35.41 L 377.09 35.39 L 377.82 35.36 L 378.56 35.33 L 379.3 35.31 L 380.04 35.28 L 380.78 35.26 L 381.52 35.23 L 382.26 35.21 L 382.99 35.19 L 383.73 35.17 L 384.47 35.14 L 385.21 35.12 L 385.95 35.1 L 386.69 35.08 L 387.43 35.06 L 388.17 35.04 L 388.9 35.02 L 389.64 35 L 390.38 34.98 L 391.12 34.96 L 391.86 34.95 L 392.6 34.93 L 393.34 34.91 L 394.07 34.9 L 394.81 34.88 L 395.55 34.86 L 396.29 34.85 L 397.03 34.83 L 397.77 34.82 L 398.51 34.8 L 399.25 34.79 L 399.98 34.77 L 400.72 34.76 L 401.46 34.74 L 402.2 34.73 L 402.94 34.72 L 403.68 34.7 L 404.42 34.69 L 405.15 34.68 L 405.89 34.67 L 406.63 34.66 L 407.37 34.64 L 408.11 34.63 L 408.85 34.62 L 409.59 34.61 L 410.33 34.6 L 411.06 34.59 L 411.8 34.58 L 412.54 34.57 L 413.28 34.56 L 414.02 34.55 L 414.76 34.54 L 415.5 34.53 L 416.23 34.52 L 416.97 34.51 L 417.71 34.5 L 418.45 34.49 L 419.19 34.48 L 419.93 34.48 L 420.67 34.47 L 421.41 34.46 L 422.14 34.45 L 422.88 34.44 L 423.62 34.44 L 424.36 34.43 L 425.1 34.42 L 425.84 34.41 L 426.58 34.41 L 427.31 34.4 L 427.68 34.4 "/>
<path transform="matrix(1,0,0,-1,0,182)" stroke-width="1.12" stroke-linecap="round" stroke-linejoin="round" fill="none" stroke="#569bbd" stroke-opacity=".298" d="M 0 35.47 L .37 35.48 L 1.1 35.49 L 1.84 35.51 L 2.58 35.52 L 3.32 35.54 L 4.06 35.55 L 4.8 35.57 L 5.54 35.59 L 6.27 35.6 L 7.01 35.62 L 7.75 35.64 L 8.49 35.65 L 9.23 35.67 L 9.97 35.69 L 10.71 35.71 L 11.45 35.73 L 12.18 35.74 L 12.92 35.76 L 13.66 35.78 L 14.4 35.8 L 15.14 35.82 L 15.88 35.84 L 16.62 35.86 L 17.35 35.88 L 18.09 35.9 L 18.83 35.92 L 19.57 35.94 L 20.31 35.96 L 21.05 35.99 L 21.79 36.01 L 22.53 36.03 L 23.26 36.05 L 24 36.08 L 24.74 36.1 L 25.48 36.12 L 26.22 36.15 L 26.96 36.17 L 27.7 36.2 L 28.43 36.22 L 29.17 36.25 L 29.91 36.27 L 30.65 36.3 L 31.39 36.32 L 32.13 36.35 L 32.87 36.38 L 33.61 36.41 L 34.34 36.43 L 35.08 36.46 L 35.82 36.49 L 36.56 36.52 L 37.3 36.55 L 38.04 36.58 L 38.78 36.61 L 39.51 36.64 L 40.25 36.67 L 40.99 36.71 L 41.73 36.74 L 42.47 36.77 L 43.21 36.81 L 43.95 36.84 L 44.69 36.88 L 45.42 36.91 L 46.16 36.95 L 46.9 36.98 L 47.64 37.02 L 48.38 37.06 L 49.12 37.1 L 49.86 37.13 L 50.59 37.17 L 51.33 37.21 L 52.07 37.25 L 52.81 37.3 L 53.55 37.34 L 54.29 37.38 L 55.03 37.42 L 55.77 37.47 L 56.5 37.51 L 57.24 37.56 L 57.98 37.6 L 58.72 37.65 L 59.46 37.7 L 60.2 37.75 L 60.94 37.8 L 61.67 37.85 L 62.41 37.9 L 63.15 37.95 L 63.89 38.01 L 64.63 38.06 L 65.37 38.11 L 66.11 38.17 L 66.85 38.23 L 67.58 38.28 L 68.32 38.34 L 69.06 38.4 L 69.8 38.46 L 70.54 38.53 L 71.28 38.59 L 72.02 38.65 L 72.75 38.72 L 73.49 38.79 L 74.23 38.85 L 74.97 38.92 L 75.71 38.99 L 76.45 39.06 L 77.19 39.14 L 77.93 39.21 L 78.66 39.29 L 79.4 39.36 L 80.14 39.44 L 80.88 39.52 L 81.62 39.6 L 82.36 39.68 L 83.1 39.77 L 83.83 39.85 L 84.57 39.94 L 85.31 40.03 L 86.05 40.12 L 86.79 40.22 L 87.53 40.31 L 88.27 40.41 L 89.01 40.5 L 89.74 40.6 L 90.48 40.71 L 91.22 40.81 L 91.96 40.92 L 92.7 41.02 L 93.44 41.13 L 94.18 41.25 L 94.91 41.36 L 95.65 41.48 L 96.39 41.6 L 97.13 41.72 L 97.87 41.84 L 98.61 41.97 L 99.35 42.1 L 100.09 42.23 L 100.82 42.37 L 101.56 42.5 L 102.3 42.64 L 103.04 42.79 L 103.78 42.93 L 104.52 43.08 L 105.26 43.23 L 105.99 43.39 L 106.73 43.55 L 107.47 43.71 L 108.21 43.88 L 108.95 44.05 L 109.69 44.22 L 110.43 44.4 L 111.17 44.58 L 111.9 44.76 L 112.64 44.95 L 113.38 45.14 L 114.12 45.34 L 114.86 45.54 L 115.6 45.74 L 116.34 45.95 L 117.07 46.17 L 117.81 46.39 L 118.55 46.61 L 119.29 46.84 L 120.03 47.07 L 120.77 47.31 L 121.51 47.56 L 122.25 47.81 L 122.98 48.06 L 123.72 48.33 L 124.46 48.59 L 125.2 48.87 L 125.94 49.15 L 126.68 49.43 L 127.42 49.73 L 128.15 50.03 L 128.89 50.33 L 129.63 50.65 L 130.37 50.97 L 131.11 51.3 L 131.85 51.63 L 132.59 51.98 L 133.33 52.33 L 134.06 52.69 L 134.8 53.06 L 135.54 53.43 L 136.28 53.82 L 137.02 54.22 L 137.76 54.62 L 138.5 55.03 L 139.23 55.46 L 139.97 55.89 L 140.71 56.34 L 141.45 56.79 L 142.19 57.26 L 142.93 57.73 L 143.67 58.22 L 144.41 58.72 L 145.14 59.23 L 145.88 59.75 L 146.62 60.29 L 147.36 60.83 L 148.1 61.4 L 148.84 61.97 L 149.58 62.56 L 150.31 63.16 L 151.05 63.77 L 151.79 64.4 L 152.53 65.05 L 153.27 65.7 L 154.01 66.38 L 154.75 67.07 L 155.49 67.77 L 156.22 68.49 L 156.96 69.23 L 157.7 69.99 L 158.44 70.76 L 159.18 71.55 L 159.92 72.35 L 160.66 73.17 L 161.39 74.01 L 162.13 74.87 L 162.87 75.75 L 163.61 76.65 L 164.35 77.56 L 165.09 78.49 L 165.83 79.45 L 166.57 80.42 L 167.3 81.41 L 168.04 82.42 L 168.78 83.45 L 169.52 84.5 L 170.26 85.56 L 171 86.65 L 171.74 87.76 L 172.47 88.88 L 173.21 90.03 L 173.95 91.19 L 174.69 92.37 L 175.43 93.57 L 176.17 94.78 L 176.91 96.02 L 177.65 97.27 L 178.38 98.53 L 179.12 99.81 L 179.86 101.11 L 180.6 102.42 L 181.34 103.74 L 182.08 105.07 L 182.82 106.42 L 183.55 107.77 L 184.29 109.13 L 185.03 110.51 L 185.77 111.88 L 186.51 113.26 L 187.25 114.65 L 187.99 116.03 L 188.73 117.41 L 189.46 118.8 L 190.2 120.17 L 190.94 121.54 L 191.68 122.91 L 192.42 124.26 L 193.16 125.59 L 193.9 126.92 L 194.63 128.22 L 195.37 129.51 L 196.11 130.77 L 196.85 132.01 L 197.59 133.22 L 198.33 134.4 L 199.07 135.54 L 199.81 136.65 L 200.54 137.73 L 201.28 138.76 L 202.02 139.75 L 202.76 140.69 L 203.5 141.58 L 204.24 142.43 L 204.98 143.22 L 205.71 143.96 L 206.45 144.64 L 207.19 145.26 L 207.93 145.82 L 208.67 146.32 L 209.41 146.75 L 210.15 147.12 L 210.89 147.43 L 211.62 147.67 L 212.36 147.84 L 213.1 147.94 L 213.84 147.97 L 214.58 147.94 L 215.32 147.84 L 216.06 147.67 L 216.79 147.43 L 217.53 147.12 L 218.27 146.75 L 219.01 146.32 L 219.75 145.82 L 220.49 145.26 L 221.23 144.64 L 221.97 143.96 L 222.7 143.22 L 223.44 142.43 L 224.18 141.58 L 224.92 140.69 L 225.66 139.75 L 226.4 138.76 L 227.14 137.73 L 227.87 136.65 L 228.61 135.54 L 229.35 134.4 L 230.09 133.22 L 230.83 132.01 L 231.57 130.77 L 232.31 129.51 L 233.05 128.22 L 233.78 126.92 L 234.52 125.59 L 235.26 124.26 L 236 122.91 L 236.74 121.54 L 237.48 120.17 L 238.22 118.8 L 238.95 117.41 L 239.69 116.03 L 240.43 114.65 L 241.17 113.26 L 241.91 111.88 L 242.65 110.51 L 243.39 109.13 L 244.13 107.77 L 244.86 106.42 L 245.6 105.07 L 246.34 103.74 L 247.08 102.42 L 247.82 101.11 L 248.56 99.81 L 249.3 98.53 L 250.03 97.27 L 250.77 96.02 L 251.51 94.78 L 252.25 93.57 L 252.99 92.37 L 253.73 91.19 L 254.47 90.03 L 255.21 88.88 L 255.94 87.76 L 256.68 86.65 L 257.42 85.56 L 258.16 84.5 L 258.9 83.45 L 259.64 82.42 L 260.38 81.41 L 261.11 80.42 L 261.85 79.45 L 262.59 78.49 L 263.33 77.56 L 264.07 76.65 L 264.81 75.75 L 265.55 74.87 L 266.29 74.01 L 267.02 73.17 L 267.76 72.35 L 268.5 71.55 L 269.24 70.76 L 269.98 69.99 L 270.72 69.23 L 271.46 68.49 L 272.19 67.77 L 272.93 67.07 L 273.67 66.38 L 274.41 65.7 L 275.15 65.05 L 275.89 64.4 L 276.63 63.77 L 277.37 63.16 L 278.1 62.56 L 278.84 61.97 L 279.58 61.4 L 280.32 60.83 L 281.06 60.29 L 281.8 59.75 L 282.54 59.23 L 283.27 58.72 L 284.01 58.22 L 284.75 57.73 L 285.49 57.26 L 286.23 56.79 L 286.97 56.34 L 287.71 55.89 L 288.45 55.46 L 289.18 55.03 L 289.92 54.62 L 290.66 54.22 L 291.4 53.82 L 292.14 53.43 L 292.88 53.06 L 293.62 52.69 L 294.35 52.33 L 295.09 51.98 L 295.83 51.63 L 296.57 51.3 L 297.31 50.97 L 298.05 50.65 L 298.79 50.33 L 299.53 50.03 L 300.26 49.73 L 301 49.43 L 301.74 49.15 L 302.48 48.87 L 303.22 48.59 L 303.96 48.33 L 304.7 48.06 L 305.43 47.81 L 306.17 47.56 L 306.91 47.31 L 307.65 47.07 L 308.39 46.84 L 309.13 46.61 L 309.87 46.39 L 310.61 46.17 L 311.34 45.95 L 312.08 45.74 L 312.82 45.54 L 313.56 45.34 L 314.3 45.14 L 315.04 44.95 L 315.78 44.76 L 316.51 44.58 L 317.25 44.4 L 317.99 44.22 L 318.73 44.05 L 319.47 43.88 L 320.21 43.71 L 320.95 43.55 L 321.69 43.39 L 322.42 43.23 L 323.16 43.08 L 323.9 42.93 L 324.64 42.79 L 325.38 42.64 L 326.12 42.5 L 326.86 42.37 L 327.59 42.23 L 328.33 42.1 L 329.07 41.97 L 329.81 41.84 L 330.55 41.72 L 331.29 41.6 L 332.03 41.48 L 332.77 41.36 L 333.5 41.25 L 334.24 41.13 L 334.98 41.02 L 335.72 40.92 L 336.46 40.81 L 337.2 40.71 L 337.94 40.6 L 338.67 40.5 L 339.41 40.41 L 340.15 40.31 L 340.89 40.22 L 341.63 40.12 L 342.37 40.03 L 343.11 39.94 L 343.85 39.85 L 344.58 39.77 L 345.32 39.68 L 346.06 39.6 L 346.8 39.52 L 347.54 39.44 L 348.28 39.36 L 349.02 39.29 L 349.75 39.21 L 350.49 39.14 L 351.23 39.06 L 351.97 38.99 L 352.71 38.92 L 353.45 38.85 L 354.19 38.79 L 354.93 38.72 L 355.66 38.65 L 356.4 38.59 L 357.14 38.53 L 357.88 38.46 L 358.62 38.4 L 359.36 38.34 L 360.1 38.28 L 360.83 38.23 L 361.57 38.17 L 362.31 38.11 L 363.05 38.06 L 363.79 38.01 L 364.53 37.95 L 365.27 37.9 L 366.01 37.85 L 366.74 37.8 L 367.48 37.75 L 368.22 37.7 L 368.96 37.65 L 369.7 37.6 L 370.44 37.56 L 371.18 37.51 L 371.91 37.47 L 372.65 37.42 L 373.39 37.38 L 374.13 37.34 L 374.87 37.3 L 375.61 37.25 L 376.35 37.21 L 377.09 37.17 L 377.82 37.13 L 378.56 37.1 L 379.3 37.06 L 380.04 37.02 L 380.78 36.98 L 381.52 36.95 L 382.26 36.91 L 382.99 36.88 L 383.73 36.84 L 384.47 36.81 L 385.21 36.77 L 385.95 36.74 L 386.69 36.71 L 387.43 36.67 L 388.17 36.64 L 388.9 36.61 L 389.64 36.58 L 390.38 36.55 L 391.12 36.52 L 391.86 36.49 L 392.6 36.46 L 393.34 36.43 L 394.07 36.41 L 394.81 36.38 L 395.55 36.35 L 396.29 36.32 L 397.03 36.3 L 397.77 36.27 L 398.51 36.25 L 399.25 36.22 L 399.98 36.2 L 400.72 36.17 L 401.46 36.15 L 402.2 36.12 L 402.94 36.1 L 403.68 36.08 L 404.42 36.05 L 405.15 36.03 L 405.89 36.01 L 406.63 35.99 L 407.37 35.96 L 408.11 35.94 L 408.85 35.92 L 409.59 35.9 L 410.33 35.88 L 411.06 35.86 L 411.8 35.84 L 412.54 35.82 L 413.28 35.8 L 414.02 35.78 L 414.76 35.76 L 415.5 35.74 L 416.23 35.73 L 416.97 35.71 L 417.71 35.69 L 418.45 35.67 L 419.19 35.65 L 419.93 35.64 L 420.67 35.62 L 421.41 35.6 L 422.14 35.59 L 422.88 35.57 L 423.62 35.55 L 424.36 35.54 L 425.1 35.52 L 425.84 35.51 L 426.58 35.49 L 427.31 35.48 L 427.68 35.47 "/>
<path transform="matrix(1,0,0,-1,0,182)" stroke-width="1.12" stroke-linecap="round" stroke-linejoin="round" fill="none" stroke="#569bbd" stroke-opacity=".2" d="M 0 36.92 L .37 36.93 L 1.1 36.95 L 1.84 36.97 L 2.58 36.99 L 3.32 37.01 L 4.06 37.03 L 4.8 37.05 L 5.54 37.08 L 6.27 37.1 L 7.01 37.12 L 7.75 37.14 L 8.49 37.16 L 9.23 37.19 L 9.97 37.21 L 10.71 37.23 L 11.45 37.26 L 12.18 37.28 L 12.92 37.3 L 13.66 37.33 L 14.4 37.35 L 15.14 37.38 L 15.88 37.4 L 16.62 37.42 L 17.35 37.45 L 18.09 37.48 L 18.83 37.5 L 19.57 37.53 L 20.31 37.55 L 21.05 37.58 L 21.79 37.61 L 22.53 37.64 L 23.26 37.66 L 24 37.69 L 24.74 37.72 L 25.48 37.75 L 26.22 37.78 L 26.96 37.81 L 27.7 37.84 L 28.43 37.86 L 29.17 37.9 L 29.91 37.93 L 30.65 37.96 L 31.39 37.99 L 32.13 38.02 L 32.87 38.05 L 33.61 38.08 L 34.34 38.12 L 35.08 38.15 L 35.82 38.18 L 36.56 38.22 L 37.3 38.25 L 38.04 38.29 L 38.78 38.32 L 39.51 38.36 L 40.25 38.39 L 40.99 38.43 L 41.73 38.47 L 42.47 38.5 L 43.21 38.54 L 43.95 38.58 L 44.69 38.62 L 45.42 38.66 L 46.16 38.7 L 46.9 38.74 L 47.64 38.78 L 48.38 38.82 L 49.12 38.86 L 49.86 38.9 L 50.59 38.95 L 51.33 38.99 L 52.07 39.03 L 52.81 39.08 L 53.55 39.12 L 54.29 39.17 L 55.03 39.21 L 55.77 39.26 L 56.5 39.31 L 57.24 39.36 L 57.98 39.4 L 58.72 39.45 L 59.46 39.5 L 60.2 39.55 L 60.94 39.61 L 61.67 39.66 L 62.41 39.71 L 63.15 39.76 L 63.89 39.82 L 64.63 39.87 L 65.37 39.93 L 66.11 39.99 L 66.85 40.04 L 67.58 40.1 L 68.32 40.16 L 69.06 40.22 L 69.8 40.28 L 70.54 40.34 L 71.28 40.4 L 72.02 40.47 L 72.75 40.53 L 73.49 40.6 L 74.23 40.66 L 74.97 40.73 L 75.71 40.8 L 76.45 40.87 L 77.19 40.94 L 77.93 41.01 L 78.66 41.08 L 79.4 41.15 L 80.14 41.23 L 80.88 41.3 L 81.62 41.38 L 82.36 41.45 L 83.1 41.53 L 83.83 41.61 L 84.57 41.69 L 85.31 41.78 L 86.05 41.86 L 86.79 41.95 L 87.53 42.03 L 88.27 42.12 L 89.01 42.21 L 89.74 42.3 L 90.48 42.39 L 91.22 42.49 L 91.96 42.58 L 92.7 42.68 L 93.44 42.78 L 94.18 42.88 L 94.91 42.98 L 95.65 43.08 L 96.39 43.19 L 97.13 43.29 L 97.87 43.4 L 98.61 43.51 L 99.35 43.62 L 100.09 43.74 L 100.82 43.85 L 101.56 43.97 L 102.3 44.09 L 103.04 44.21 L 103.78 44.34 L 104.52 44.46 L 105.26 44.59 L 105.99 44.72 L 106.73 44.86 L 107.47 44.99 L 108.21 45.13 L 108.95 45.27 L 109.69 45.41 L 110.43 45.56 L 111.17 45.71 L 111.9 45.86 L 112.64 46.01 L 113.38 46.17 L 114.12 46.33 L 114.86 46.49 L 115.6 46.66 L 116.34 46.83 L 117.07 47 L 117.81 47.18 L 118.55 47.36 L 119.29 47.54 L 120.03 47.72 L 120.77 47.91 L 121.51 48.11 L 122.25 48.3 L 122.98 48.51 L 123.72 48.71 L 124.46 48.92 L 125.2 49.13 L 125.94 49.35 L 126.68 49.57 L 127.42 49.8 L 128.15 50.03 L 128.89 50.27 L 129.63 50.51 L 130.37 50.76 L 131.11 51.01 L 131.85 51.26 L 132.59 51.53 L 133.33 51.79 L 134.06 52.07 L 134.8 52.35 L 135.54 52.63 L 136.28 52.92 L 137.02 53.22 L 137.76 53.53 L 138.5 53.84 L 139.23 54.15 L 139.97 54.48 L 140.71 54.81 L 141.45 55.15 L 142.19 55.5 L 142.93 55.85 L 143.67 56.22 L 144.41 56.59 L 145.14 56.97 L 145.88 57.36 L 146.62 57.75 L 147.36 58.16 L 148.1 58.58 L 148.84 59 L 149.58 59.44 L 150.31 59.88 L 151.05 60.34 L 151.79 60.8 L 152.53 61.28 L 153.27 61.77 L 154.01 62.27 L 154.75 62.78 L 155.49 63.31 L 156.22 63.85 L 156.96 64.4 L 157.7 64.96 L 158.44 65.53 L 159.18 66.12 L 159.92 66.73 L 160.66 67.35 L 161.39 67.98 L 162.13 68.63 L 162.87 69.29 L 163.61 69.97 L 164.35 70.67 L 165.09 71.38 L 165.83 72.11 L 166.57 72.86 L 167.3 73.62 L 168.04 74.4 L 168.78 75.2 L 169.52 76.02 L 170.26 76.86 L 171 77.71 L 171.74 78.59 L 172.47 79.48 L 173.21 80.4 L 173.95 81.33 L 174.69 82.29 L 175.43 83.27 L 176.17 84.26 L 176.91 85.28 L 177.65 86.31 L 178.38 87.37 L 179.12 88.45 L 179.86 89.55 L 180.6 90.67 L 181.34 91.8 L 182.08 92.96 L 182.82 94.14 L 183.55 95.33 L 184.29 96.54 L 185.03 97.77 L 185.77 99.02 L 186.51 100.28 L 187.25 101.56 L 187.99 102.85 L 188.73 104.15 L 189.46 105.46 L 190.2 106.78 L 190.94 108.1 L 191.68 109.43 L 192.42 110.77 L 193.16 112.1 L 193.9 113.43 L 194.63 114.76 L 195.37 116.08 L 196.11 117.38 L 196.85 118.68 L 197.59 119.96 L 198.33 121.21 L 199.07 122.45 L 199.81 123.65 L 200.54 124.83 L 201.28 125.97 L 202.02 127.07 L 202.76 128.13 L 203.5 129.14 L 204.24 130.11 L 204.98 131.02 L 205.71 131.87 L 206.45 132.66 L 207.19 133.39 L 207.93 134.05 L 208.67 134.63 L 209.41 135.15 L 210.15 135.59 L 210.89 135.95 L 211.62 136.24 L 212.36 136.44 L 213.1 136.57 L 213.84 136.61 L 214.58 136.57 L 215.32 136.44 L 216.06 136.24 L 216.79 135.95 L 217.53 135.59 L 218.27 135.15 L 219.01 134.63 L 219.75 134.05 L 220.49 133.39 L 221.23 132.66 L 221.97 131.87 L 222.7 131.02 L 223.44 130.11 L 224.18 129.14 L 224.92 128.13 L 225.66 127.07 L 226.4 125.97 L 227.14 124.83 L 227.87 123.65 L 228.61 122.45 L 229.35 121.21 L 230.09 119.96 L 230.83 118.68 L 231.57 117.38 L 232.31 116.08 L 233.05 114.76 L 233.78 113.43 L 234.52 112.1 L 235.26 110.77 L 236 109.43 L 236.74 108.1 L 237.48 106.78 L 238.22 105.46 L 238.95 104.15 L 239.69 102.85 L 240.43 101.56 L 241.17 100.28 L 241.91 99.02 L 242.65 97.77 L 243.39 96.54 L 244.13 95.33 L 244.86 94.14 L 245.6 92.96 L 246.34 91.8 L 247.08 90.67 L 247.82 89.55 L 248.56 88.45 L 249.3 87.37 L 250.03 86.31 L 250.77 85.28 L 251.51 84.26 L 252.25 83.27 L 252.99 82.29 L 253.73 81.33 L 254.47 80.4 L 255.21 79.48 L 255.94 78.59 L 256.68 77.71 L 257.42 76.86 L 258.16 76.02 L 258.9 75.2 L 259.64 74.4 L 260.38 73.62 L 261.11 72.86 L 261.85 72.11 L 262.59 71.38 L 263.33 70.67 L 264.07 69.97 L 264.81 69.29 L 265.55 68.63 L 266.29 67.98 L 267.02 67.35 L 267.76 66.73 L 268.5 66.12 L 269.24 65.53 L 269.98 64.96 L 270.72 64.4 L 271.46 63.85 L 272.19 63.31 L 272.93 62.78 L 273.67 62.27 L 274.41 61.77 L 275.15 61.28 L 275.89 60.8 L 276.63 60.34 L 277.37 59.88 L 278.1 59.44 L 278.84 59 L 279.58 58.58 L 280.32 58.16 L 281.06 57.75 L 281.8 57.36 L 282.54 56.97 L 283.27 56.59 L 284.01 56.22 L 284.75 55.85 L 285.49 55.5 L 286.23 55.15 L 286.97 54.81 L 287.71 54.48 L 288.45 54.15 L 289.18 53.84 L 289.92 53.53 L 290.66 53.22 L 291.4 52.92 L 292.14 52.63 L 292.88 52.35 L 293.62 52.07 L 294.35 51.79 L 295.09 51.53 L 295.83 51.26 L 296.57 51.01 L 297.31 50.76 L 298.05 50.51 L 298.79 50.27 L 299.53 50.03 L 300.26 49.8 L 301 49.57 L 301.74 49.35 L 302.48 49.13 L 303.22 48.92 L 303.96 48.71 L 304.7 48.51 L 305.43 48.3 L 306.17 48.11 L 306.91 47.91 L 307.65 47.72 L 308.39 47.54 L 309.13 47.36 L 309.87 47.18 L 310.61 47 L 311.34 46.83 L 312.08 46.66 L 312.82 46.49 L 313.56 46.33 L 314.3 46.17 L 315.04 46.01 L 315.78 45.86 L 316.51 45.71 L 317.25 45.56 L 317.99 45.41 L 318.73 45.27 L 319.47 45.13 L 320.21 44.99 L 320.95 44.86 L 321.69 44.72 L 322.42 44.59 L 323.16 44.46 L 323.9 44.34 L 324.64 44.21 L 325.38 44.09 L 326.12 43.97 L 326.86 43.85 L 327.59 43.74 L 328.33 43.62 L 329.07 43.51 L 329.81 43.4 L 330.55 43.29 L 331.29 43.19 L 332.03 43.08 L 332.77 42.98 L 333.5 42.88 L 334.24 42.78 L 334.98 42.68 L 335.72 42.58 L 336.46 42.49 L 337.2 42.39 L 337.94 42.3 L 338.67 42.21 L 339.41 42.12 L 340.15 42.03 L 340.89 41.95 L 341.63 41.86 L 342.37 41.78 L 343.11 41.69 L 343.85 41.61 L 344.58 41.53 L 345.32 41.45 L 346.06 41.38 L 346.8 41.3 L 347.54 41.23 L 348.28 41.15 L 349.02 41.08 L 349.75 41.01 L 350.49 40.94 L 351.23 40.87 L 351.97 40.8 L 352.71 40.73 L 353.45 40.66 L 354.19 40.6 L 354.93 40.53 L 355.66 40.47 L 356.4 40.4 L 357.14 40.34 L 357.88 40.28 L 358.62 40.22 L 359.36 40.16 L 360.1 40.1 L 360.83 40.04 L 361.57 39.99 L 362.31 39.93 L 363.05 39.87 L 363.79 39.82 L 364.53 39.76 L 365.27 39.71 L 366.01 39.66 L 366.74 39.61 L 367.48 39.55 L 368.22 39.5 L 368.96 39.45 L 369.7 39.4 L 370.44 39.36 L 371.18 39.31 L 371.91 39.26 L 372.65 39.21 L 373.39 39.17 L 374.13 39.12 L 374.87 39.08 L 375.61 39.03 L 376.35 38.99 L 377.09 38.95 L 377.82 38.9 L 378.56 38.86 L 379.3 38.82 L 380.04 38.78 L 380.78 38.74 L 381.52 38.7 L 382.26 38.66 L 382.99 38.62 L 383.73 38.58 L 384.47 38.54 L 385.21 38.5 L 385.95 38.47 L 386.69 38.43 L 387.43 38.39 L 388.17 38.36 L 388.9 38.32 L 389.64 38.29 L 390.38 38.25 L 391.12 38.22 L 391.86 38.18 L 392.6 38.15 L 393.34 38.12 L 394.07 38.08 L 394.81 38.05 L 395.55 38.02 L 396.29 37.99 L 397.03 37.96 L 397.77 37.93 L 398.51 37.9 L 399.25 37.86 L 399.98 37.84 L 400.72 37.81 L 401.46 37.78 L 402.2 37.75 L 402.94 37.72 L 403.68 37.69 L 404.42 37.66 L 405.15 37.64 L 405.89 37.61 L 406.63 37.58 L 407.37 37.55 L 408.11 37.53 L 408.85 37.5 L 409.59 37.48 L 410.33 37.45 L 411.06 37.42 L 411.8 37.4 L 412.54 37.38 L 413.28 37.35 L 414.02 37.33 L 414.76 37.3 L 415.5 37.28 L 416.23 37.26 L 416.97 37.23 L 417.71 37.21 L 418.45 37.19 L 419.19 37.16 L 419.93 37.14 L 420.67 37.12 L 421.41 37.1 L 422.14 37.08 L 422.88 37.05 L 423.62 37.03 L 424.36 37.01 L 425.1 36.99 L 425.84 36.97 L 426.58 36.95 L 427.31 36.93 L 427.68 36.92 "/>
<path transform="matrix(1,0,0,-1,0,182)" stroke-width=".75" stroke-linecap="round" stroke-linejoin="round" fill="none" stroke="#000000" d="M 306.17 162.95 L 395.14 162.95 L 395.14 76.549999 L 306.17 76.549999 Z "/>
<path transform="matrix(1,0,0,-1,0,182)" stroke-width="1.12" stroke-linecap="round" stroke-linejoin="round" fill="none" stroke="#569bbd" d="M 316.97 148.55 L 338.57 148.55 "/>
<path transform="matrix(1,0,0,-1,0,182)" stroke-width="1.12" stroke-linecap="round" stroke-linejoin="round" fill="none" stroke="#569bbd" stroke-opacity=".537" d="M 316.97 134.15 L 338.57 134.15 "/>
<path transform="matrix(1,0,0,-1,0,182)" stroke-width="1.12" stroke-linecap="round" stroke-linejoin="round" fill="none" stroke="#569bbd" stroke-opacity=".408" d="M 316.97 119.75 L 338.57 119.75 "/>
<path transform="matrix(1,0,0,-1,0,182)" stroke-width="1.12" stroke-linecap="round" stroke-linejoin="round" fill="none" stroke="#569bbd" stroke-opacity=".298" d="M 316.97 105.35 L 338.57 105.35 "/>
<path transform="matrix(1,0,0,-1,0,182)" stroke-width="1.12" stroke-linecap="round" stroke-linejoin="round" fill="none" stroke="#569bbd" stroke-opacity=".2" d="M 316.97 90.95 L 338.57 90.95 "/>
<text fill="#569bbd" xml:space="preserve" transform="matrix(1 0 -0 1 0 182)" font-size="12" font-family="Helvetica"><tspan y="-144.25" x="349.37 356.042 362.714 367.00999 377.00599 383.67799">normal</tspan></text>
<text fill="#569bbd" fill-opacity=".667" xml:space="preserve" transform="matrix(1 0 -0 1 0 182)" font-size="12" font-family="Helvetica"><tspan y="-129.85" x="349.37 352.706 356.042 359.378 366.05 369.386 372.722 379.72999 383.06599">t, df = 8</tspan></text>
<text fill="#569bbd" fill-opacity=".522" xml:space="preserve" transform="matrix(1 0 -0 1 0 182)" font-size="12" font-family="Helvetica"><tspan y="-115.45" x="349.37 352.706 356.042 359.378 366.05 369.386 372.722 379.72999 383.06599">t, df = 4</tspan></text>
<text fill="#569bbd" fill-opacity=".376" xml:space="preserve" transform="matrix(1 0 -0 1 0 182)" font-size="12" font-family="Helvetica"><tspan y="-101.05" x="349.37 352.706 356.042 359.378 366.05 369.386 372.722 379.72999 383.06599">t, df = 2</tspan></text>
<text fill="#569bbd" fill-opacity=".271" xml:space="preserve" transform="matrix(1 0 -0 1 0 182)" font-size="12" font-family="Helvetica"><tspan y="-86.65" x="349.37 352.706 356.042 359.378 366.05 369.386 372.722 379.72999 383.06599">t, df = 1</tspan></text>
</g>
</g>
</svg>
