<?xml version="1.0" encoding="UTF-8" standalone="no"?>
<!DOCTYPE svg PUBLIC "-//W3C//DTD SVG 1.1//EN" "http://www.w3.org/Graphics/SVG/1.1/DTD/svg11.dtd">
<svg xmlns="http://www.w3.org/2000/svg" xmlns:xlink="http://www.w3.org/1999/xlink" version="1.1" width="360pt" height="165pt" viewBox="0 0 360 165">
<g enable-background="new">
<path transform="matrix(1,0,0,-1,0,165)" stroke-width=".75" stroke-linecap="round" stroke-linejoin="round" fill="none" stroke="#000000" d="M 14.4 28.8 L 345.6 28.8 "/>
<path transform="matrix(1,0,0,-1,0,165)" stroke-width=".75" stroke-linecap="round" stroke-linejoin="round" fill="none" stroke="#000000" d="M 57.33 28.8 L 57.33 24.48 "/>
<path transform="matrix(1,0,0,-1,0,165)" stroke-width=".75" stroke-linecap="round" stroke-linejoin="round" fill="none" stroke="#000000" d="M 118.67 28.8 L 118.67 24.48 "/>
<path transform="matrix(1,0,0,-1,0,165)" stroke-width=".75" stroke-linecap="round" stroke-linejoin="round" fill="none" stroke="#000000" d="M 180 28.8 L 180 24.48 "/>
<path transform="matrix(1,0,0,-1,0,165)" stroke-width=".75" stroke-linecap="round" stroke-linejoin="round" fill="none" stroke="#000000" d="M 241.33 28.8 L 241.33 24.48 "/>
<path transform="matrix(1,0,0,-1,0,165)" stroke-width=".75" stroke-linecap="round" stroke-linejoin="round" fill="none" stroke="#000000" d="M 302.67 28.8 L 302.67 24.48 "/>
<text xml:space="preserve" transform="matrix(1 0 -0 1 0 165)" font-size="12" font-family="Helvetica"><tspan y="-8.64" x="50.49 57.498">&#x2212;4</tspan></text>
<text xml:space="preserve" transform="matrix(1 0 -0 1 0 165)" font-size="12" font-family="Helvetica"><tspan y="-8.64" x="111.83 118.838008">&#x2212;2</tspan></text>
<text xml:space="preserve" transform="matrix(1 0 -0 1 0 165)" font-size="12" font-family="Helvetica"><tspan y="-8.64" x="176.66">0</tspan></text>
<text xml:space="preserve" transform="matrix(1 0 -0 1 0 165)" font-size="12" font-family="Helvetica"><tspan y="-8.64" x="238">2</tspan></text>
<text xml:space="preserve" transform="matrix(1 0 -0 1 0 165)" font-size="12" font-family="Helvetica"><tspan y="-8.64" x="299.33">4</tspan></text>
<clipPath id="cp0">
<path transform="matrix(1,0,0,-1,0,165)" d="M 14.4 28.8 L 345.6 28.8 L 345.6 151.2 L 14.4 151.2 Z "/>
</clipPath>
<g clip-path="url(#cp0)">
<path transform="matrix(1,0,0,-1,0,165)" stroke-width=".75" stroke-linecap="round" stroke-linejoin="round" fill="none" stroke="#000000" d="M 14.4 33.33 L 345.6 33.33 "/>
<path transform="matrix(1,0,0,-1,0,165)" stroke-width="1.88" stroke-linecap="round" stroke-dasharray="0,7.5" stroke-linejoin="round" fill="none" stroke="#f05133" d="M 241.33 132.76 L 258.2 132.76 "/>
<path transform="matrix(1,0,0,-1,0,165)" stroke-width="1.35" stroke-linecap="round" stroke-linejoin="round" fill="none" stroke="#569bbd" d="M 241.33 112.88 L 258.2 112.88 "/>
<text fill="#f05133" xml:space="preserve" transform="matrix(1 0 -0 1 0 165)" font-size="12" font-family="Helvetica"><tspan y="-129.89" x="265.4 274.064 280.736 285.03199 295.02799 301.69999">Normal</tspan></text>
<text fill="#569bbd" xml:space="preserve" transform="matrix(1 0 -0 1 0 165)" font-size="12" font-family="Helvetica"><tspan y="-110.01" x="265.4 268.736 275.744 282.416 285.08 291.08 294.416 298.59199 301.25599 307.688 314.36 317.69599 320.36 327.03199">t&#x2212;distribution</tspan></text>
<path transform="matrix(1,0,0,-1,0,165)" stroke-width="1.88" stroke-linecap="round" stroke-dasharray="0,7.5" stroke-linejoin="round" fill="none" stroke="#f05133" d="M 0 33.33 L .29 33.33 L .6 33.33 L .91 33.33 L 1.21 33.33 L 1.52 33.33 L 1.83 33.33 L 2.13 33.33 L 2.44 33.33 L 2.75 33.33 L 3.05 33.33 L 3.36 33.33 L 3.67 33.33 L 3.97 33.33 L 4.28 33.33 L 4.59 33.33 L 4.89 33.33 L 5.2 33.33 L 5.51 33.33 L 5.81 33.33 L 6.12 33.33 L 6.43 33.33 L 6.73 33.33 L 7.04 33.33 L 7.35 33.33 L 7.65 33.33 L 7.96 33.33 L 8.27 33.33 L 8.57 33.33 L 8.88 33.33 L 9.19 33.33 L 9.49 33.33 L 9.8 33.33 L 10.11 33.33 L 10.41 33.33 L 10.72 33.33 L 11.03 33.33 L 11.33 33.33 L 11.64 33.33 L 11.95 33.33 L 12.25 33.33 L 12.56 33.33 L 12.87 33.33 L 13.17 33.33 L 13.48 33.33 L 13.79 33.33 L 14.09 33.33 L 14.4 33.33 L 14.71 33.33 L 15.01 33.33 L 15.32 33.33 L 15.63 33.33 L 15.93 33.33 L 16.24 33.33 L 16.55 33.33 L 16.85 33.33 L 17.16 33.33 L 17.47 33.33 L 17.77 33.33 L 18.08 33.33 L 18.39 33.33 L 18.69 33.33 L 19 33.33 L 19.31 33.33 L 19.61 33.33 L 19.92 33.33 L 20.23 33.33 L 20.53 33.33 L 20.84 33.33 L 21.15 33.33 L 21.45 33.33 L 21.76 33.33 L 22.07 33.33 L 22.37 33.33 L 22.68 33.33 L 22.99 33.33 L 23.29 33.33 L 23.6 33.33 L 23.91 33.33 L 24.21 33.33 L 24.52 33.33 L 24.83 33.33 L 25.13 33.33 L 25.44 33.33 L 25.75 33.33 L 26.05 33.33 L 26.36 33.33 L 26.67 33.33 L 26.97 33.33 L 27.28 33.33 L 27.59 33.33 L 27.89 33.33 L 28.2 33.33 L 28.51 33.33 L 28.81 33.33 L 29.12 33.33 L 29.43 33.33 L 29.73 33.33 L 30.04 33.33 L 30.35 33.33 L 30.65 33.33 L 30.96 33.33 L 31.27 33.33 L 31.57 33.33 L 31.88 33.33 L 32.19 33.33 L 32.49 33.33 L 32.8 33.33 L 33.11 33.33 L 33.41 33.33 L 33.72 33.33 L 34.03 33.33 L 34.33 33.33 L 34.64 33.33 L 34.95 33.33 L 35.25 33.33 L 35.56 33.34 L 35.87 33.34 L 36.17 33.34 L 36.48 33.34 L 36.79 33.34 L 37.09 33.34 L 37.4 33.34 L 37.71 33.34 L 38.01 33.34 L 38.32 33.34 L 38.63 33.34 L 38.93 33.34 L 39.24 33.34 L 39.55 33.34 L 39.85 33.34 L 40.16 33.34 L 40.47 33.34 L 40.77 33.34 L 41.08 33.34 L 41.39 33.34 L 41.69 33.34 L 42 33.34 L 42.31 33.34 L 42.61 33.34 L 42.92 33.34 L 43.23 33.34 L 43.53 33.34 L 43.84 33.34 L 44.15 33.34 L 44.45 33.34 L 44.76 33.34 L 45.07 33.34 L 45.37 33.34 L 45.68 33.34 L 45.99 33.34 L 46.29 33.34 L 46.6 33.34 L 46.91 33.34 L 47.21 33.34 L 47.52 33.34 L 47.83 33.34 L 48.13 33.34 L 48.44 33.34 L 48.75 33.35 L 49.05 33.35 L 49.36 33.35 L 49.67 33.35 L 49.97 33.35 L 50.28 33.35 L 50.59 33.35 L 50.89 33.35 L 51.2 33.35 L 51.51 33.35 L 51.81 33.35 L 52.12 33.35 L 52.43 33.35 L 52.73 33.35 L 53.04 33.35 L 53.35 33.36 L 53.65 33.36 L 53.96 33.36 L 54.27 33.36 L 54.57 33.36 L 54.88 33.36 L 55.19 33.36 L 55.49 33.36 L 55.8 33.36 L 56.11 33.37 L 56.41 33.37 L 56.72 33.37 L 57.03 33.37 L 57.33 33.37 L 57.64 33.37 L 57.95 33.37 L 58.25 33.38 L 58.56 33.38 L 58.87 33.38 L 59.17 33.38 L 59.48 33.38 L 59.79 33.39 L 60.09 33.39 L 60.4 33.39 L 60.71 33.39 L 61.01 33.39 L 61.32 33.4 L 61.63 33.4 L 61.93 33.4 L 62.24 33.4 L 62.55 33.41 L 62.85 33.41 L 63.16 33.41 L 63.47 33.42 L 63.77 33.42 L 64.08 33.42 L 64.39 33.43 L 64.69 33.43 L 65 33.43 L 65.31 33.44 L 65.61 33.44 L 65.92 33.45 L 66.23 33.45 L 66.53 33.45 L 66.84 33.46 L 67.15 33.46 L 67.45 33.47 L 67.76 33.47 L 68.07 33.48 L 68.37 33.48 L 68.68 33.49 L 68.99 33.5 L 69.29 33.5 L 69.6 33.51 L 69.91 33.51 L 70.21 33.52 L 70.52 33.53 L 70.83 33.53 L 71.13 33.54 L 71.44 33.55 L 71.75 33.56 L 72.05 33.56 L 72.36 33.57 L 72.67 33.58 L 72.97 33.59 L 73.28 33.6 L 73.59 33.61 L 73.89 33.62 L 74.2 33.63 L 74.51 33.64 L 74.81 33.65 L 75.12 33.66 L 75.43 33.67 L 75.73 33.68 L 76.04 33.7 L 76.35 33.71 L 76.65 33.72 L 76.96 33.73 L 77.27 33.75 L 77.57 33.76 L 77.88 33.78 L 78.19 33.79 L 78.49 33.81 L 78.8 33.82 L 79.11 33.84 L 79.41 33.86 L 79.72 33.87 L 80.03 33.89 L 80.33 33.91 L 80.64 33.93 L 80.95 33.95 L 81.25 33.97 L 81.56 33.99 L 81.87 34.01 L 82.17 34.03 L 82.48 34.06 L 82.79 34.08 L 83.09 34.1 L 83.4 34.13 L 83.71 34.15 L 84.01 34.18 L 84.32 34.21 L 84.63 34.23 L 84.93 34.26 L 85.24 34.29 L 85.55 34.32 L 85.85 34.35 L 86.16 34.38 L 86.47 34.42 L 86.77 34.45 L 87.08 34.48 L 87.39 34.52 L 87.69 34.56 L 88 34.59 L 88.31 34.63 L 88.61 34.67 L 88.92 34.71 L 89.23 34.75 L 89.53 34.79 L 89.84 34.84 L 90.15 34.88 L 90.45 34.93 L 90.76 34.98 L 91.07 35.02 L 91.37 35.07 L 91.68 35.12 L 91.99 35.18 L 92.29 35.23 L 92.6 35.29 L 92.91 35.34 L 93.21 35.4 L 93.52 35.46 L 93.83 35.52 L 94.13 35.58 L 94.44 35.65 L 94.75 35.71 L 95.05 35.78 L 95.36 35.85 L 95.67 35.92 L 95.97 35.99 L 96.28 36.06 L 96.59 36.14 L 96.89 36.21 L 97.2 36.29 L 97.51 36.37 L 97.81 36.46 L 98.12 36.54 L 98.43 36.63 L 98.73 36.72 L 99.04 36.81 L 99.35 36.9 L 99.65 37 L 99.96 37.09 L 100.27 37.19 L 100.57 37.29 L 100.88 37.4 L 101.19 37.5 L 101.49 37.61 L 101.8 37.72 L 102.11 37.84 L 102.41 37.95 L 102.72 38.07 L 103.03 38.19 L 103.33 38.31 L 103.64 38.44 L 103.95 38.57 L 104.25 38.7 L 104.56 38.83 L 104.87 38.97 L 105.17 39.11 L 105.48 39.25 L 105.79 39.4 L 106.09 39.54 L 106.4 39.7 L 106.71 39.85 L 107.01 40.01 L 107.32 40.17 L 107.63 40.33 L 107.93 40.5 L 108.24 40.67 L 108.55 40.84 L 108.85 41.02 L 109.16 41.2 L 109.47 41.38 L 109.77 41.57 L 110.08 41.76 L 110.39 41.95 L 110.69 42.15 L 111 42.35 L 111.31 42.55 L 111.61 42.76 L 111.92 42.98 L 112.23 43.19 L 112.53 43.41 L 112.84 43.63 L 113.15 43.86 L 113.45 44.09 L 113.76 44.33 L 114.07 44.57 L 114.37 44.81 L 114.68 45.06 L 114.99 45.31 L 115.29 45.57 L 115.6 45.83 L 115.91 46.09 L 116.21 46.36 L 116.52 46.63 L 116.83 46.91 L 117.13 47.19 L 117.44 47.48 L 117.75 47.77 L 118.05 48.07 L 118.36 48.37 L 118.67 48.67 L 118.97 48.98 L 119.28 49.29 L 119.59 49.61 L 119.89 49.94 L 120.2 50.26 L 120.51 50.6 L 120.81 50.93 L 121.12 51.28 L 121.43 51.62 L 121.73 51.97 L 122.04 52.33 L 122.35 52.69 L 122.65 53.06 L 122.96 53.43 L 123.27 53.81 L 123.57 54.19 L 123.88 54.57 L 124.19 54.96 L 124.49 55.36 L 124.8 55.76 L 125.11 56.17 L 125.41 56.58 L 125.72 57 L 126.03 57.42 L 126.33 57.84 L 126.64 58.27 L 126.95 58.71 L 127.25 59.15 L 127.56 59.6 L 127.87 60.05 L 128.17 60.51 L 128.48 60.97 L 128.79 61.44 L 129.09 61.91 L 129.4 62.39 L 129.71 62.87 L 130.01 63.35 L 130.32 63.85 L 130.63 64.34 L 130.93 64.84 L 131.24 65.35 L 131.55 65.86 L 131.85 66.38 L 132.16 66.9 L 132.47 67.43 L 132.77 67.96 L 133.08 68.49 L 133.39 69.03 L 133.69 69.58 L 134 70.13 L 134.31 70.68 L 134.61 71.24 L 134.92 71.8 L 135.23 72.37 L 135.53 72.94 L 135.84 73.52 L 136.15 74.1 L 136.45 74.69 L 136.76 75.28 L 137.07 75.87 L 137.37 76.47 L 137.68 77.07 L 137.99 77.67 L 138.29 78.28 L 138.6 78.9 L 138.91 79.51 L 139.21 80.13 L 139.52 80.76 L 139.83 81.39 L 140.13 82.02 L 140.44 82.65 L 140.75 83.29 L 141.05 83.93 L 141.36 84.57 L 141.67 85.22 L 141.97 85.87 L 142.28 86.52 L 142.59 87.18 L 142.89 87.84 L 143.2 88.5 L 143.51 89.16 L 143.81 89.83 L 144.12 90.49 L 144.43 91.16 L 144.73 91.84 L 145.04 92.51 L 145.35 93.19 L 145.65 93.86 L 145.96 94.54 L 146.27 95.22 L 146.57 95.9 L 146.88 96.59 L 147.19 97.27 L 147.49 97.95 L 147.8 98.64 L 148.11 99.33 L 148.41 100.01 L 148.72 100.7 L 149.03 101.39 L 149.33 102.07 L 149.64 102.76 L 149.95 103.45 L 150.25 104.14 L 150.56 104.82 L 150.87 105.51 L 151.17 106.19 L 151.48 106.88 L 151.79 107.56 L 152.09 108.24 L 152.4 108.92 L 152.71 109.6 L 153.01 110.28 L 153.32 110.96 L 153.63 111.63 L 153.93 112.3 L 154.24 112.97 L 154.55 113.64 L 154.85 114.31 L 155.16 114.97 L 155.47 115.63 L 155.77 116.29 L 156.08 116.94 L 156.39 117.59 L 156.69 118.24 L 157 118.88 L 157.31 119.52 L 157.61 120.16 L 157.92 120.79 L 158.23 121.42 L 158.53 122.04 L 158.84 122.66 L 159.15 123.27 L 159.45 123.88 L 159.76 124.49 L 160.07 125.08 L 160.37 125.68 L 160.68 126.27 L 160.99 126.85 L 161.29 127.43 L 161.6 128 L 161.91 128.56 L 162.21 129.12 L 162.52 129.67 L 162.83 130.22 L 163.13 130.76 L 163.44 131.29 L 163.75 131.82 L 164.05 132.33 L 164.36 132.85 L 164.67 133.35 L 164.97 133.85 L 165.28 134.33 L 165.59 134.82 L 165.89 135.29 L 166.2 135.75 L 166.51 136.21 L 166.81 136.66 L 167.12 137.1 L 167.43 137.53 L 167.73 137.95 L 168.04 138.37 L 168.35 138.77 L 168.65 139.17 L 168.96 139.56 L 169.27 139.93 L 169.57 140.3 L 169.88 140.66 L 170.19 141.01 L 170.49 141.35 L 170.8 141.68 L 171.11 142 L 171.41 142.31 L 171.72 142.61 L 172.03 142.9 L 172.33 143.18 L 172.64 143.45 L 172.95 143.71 L 173.25 143.96 L 173.56 144.2 L 173.87 144.42 L 174.17 144.64 L 174.48 144.85 L 174.79 145.04 L 175.09 145.23 L 175.4 145.4 L 175.71 145.56 L 176.01 145.71 L 176.32 145.85 L 176.63 145.98 L 176.93 146.1 L 177.24 146.21 L 177.55 146.3 L 177.85 146.39 L 178.16 146.46 L 178.47 146.53 L 178.77 146.58 L 179.08 146.62 L 179.39 146.64 L 179.69 146.66 L 180 146.67 L 180.31 146.66 L 180.61 146.64 L 180.92 146.62 L 181.23 146.58 L 181.53 146.53 L 181.84 146.46 L 182.15 146.39 L 182.45 146.3 L 182.76 146.21 L 183.07 146.1 L 183.37 145.98 L 183.68 145.85 L 183.99 145.71 L 184.29 145.56 L 184.6 145.4 L 184.91 145.23 L 185.21 145.04 L 185.52 144.85 L 185.83 144.64 L 186.13 144.42 L 186.44 144.2 L 186.75 143.96 L 187.05 143.71 L 187.36 143.45 L 187.67 143.18 L 187.97 142.9 L 188.28 142.61 L 188.59 142.31 L 188.89 142 L 189.2 141.68 L 189.51 141.35 L 189.81 141.01 L 190.12 140.66 L 190.43 140.3 L 190.73 139.93 L 191.04 139.56 L 191.35 139.17 L 191.65 138.77 L 191.96 138.37 L 192.27 137.95 L 192.57 137.53 L 192.88 137.1 L 193.19 136.66 L 193.49 136.21 L 193.8 135.75 L 194.11 135.29 L 194.41 134.82 L 194.72 134.33 L 195.03 133.85 L 195.33 133.35 L 195.64 132.85 L 195.95 132.33 L 196.25 131.82 L 196.56 131.29 L 196.87 130.76 L 197.17 130.22 L 197.48 129.67 L 197.79 129.12 L 198.09 128.56 L 198.4 128 L 198.71 127.43 L 199.01 126.85 L 199.32 126.27 L 199.63 125.68 L 199.93 125.08 L 200.24 124.49 L 200.55 123.88 L 200.85 123.27 L 201.16 122.66 L 201.47 122.04 L 201.77 121.42 L 202.08 120.79 L 202.39 120.16 L 202.69 119.52 L 203 118.88 L 203.31 118.24 L 203.61 117.59 L 203.92 116.94 L 204.23 116.29 L 204.53 115.63 L 204.84 114.97 L 205.15 114.31 L 205.45 113.64 L 205.76 112.97 L 206.07 112.3 L 206.37 111.63 L 206.68 110.96 L 206.99 110.28 L 207.29 109.6 L 207.6 108.92 L 207.91 108.24 L 208.21 107.56 L 208.52 106.88 L 208.83 106.19 L 209.13 105.51 L 209.44 104.82 L 209.75 104.14 L 210.05 103.45 L 210.36 102.76 L 210.67 102.07 L 210.97 101.39 L 211.28 100.7 L 211.59 100.01 L 211.89 99.33 L 212.2 98.64 L 212.51 97.95 L 212.81 97.27 L 213.12 96.59 L 213.43 95.9 L 213.73 95.22 L 214.04 94.54 L 214.35 93.86 L 214.65 93.19 L 214.96 92.51 L 215.27 91.84 L 215.57 91.16 L 215.88 90.49 L 216.19 89.83 L 216.49 89.16 L 216.8 88.5 L 217.11 87.84 L 217.41 87.18 L 217.72 86.52 L 218.03 85.87 L 218.33 85.22 L 218.64 84.57 L 218.95 83.93 L 219.25 83.29 L 219.56 82.65 L 219.87 82.02 L 220.17 81.39 L 220.48 80.76 L 220.79 80.13 L 221.09 79.51 L 221.4 78.9 L 221.71 78.28 L 222.01 77.67 L 222.32 77.07 L 222.63 76.47 L 222.93 75.87 L 223.24 75.28 L 223.55 74.69 L 223.85 74.1 L 224.16 73.52 L 224.47 72.94 L 224.77 72.37 L 225.08 71.8 L 225.39 71.24 L 225.69 70.68 L 226 70.13 L 226.31 69.58 L 226.61 69.03 L 226.92 68.49 L 227.23 67.96 L 227.53 67.43 L 227.84 66.9 L 228.15 66.38 L 228.45 65.86 L 228.76 65.35 L 229.07 64.84 L 229.37 64.34 L 229.68 63.85 L 229.99 63.35 L 230.29 62.87 L 230.6 62.39 L 230.91 61.91 L 231.21 61.44 L 231.52 60.97 L 231.83 60.51 L 232.13 60.05 L 232.44 59.6 L 232.75 59.15 L 233.05 58.71 L 233.36 58.27 L 233.67 57.84 L 233.97 57.42 L 234.28 57 L 234.59 56.58 L 234.89 56.17 L 235.2 55.76 L 235.51 55.36 L 235.81 54.96 L 236.12 54.57 L 236.43 54.19 L 236.73 53.81 L 237.04 53.43 L 237.35 53.06 L 237.65 52.69 L 237.96 52.33 L 238.27 51.97 L 238.57 51.62 L 238.88 51.28 L 239.19 50.93 L 239.49 50.6 L 239.8 50.26 L 240.11 49.94 L 240.41 49.61 L 240.72 49.29 L 241.03 48.98 L 241.33 48.67 L 241.64 48.37 L 241.95 48.07 L 242.25 47.77 L 242.56 47.48 L 242.87 47.19 L 243.17 46.91 L 243.48 46.63 L 243.79 46.36 L 244.09 46.09 L 244.4 45.83 L 244.71 45.57 L 245.01 45.31 L 245.32 45.06 L 245.63 44.81 L 245.93 44.57 L 246.24 44.33 L 246.55 44.09 L 246.85 43.86 L 247.16 43.63 L 247.47 43.41 L 247.77 43.19 L 248.08 42.98 L 248.39 42.76 L 248.69 42.55 L 249 42.35 L 249.31 42.15 L 249.61 41.95 L 249.92 41.76 L 250.23 41.57 L 250.53 41.38 L 250.84 41.2 L 251.15 41.02 L 251.45 40.84 L 251.76 40.67 L 252.07 40.5 L 252.37 40.33 L 252.68 40.17 L 252.99 40.01 L 253.29 39.85 L 253.6 39.7 L 253.91 39.54 L 254.21 39.4 L 254.52 39.25 L 254.83 39.11 L 255.13 38.97 L 255.44 38.83 L 255.75 38.7 L 256.05 38.57 L 256.36 38.44 L 256.67 38.31 L 256.97 38.19 L 257.28 38.07 L 257.59 37.95 L 257.89 37.84 L 258.2 37.72 L 258.51 37.61 L 258.81 37.5 L 259.12 37.4 L 259.43 37.29 L 259.73 37.19 L 260.04 37.09 L 260.35 37 L 260.65 36.9 L 260.96 36.81 L 261.27 36.72 L 261.57 36.63 L 261.88 36.54 L 262.19 36.46 L 262.49 36.37 L 262.8 36.29 L 263.11 36.21 L 263.41 36.14 L 263.72 36.06 L 264.03 35.99 L 264.33 35.92 L 264.64 35.85 L 264.95 35.78 L 265.25 35.71 L 265.56 35.65 L 265.87 35.58 L 266.17 35.52 L 266.48 35.46 L 266.79 35.4 L 267.09 35.34 L 267.4 35.29 L 267.71 35.23 L 268.01 35.18 L 268.32 35.12 L 268.63 35.07 L 268.93 35.02 L 269.24 34.98 L 269.55 34.93 L 269.85 34.88 L 270.16 34.84 L 270.47 34.79 L 270.77 34.75 L 271.08 34.71 L 271.39 34.67 L 271.69 34.63 L 272 34.59 L 272.31 34.56 L 272.61 34.52 L 272.92 34.48 L 273.23 34.45 L 273.53 34.42 L 273.84 34.38 L 274.15 34.35 L 274.45 34.32 L 274.76 34.29 L 275.07 34.26 L 275.37 34.23 L 275.68 34.21 L 275.99 34.18 L 276.29 34.15 L 276.6 34.13 L 276.91 34.1 L 277.21 34.08 L 277.52 34.06 L 277.83 34.03 L 278.13 34.01 L 278.44 33.99 L 278.75 33.97 L 279.05 33.95 L 279.36 33.93 L 279.67 33.91 L 279.97 33.89 L 280.28 33.87 L 280.59 33.86 L 280.89 33.84 L 281.2 33.82 L 281.51 33.81 L 281.81 33.79 L 282.12 33.78 L 282.43 33.76 L 282.73 33.75 L 283.04 33.73 L 283.35 33.72 L 283.65 33.71 L 283.96 33.7 L 284.27 33.68 L 284.57 33.67 L 284.88 33.66 L 285.19 33.65 L 285.49 33.64 L 285.8 33.63 L 286.11 33.62 L 286.41 33.61 L 286.72 33.6 L 287.03 33.59 L 287.33 33.58 L 287.64 33.57 L 287.95 33.56 L 288.25 33.56 L 288.56 33.55 L 288.87 33.54 L 289.17 33.53 L 289.48 33.53 L 289.79 33.52 L 290.09 33.51 L 290.4 33.51 L 290.71 33.5 L 291.01 33.5 L 291.32 33.49 L 291.63 33.48 L 291.93 33.48 L 292.24 33.47 L 292.55 33.47 L 292.85 33.46 L 293.16 33.46 L 293.47 33.45 L 293.77 33.45 L 294.08 33.45 L 294.39 33.44 L 294.69 33.44 L 295 33.43 L 295.31 33.43 L 295.61 33.43 L 295.92 33.42 L 296.23 33.42 L 296.53 33.42 L 296.84 33.41 L 297.15 33.41 L 297.45 33.41 L 297.76 33.4 L 298.07 33.4 L 298.37 33.4 L 298.68 33.4 L 298.99 33.39 L 299.29 33.39 L 299.6 33.39 L 299.91 33.39 L 300.21 33.39 L 300.52 33.38 L 300.83 33.38 L 301.13 33.38 L 301.44 33.38 L 301.75 33.38 L 302.05 33.37 L 302.36 33.37 L 302.67 33.37 L 302.97 33.37 L 303.28 33.37 L 303.59 33.37 L 303.89 33.37 L 304.2 33.36 L 304.51 33.36 L 304.81 33.36 L 305.12 33.36 L 305.43 33.36 L 305.73 33.36 L 306.04 33.36 L 306.35 33.36 L 306.65 33.36 L 306.96 33.35 L 307.27 33.35 L 307.57 33.35 L 307.88 33.35 L 308.19 33.35 L 308.49 33.35 L 308.8 33.35 L 309.11 33.35 L 309.41 33.35 L 309.72 33.35 L 310.03 33.35 L 310.33 33.35 L 310.64 33.35 L 310.95 33.35 L 311.25 33.35 L 311.56 33.34 L 311.87 33.34 L 312.17 33.34 L 312.48 33.34 L 312.79 33.34 L 313.09 33.34 L 313.4 33.34 L 313.71 33.34 L 314.01 33.34 L 314.32 33.34 L 314.63 33.34 L 314.93 33.34 L 315.24 33.34 L 315.55 33.34 L 315.85 33.34 L 316.16 33.34 L 316.47 33.34 L 316.77 33.34 L 317.08 33.34 L 317.39 33.34 L 317.69 33.34 L 318 33.34 L 318.31 33.34 L 318.61 33.34 L 318.92 33.34 L 319.23 33.34 L 319.53 33.34 L 319.84 33.34 L 320.15 33.34 L 320.45 33.34 L 320.76 33.34 L 321.07 33.34 L 321.37 33.34 L 321.68 33.34 L 321.99 33.34 L 322.29 33.34 L 322.6 33.34 L 322.91 33.34 L 323.21 33.34 L 323.52 33.34 L 323.83 33.34 L 324.13 33.34 L 324.44 33.34 L 324.75 33.33 L 325.05 33.33 L 325.36 33.33 L 325.67 33.33 L 325.97 33.33 L 326.28 33.33 L 326.59 33.33 L 326.89 33.33 L 327.2 33.33 L 327.51 33.33 L 327.81 33.33 L 328.12 33.33 L 328.43 33.33 L 328.73 33.33 L 329.04 33.33 L 329.35 33.33 L 329.65 33.33 L 329.96 33.33 L 330.27 33.33 L 330.57 33.33 L 330.88 33.33 L 331.19 33.33 L 331.49 33.33 L 331.8 33.33 L 332.11 33.33 L 332.41 33.33 L 332.72 33.33 L 333.03 33.33 L 333.33 33.33 L 333.64 33.33 L 333.95 33.33 L 334.25 33.33 L 334.56 33.33 L 334.87 33.33 L 335.17 33.33 L 335.48 33.33 L 335.79 33.33 L 336.09 33.33 L 336.4 33.33 L 336.71 33.33 L 337.01 33.33 L 337.32 33.33 L 337.63 33.33 L 337.93 33.33 L 338.24 33.33 L 338.55 33.33 L 338.85 33.33 L 339.16 33.33 L 339.47 33.33 L 339.77 33.33 L 340.08 33.33 L 340.39 33.33 L 340.69 33.33 L 341 33.33 L 341.31 33.33 L 341.61 33.33 L 341.92 33.33 L 342.23 33.33 L 342.53 33.33 L 342.84 33.33 L 343.15 33.33 L 343.45 33.33 L 343.76 33.33 L 344.07 33.33 L 344.37 33.33 L 344.68 33.33 L 344.99 33.33 L 345.29 33.33 L 345.6 33.33 L 345.91 33.33 L 346.21 33.33 L 346.52 33.33 L 346.83 33.33 L 347.13 33.33 L 347.44 33.33 L 347.75 33.33 L 348.05 33.33 L 348.36 33.33 L 348.67 33.33 L 348.97 33.33 L 349.28 33.33 L 349.59 33.33 L 349.89 33.33 L 350.2 33.33 L 350.51 33.33 L 350.81 33.33 L 351.12 33.33 L 351.43 33.33 L 351.73 33.33 L 352.04 33.33 L 352.35 33.33 L 352.65 33.33 L 352.96 33.33 L 353.27 33.33 L 353.57 33.33 L 353.88 33.33 L 354.19 33.33 L 354.49 33.33 L 354.8 33.33 L 355.11 33.33 L 355.41 33.33 L 355.72 33.33 L 356.03 33.33 L 356.33 33.33 L 356.64 33.33 L 356.95 33.33 L 357.25 33.33 L 357.56 33.33 L 357.87 33.33 L 358.17 33.33 L 358.48 33.33 L 358.79 33.33 L 359.09 33.33 L 359.4 33.33 L 359.71 33.33 L 360 33.33 "/>
<path transform="matrix(1,0,0,-1,0,165)" stroke-width="1.35" stroke-linecap="round" stroke-linejoin="round" fill="none" stroke="#569bbd" d="M 0 34.62 L .29 34.63 L .6 34.64 L .91 34.64 L 1.21 34.65 L 1.52 34.66 L 1.83 34.66 L 2.13 34.67 L 2.44 34.68 L 2.75 34.68 L 3.05 34.69 L 3.36 34.69 L 3.67 34.7 L 3.97 34.71 L 4.28 34.72 L 4.59 34.72 L 4.89 34.73 L 5.2 34.74 L 5.51 34.74 L 5.81 34.75 L 6.12 34.76 L 6.43 34.76 L 6.73 34.77 L 7.04 34.78 L 7.35 34.79 L 7.65 34.79 L 7.96 34.8 L 8.27 34.81 L 8.57 34.82 L 8.88 34.82 L 9.19 34.83 L 9.49 34.84 L 9.8 34.85 L 10.11 34.85 L 10.41 34.86 L 10.72 34.87 L 11.03 34.88 L 11.33 34.88 L 11.64 34.89 L 11.95 34.9 L 12.25 34.91 L 12.56 34.92 L 12.87 34.92 L 13.17 34.93 L 13.48 34.94 L 13.79 34.95 L 14.09 34.96 L 14.4 34.97 L 14.71 34.98 L 15.01 34.98 L 15.32 34.99 L 15.63 35 L 15.93 35.01 L 16.24 35.02 L 16.55 35.03 L 16.85 35.04 L 17.16 35.05 L 17.47 35.05 L 17.77 35.06 L 18.08 35.07 L 18.39 35.08 L 18.69 35.09 L 19 35.1 L 19.31 35.11 L 19.61 35.12 L 19.92 35.13 L 20.23 35.14 L 20.53 35.15 L 20.84 35.16 L 21.15 35.17 L 21.45 35.18 L 21.76 35.19 L 22.07 35.2 L 22.37 35.21 L 22.68 35.22 L 22.99 35.23 L 23.29 35.24 L 23.6 35.25 L 23.91 35.26 L 24.21 35.27 L 24.52 35.28 L 24.83 35.29 L 25.13 35.3 L 25.44 35.31 L 25.75 35.32 L 26.05 35.34 L 26.36 35.35 L 26.67 35.36 L 26.97 35.37 L 27.28 35.38 L 27.59 35.39 L 27.89 35.4 L 28.2 35.42 L 28.51 35.43 L 28.81 35.44 L 29.12 35.45 L 29.43 35.46 L 29.73 35.47 L 30.04 35.49 L 30.35 35.5 L 30.65 35.51 L 30.96 35.52 L 31.27 35.54 L 31.57 35.55 L 31.88 35.56 L 32.19 35.57 L 32.49 35.59 L 32.8 35.6 L 33.11 35.61 L 33.41 35.63 L 33.72 35.64 L 34.03 35.65 L 34.33 35.67 L 34.64 35.68 L 34.95 35.69 L 35.25 35.71 L 35.56 35.72 L 35.87 35.74 L 36.17 35.75 L 36.48 35.76 L 36.79 35.78 L 37.09 35.79 L 37.4 35.81 L 37.71 35.82 L 38.01 35.84 L 38.32 35.85 L 38.63 35.87 L 38.93 35.88 L 39.24 35.9 L 39.55 35.91 L 39.85 35.93 L 40.16 35.94 L 40.47 35.96 L 40.77 35.98 L 41.08 35.99 L 41.39 36.01 L 41.69 36.02 L 42 36.04 L 42.31 36.06 L 42.61 36.07 L 42.92 36.09 L 43.23 36.11 L 43.53 36.12 L 43.84 36.14 L 44.15 36.16 L 44.45 36.18 L 44.76 36.19 L 45.07 36.21 L 45.37 36.23 L 45.68 36.25 L 45.99 36.27 L 46.29 36.28 L 46.6 36.3 L 46.91 36.32 L 47.21 36.34 L 47.52 36.36 L 47.83 36.38 L 48.13 36.4 L 48.44 36.42 L 48.75 36.44 L 49.05 36.45 L 49.36 36.47 L 49.67 36.49 L 49.97 36.51 L 50.28 36.54 L 50.59 36.56 L 50.89 36.58 L 51.2 36.6 L 51.51 36.62 L 51.81 36.64 L 52.12 36.66 L 52.43 36.68 L 52.73 36.7 L 53.04 36.73 L 53.35 36.75 L 53.65 36.77 L 53.96 36.79 L 54.27 36.82 L 54.57 36.84 L 54.88 36.86 L 55.19 36.88 L 55.49 36.91 L 55.8 36.93 L 56.11 36.96 L 56.41 36.98 L 56.72 37 L 57.03 37.03 L 57.33 37.05 L 57.64 37.08 L 57.95 37.1 L 58.25 37.13 L 58.56 37.15 L 58.87 37.18 L 59.17 37.21 L 59.48 37.23 L 59.79 37.26 L 60.09 37.29 L 60.4 37.31 L 60.71 37.34 L 61.01 37.37 L 61.32 37.39 L 61.63 37.42 L 61.93 37.45 L 62.24 37.48 L 62.55 37.51 L 62.85 37.54 L 63.16 37.57 L 63.47 37.6 L 63.77 37.62 L 64.08 37.65 L 64.39 37.69 L 64.69 37.72 L 65 37.75 L 65.31 37.78 L 65.61 37.81 L 65.92 37.84 L 66.23 37.87 L 66.53 37.9 L 66.84 37.94 L 67.15 37.97 L 67.45 38 L 67.76 38.04 L 68.07 38.07 L 68.37 38.1 L 68.68 38.14 L 68.99 38.17 L 69.29 38.21 L 69.6 38.24 L 69.91 38.28 L 70.21 38.31 L 70.52 38.35 L 70.83 38.39 L 71.13 38.42 L 71.44 38.46 L 71.75 38.5 L 72.05 38.54 L 72.36 38.58 L 72.67 38.61 L 72.97 38.65 L 73.28 38.69 L 73.59 38.73 L 73.89 38.77 L 74.2 38.81 L 74.51 38.85 L 74.81 38.9 L 75.12 38.94 L 75.43 38.98 L 75.73 39.02 L 76.04 39.07 L 76.35 39.11 L 76.65 39.15 L 76.96 39.2 L 77.27 39.24 L 77.57 39.29 L 77.88 39.33 L 78.19 39.38 L 78.49 39.43 L 78.8 39.47 L 79.11 39.52 L 79.41 39.57 L 79.72 39.62 L 80.03 39.66 L 80.33 39.71 L 80.64 39.76 L 80.95 39.81 L 81.25 39.86 L 81.56 39.92 L 81.87 39.97 L 82.17 40.02 L 82.48 40.07 L 82.79 40.13 L 83.09 40.18 L 83.4 40.23 L 83.71 40.29 L 84.01 40.34 L 84.32 40.4 L 84.63 40.46 L 84.93 40.51 L 85.24 40.57 L 85.55 40.63 L 85.85 40.69 L 86.16 40.75 L 86.47 40.81 L 86.77 40.87 L 87.08 40.93 L 87.39 40.99 L 87.69 41.06 L 88 41.12 L 88.31 41.18 L 88.61 41.25 L 88.92 41.31 L 89.23 41.38 L 89.53 41.45 L 89.84 41.51 L 90.15 41.58 L 90.45 41.65 L 90.76 41.72 L 91.07 41.79 L 91.37 41.86 L 91.68 41.93 L 91.99 42.01 L 92.29 42.08 L 92.6 42.15 L 92.91 42.23 L 93.21 42.3 L 93.52 42.38 L 93.83 42.46 L 94.13 42.54 L 94.44 42.62 L 94.75 42.7 L 95.05 42.78 L 95.36 42.86 L 95.67 42.94 L 95.97 43.02 L 96.28 43.11 L 96.59 43.19 L 96.89 43.28 L 97.2 43.37 L 97.51 43.45 L 97.81 43.54 L 98.12 43.63 L 98.43 43.72 L 98.73 43.82 L 99.04 43.91 L 99.35 44 L 99.65 44.1 L 99.96 44.19 L 100.27 44.29 L 100.57 44.39 L 100.88 44.49 L 101.19 44.59 L 101.49 44.69 L 101.8 44.79 L 102.11 44.9 L 102.41 45 L 102.72 45.11 L 103.03 45.21 L 103.33 45.32 L 103.64 45.43 L 103.95 45.54 L 104.25 45.65 L 104.56 45.77 L 104.87 45.88 L 105.17 46 L 105.48 46.12 L 105.79 46.23 L 106.09 46.35 L 106.4 46.48 L 106.71 46.6 L 107.01 46.72 L 107.32 46.85 L 107.63 46.97 L 107.93 47.1 L 108.24 47.23 L 108.55 47.36 L 108.85 47.5 L 109.16 47.63 L 109.47 47.77 L 109.77 47.9 L 110.08 48.04 L 110.39 48.18 L 110.69 48.33 L 111 48.47 L 111.31 48.61 L 111.61 48.76 L 111.92 48.91 L 112.23 49.06 L 112.53 49.21 L 112.84 49.37 L 113.15 49.52 L 113.45 49.68 L 113.76 49.84 L 114.07 50 L 114.37 50.17 L 114.68 50.33 L 114.99 50.5 L 115.29 50.67 L 115.6 50.84 L 115.91 51.01 L 116.21 51.19 L 116.52 51.36 L 116.83 51.54 L 117.13 51.72 L 117.44 51.91 L 117.75 52.09 L 118.05 52.28 L 118.36 52.47 L 118.67 52.66 L 118.97 52.86 L 119.28 53.05 L 119.59 53.25 L 119.89 53.45 L 120.2 53.66 L 120.51 53.86 L 120.81 54.07 L 121.12 54.28 L 121.43 54.5 L 121.73 54.71 L 122.04 54.93 L 122.35 55.15 L 122.65 55.38 L 122.96 55.6 L 123.27 55.83 L 123.57 56.06 L 123.88 56.3 L 124.19 56.53 L 124.49 56.77 L 124.8 57.02 L 125.11 57.26 L 125.41 57.51 L 125.72 57.76 L 126.03 58.02 L 126.33 58.27 L 126.64 58.53 L 126.95 58.8 L 127.25 59.06 L 127.56 59.33 L 127.87 59.6 L 128.17 59.88 L 128.48 60.16 L 128.79 60.44 L 129.09 60.73 L 129.4 61.01 L 129.71 61.31 L 130.01 61.6 L 130.32 61.9 L 130.63 62.2 L 130.93 62.51 L 131.24 62.82 L 131.55 63.13 L 131.85 63.44 L 132.16 63.76 L 132.47 64.09 L 132.77 64.41 L 133.08 64.74 L 133.39 65.08 L 133.69 65.42 L 134 65.76 L 134.31 66.1 L 134.61 66.45 L 134.92 66.8 L 135.23 67.16 L 135.53 67.52 L 135.84 67.89 L 136.15 68.25 L 136.45 68.63 L 136.76 69 L 137.07 69.38 L 137.37 69.77 L 137.68 70.16 L 137.99 70.55 L 138.29 70.95 L 138.6 71.35 L 138.91 71.75 L 139.21 72.16 L 139.52 72.57 L 139.83 72.99 L 140.13 73.41 L 140.44 73.84 L 140.75 74.27 L 141.05 74.7 L 141.36 75.14 L 141.67 75.58 L 141.97 76.03 L 142.28 76.48 L 142.59 76.94 L 142.89 77.4 L 143.2 77.86 L 143.51 78.33 L 143.81 78.8 L 144.12 79.28 L 144.43 79.76 L 144.73 80.24 L 145.04 80.73 L 145.35 81.22 L 145.65 81.72 L 145.96 82.22 L 146.27 82.73 L 146.57 83.24 L 146.88 83.75 L 147.19 84.27 L 147.49 84.79 L 147.8 85.32 L 148.11 85.85 L 148.41 86.38 L 148.72 86.92 L 149.03 87.46 L 149.33 88.01 L 149.64 88.55 L 149.95 89.11 L 150.25 89.66 L 150.56 90.22 L 150.87 90.78 L 151.17 91.35 L 151.48 91.92 L 151.79 92.49 L 152.09 93.07 L 152.4 93.64 L 152.71 94.22 L 153.01 94.81 L 153.32 95.39 L 153.63 95.98 L 153.93 96.57 L 154.24 97.17 L 154.55 97.76 L 154.85 98.36 L 155.16 98.96 L 155.47 99.56 L 155.77 100.16 L 156.08 100.77 L 156.39 101.37 L 156.69 101.98 L 157 102.59 L 157.31 103.2 L 157.61 103.81 L 157.92 104.42 L 158.23 105.03 L 158.53 105.64 L 158.84 106.24 L 159.15 106.85 L 159.45 107.46 L 159.76 108.07 L 160.07 108.68 L 160.37 109.28 L 160.68 109.89 L 160.99 110.49 L 161.29 111.09 L 161.6 111.69 L 161.91 112.29 L 162.21 112.88 L 162.52 113.47 L 162.83 114.06 L 163.13 114.64 L 163.44 115.22 L 163.75 115.8 L 164.05 116.37 L 164.36 116.94 L 164.67 117.51 L 164.97 118.07 L 165.28 118.62 L 165.59 119.17 L 165.89 119.71 L 166.2 120.24 L 166.51 120.77 L 166.81 121.3 L 167.12 121.81 L 167.43 122.32 L 167.73 122.82 L 168.04 123.31 L 168.35 123.8 L 168.65 124.28 L 168.96 124.74 L 169.27 125.2 L 169.57 125.65 L 169.88 126.09 L 170.19 126.52 L 170.49 126.94 L 170.8 127.36 L 171.11 127.75 L 171.41 128.14 L 171.72 128.52 L 172.03 128.89 L 172.33 129.24 L 172.64 129.58 L 172.95 129.92 L 173.25 130.23 L 173.56 130.54 L 173.87 130.83 L 174.17 131.11 L 174.48 131.38 L 174.79 131.63 L 175.09 131.87 L 175.4 132.1 L 175.71 132.31 L 176.01 132.51 L 176.32 132.7 L 176.63 132.87 L 176.93 133.02 L 177.24 133.17 L 177.55 133.29 L 177.85 133.4 L 178.16 133.5 L 178.47 133.58 L 178.77 133.65 L 179.08 133.7 L 179.39 133.74 L 179.69 133.76 L 180 133.77 L 180.31 133.76 L 180.61 133.74 L 180.92 133.7 L 181.23 133.65 L 181.53 133.58 L 181.84 133.5 L 182.15 133.4 L 182.45 133.29 L 182.76 133.17 L 183.07 133.02 L 183.37 132.87 L 183.68 132.7 L 183.99 132.51 L 184.29 132.31 L 184.6 132.1 L 184.91 131.87 L 185.21 131.63 L 185.52 131.38 L 185.83 131.11 L 186.13 130.83 L 186.44 130.54 L 186.75 130.23 L 187.05 129.92 L 187.36 129.58 L 187.67 129.24 L 187.97 128.89 L 188.28 128.52 L 188.59 128.14 L 188.89 127.75 L 189.2 127.36 L 189.51 126.94 L 189.81 126.52 L 190.12 126.09 L 190.43 125.65 L 190.73 125.2 L 191.04 124.74 L 191.35 124.28 L 191.65 123.8 L 191.96 123.31 L 192.27 122.82 L 192.57 122.32 L 192.88 121.81 L 193.19 121.3 L 193.49 120.77 L 193.8 120.24 L 194.11 119.71 L 194.41 119.17 L 194.72 118.62 L 195.03 118.07 L 195.33 117.51 L 195.64 116.94 L 195.95 116.37 L 196.25 115.8 L 196.56 115.22 L 196.87 114.64 L 197.17 114.06 L 197.48 113.47 L 197.79 112.88 L 198.09 112.29 L 198.4 111.69 L 198.71 111.09 L 199.01 110.49 L 199.32 109.89 L 199.63 109.28 L 199.93 108.68 L 200.24 108.07 L 200.55 107.46 L 200.85 106.85 L 201.16 106.24 L 201.47 105.64 L 201.77 105.03 L 202.08 104.42 L 202.39 103.81 L 202.69 103.2 L 203 102.59 L 203.31 101.98 L 203.61 101.37 L 203.92 100.77 L 204.23 100.16 L 204.53 99.56 L 204.84 98.96 L 205.15 98.36 L 205.45 97.76 L 205.76 97.17 L 206.07 96.57 L 206.37 95.98 L 206.68 95.39 L 206.99 94.81 L 207.29 94.22 L 207.6 93.64 L 207.91 93.07 L 208.21 92.49 L 208.52 91.92 L 208.83 91.35 L 209.13 90.78 L 209.44 90.22 L 209.75 89.66 L 210.05 89.11 L 210.36 88.55 L 210.67 88.01 L 210.97 87.46 L 211.28 86.92 L 211.59 86.38 L 211.89 85.85 L 212.2 85.32 L 212.51 84.79 L 212.81 84.27 L 213.12 83.75 L 213.43 83.24 L 213.73 82.73 L 214.04 82.22 L 214.35 81.72 L 214.65 81.22 L 214.96 80.73 L 215.27 80.24 L 215.57 79.76 L 215.88 79.28 L 216.19 78.8 L 216.49 78.33 L 216.8 77.86 L 217.11 77.4 L 217.41 76.94 L 217.72 76.48 L 218.03 76.03 L 218.33 75.58 L 218.64 75.14 L 218.95 74.7 L 219.25 74.27 L 219.56 73.84 L 219.87 73.41 L 220.17 72.99 L 220.48 72.57 L 220.79 72.16 L 221.09 71.75 L 221.4 71.35 L 221.71 70.95 L 222.01 70.55 L 222.32 70.16 L 222.63 69.77 L 222.93 69.38 L 223.24 69 L 223.55 68.63 L 223.85 68.25 L 224.16 67.89 L 224.47 67.52 L 224.77 67.16 L 225.08 66.8 L 225.39 66.45 L 225.69 66.1 L 226 65.76 L 226.31 65.42 L 226.61 65.08 L 226.92 64.74 L 227.23 64.41 L 227.53 64.09 L 227.84 63.76 L 228.15 63.44 L 228.45 63.13 L 228.76 62.82 L 229.07 62.51 L 229.37 62.2 L 229.68 61.9 L 229.99 61.6 L 230.29 61.31 L 230.6 61.01 L 230.91 60.73 L 231.21 60.44 L 231.52 60.16 L 231.83 59.88 L 232.13 59.6 L 232.44 59.33 L 232.75 59.06 L 233.05 58.8 L 233.36 58.53 L 233.67 58.27 L 233.97 58.02 L 234.28 57.76 L 234.59 57.51 L 234.89 57.26 L 235.2 57.02 L 235.51 56.77 L 235.81 56.53 L 236.12 56.3 L 236.43 56.06 L 236.73 55.83 L 237.04 55.6 L 237.35 55.38 L 237.65 55.15 L 237.96 54.93 L 238.27 54.71 L 238.57 54.5 L 238.88 54.28 L 239.19 54.07 L 239.49 53.86 L 239.8 53.66 L 240.11 53.45 L 240.41 53.25 L 240.72 53.05 L 241.03 52.86 L 241.33 52.66 L 241.64 52.47 L 241.95 52.28 L 242.25 52.09 L 242.56 51.91 L 242.87 51.72 L 243.17 51.54 L 243.48 51.36 L 243.79 51.19 L 244.09 51.01 L 244.4 50.84 L 244.71 50.67 L 245.01 50.5 L 245.32 50.33 L 245.63 50.17 L 245.93 50 L 246.24 49.84 L 246.55 49.68 L 246.85 49.52 L 247.16 49.37 L 247.47 49.21 L 247.77 49.06 L 248.08 48.91 L 248.39 48.76 L 248.69 48.61 L 249 48.47 L 249.31 48.33 L 249.61 48.18 L 249.92 48.04 L 250.23 47.9 L 250.53 47.77 L 250.84 47.63 L 251.15 47.5 L 251.45 47.36 L 251.76 47.23 L 252.07 47.1 L 252.37 46.97 L 252.68 46.85 L 252.99 46.72 L 253.29 46.6 L 253.6 46.48 L 253.91 46.35 L 254.21 46.23 L 254.52 46.12 L 254.83 46 L 255.13 45.88 L 255.44 45.77 L 255.75 45.65 L 256.05 45.54 L 256.36 45.43 L 256.67 45.32 L 256.97 45.21 L 257.28 45.11 L 257.59 45 L 257.89 44.9 L 258.2 44.79 L 258.51 44.69 L 258.81 44.59 L 259.12 44.49 L 259.43 44.39 L 259.73 44.29 L 260.04 44.19 L 260.35 44.1 L 260.65 44 L 260.96 43.91 L 261.27 43.82 L 261.57 43.72 L 261.88 43.63 L 262.19 43.54 L 262.49 43.45 L 262.8 43.37 L 263.11 43.28 L 263.41 43.19 L 263.72 43.11 L 264.03 43.02 L 264.33 42.94 L 264.64 42.86 L 264.95 42.78 L 265.25 42.7 L 265.56 42.62 L 265.87 42.54 L 266.17 42.46 L 266.48 42.38 L 266.79 42.3 L 267.09 42.23 L 267.4 42.15 L 267.71 42.08 L 268.01 42.01 L 268.32 41.93 L 268.63 41.86 L 268.93 41.79 L 269.24 41.72 L 269.55 41.65 L 269.85 41.58 L 270.16 41.51 L 270.47 41.45 L 270.77 41.38 L 271.08 41.31 L 271.39 41.25 L 271.69 41.18 L 272 41.12 L 272.31 41.06 L 272.61 40.99 L 272.92 40.93 L 273.23 40.87 L 273.53 40.81 L 273.84 40.75 L 274.15 40.69 L 274.45 40.63 L 274.76 40.57 L 275.07 40.51 L 275.37 40.46 L 275.68 40.4 L 275.99 40.34 L 276.29 40.29 L 276.6 40.23 L 276.91 40.18 L 277.21 40.13 L 277.52 40.07 L 277.83 40.02 L 278.13 39.97 L 278.44 39.92 L 278.75 39.86 L 279.05 39.81 L 279.36 39.76 L 279.67 39.71 L 279.97 39.66 L 280.28 39.62 L 280.59 39.57 L 280.89 39.52 L 281.2 39.47 L 281.51 39.43 L 281.81 39.38 L 282.12 39.33 L 282.43 39.29 L 282.73 39.24 L 283.04 39.2 L 283.35 39.15 L 283.65 39.11 L 283.96 39.07 L 284.27 39.02 L 284.57 38.98 L 284.88 38.94 L 285.19 38.9 L 285.49 38.85 L 285.8 38.81 L 286.11 38.77 L 286.41 38.73 L 286.72 38.69 L 287.03 38.65 L 287.33 38.61 L 287.64 38.58 L 287.95 38.54 L 288.25 38.5 L 288.56 38.46 L 288.87 38.42 L 289.17 38.39 L 289.48 38.35 L 289.79 38.31 L 290.09 38.28 L 290.4 38.24 L 290.71 38.21 L 291.01 38.17 L 291.32 38.14 L 291.63 38.1 L 291.93 38.07 L 292.24 38.04 L 292.55 38 L 292.85 37.97 L 293.16 37.94 L 293.47 37.9 L 293.77 37.87 L 294.08 37.84 L 294.39 37.81 L 294.69 37.78 L 295 37.75 L 295.31 37.72 L 295.61 37.69 L 295.92 37.65 L 296.23 37.62 L 296.53 37.6 L 296.84 37.57 L 297.15 37.54 L 297.45 37.51 L 297.76 37.48 L 298.07 37.45 L 298.37 37.42 L 298.68 37.39 L 298.99 37.37 L 299.29 37.34 L 299.6 37.31 L 299.91 37.29 L 300.21 37.26 L 300.52 37.23 L 300.83 37.21 L 301.13 37.18 L 301.44 37.15 L 301.75 37.13 L 302.05 37.1 L 302.36 37.08 L 302.67 37.05 L 302.97 37.03 L 303.28 37 L 303.59 36.98 L 303.89 36.96 L 304.2 36.93 L 304.51 36.91 L 304.81 36.88 L 305.12 36.86 L 305.43 36.84 L 305.73 36.82 L 306.04 36.79 L 306.35 36.77 L 306.65 36.75 L 306.96 36.73 L 307.27 36.7 L 307.57 36.68 L 307.88 36.66 L 308.19 36.64 L 308.49 36.62 L 308.8 36.6 L 309.11 36.58 L 309.41 36.56 L 309.72 36.54 L 310.03 36.51 L 310.33 36.49 L 310.64 36.47 L 310.95 36.45 L 311.25 36.44 L 311.56 36.42 L 311.87 36.4 L 312.17 36.38 L 312.48 36.36 L 312.79 36.34 L 313.09 36.32 L 313.4 36.3 L 313.71 36.28 L 314.01 36.27 L 314.32 36.25 L 314.63 36.23 L 314.93 36.21 L 315.24 36.19 L 315.55 36.18 L 315.85 36.16 L 316.16 36.14 L 316.47 36.12 L 316.77 36.11 L 317.08 36.09 L 317.39 36.07 L 317.69 36.06 L 318 36.04 L 318.31 36.02 L 318.61 36.01 L 318.92 35.99 L 319.23 35.98 L 319.53 35.96 L 319.84 35.94 L 320.15 35.93 L 320.45 35.91 L 320.76 35.9 L 321.07 35.88 L 321.37 35.87 L 321.68 35.85 L 321.99 35.84 L 322.29 35.82 L 322.6 35.81 L 322.91 35.79 L 323.21 35.78 L 323.52 35.76 L 323.83 35.75 L 324.13 35.74 L 324.44 35.72 L 324.75 35.71 L 325.05 35.69 L 325.36 35.68 L 325.67 35.67 L 325.97 35.65 L 326.28 35.64 L 326.59 35.63 L 326.89 35.61 L 327.2 35.6 L 327.51 35.59 L 327.81 35.57 L 328.12 35.56 L 328.43 35.55 L 328.73 35.54 L 329.04 35.52 L 329.35 35.51 L 329.65 35.5 L 329.96 35.49 L 330.27 35.47 L 330.57 35.46 L 330.88 35.45 L 331.19 35.44 L 331.49 35.43 L 331.8 35.42 L 332.11 35.4 L 332.41 35.39 L 332.72 35.38 L 333.03 35.37 L 333.33 35.36 L 333.64 35.35 L 333.95 35.34 L 334.25 35.32 L 334.56 35.31 L 334.87 35.3 L 335.17 35.29 L 335.48 35.28 L 335.79 35.27 L 336.09 35.26 L 336.4 35.25 L 336.71 35.24 L 337.01 35.23 L 337.32 35.22 L 337.63 35.21 L 337.93 35.2 L 338.24 35.19 L 338.55 35.18 L 338.85 35.17 L 339.16 35.16 L 339.47 35.15 L 339.77 35.14 L 340.08 35.13 L 340.39 35.12 L 340.69 35.11 L 341 35.1 L 341.31 35.09 L 341.61 35.08 L 341.92 35.07 L 342.23 35.06 L 342.53 35.05 L 342.84 35.05 L 343.15 35.04 L 343.45 35.03 L 343.76 35.02 L 344.07 35.01 L 344.37 35 L 344.68 34.99 L 344.99 34.98 L 345.29 34.98 L 345.6 34.97 L 345.91 34.96 L 346.21 34.95 L 346.52 34.94 L 346.83 34.93 L 347.13 34.92 L 347.44 34.92 L 347.75 34.91 L 348.05 34.9 L 348.36 34.89 L 348.67 34.88 L 348.97 34.88 L 349.28 34.87 L 349.59 34.86 L 349.89 34.85 L 350.2 34.85 L 350.51 34.84 L 350.81 34.83 L 351.12 34.82 L 351.43 34.82 L 351.73 34.81 L 352.04 34.8 L 352.35 34.79 L 352.65 34.79 L 352.96 34.78 L 353.27 34.77 L 353.57 34.76 L 353.88 34.76 L 354.19 34.75 L 354.49 34.74 L 354.8 34.74 L 355.11 34.73 L 355.41 34.72 L 355.72 34.72 L 356.03 34.71 L 356.33 34.7 L 356.64 34.69 L 356.95 34.69 L 357.25 34.68 L 357.56 34.68 L 357.87 34.67 L 358.17 34.66 L 358.48 34.66 L 358.79 34.65 L 359.09 34.64 L 359.4 34.64 L 359.71 34.63 L 360 34.62 "/>
</g>
</g>
</svg>
