<?xml version="1.0" encoding="UTF-8" standalone="no"?>
<!DOCTYPE svg PUBLIC "-//W3C//DTD SVG 1.1//EN" "http://www.w3.org/Graphics/SVG/1.1/DTD/svg11.dtd">
<svg xmlns="http://www.w3.org/2000/svg" xmlns:xlink="http://www.w3.org/1999/xlink" version="1.1" width="334pt" height="144pt" viewBox="0 0 334 144">
<g enable-background="new">
<clipPath id="cp0">
<path transform="matrix(1,0,0,-1,0,144)" d="M 14.4 24.48 L 320.4 24.48 L 320.4 142.56 L 14.4 142.56 Z "/>
</clipPath>
<g clip-path="url(#cp0)">
<path transform="matrix(1,0,0,-1,0,144)" stroke-width=".75" stroke-linecap="round" stroke-linejoin="round" fill="none" stroke="#569bbd" d="M 32.82 28.85 L 32.89 28.85 L 32.96 28.86 L 33.03 28.86 L 33.1 28.86 L 33.17 28.86 L 33.24 28.86 L 33.31 28.87 L 33.38 28.87 L 33.45 28.87 L 33.52 28.87 L 33.6 28.87 L 33.67 28.88 L 33.74 28.88 L 33.81 28.88 L 33.88 28.88 L 33.95 28.89 L 34.02 28.89 L 34.09 28.89 L 34.16 28.89 L 34.23 28.9 L 34.3 28.9 L 34.38 28.9 L 34.45 28.91 L 34.52 28.91 L 34.59 28.91 L 34.66 28.92 L 34.73 28.92 L 34.8 28.92 L 34.87 28.93 L 34.94 28.93 L 35.01 28.94 L 35.08 28.94 L 35.15 28.95 L 35.23 28.95 L 35.3 28.96 L 35.37 28.96 L 35.44 28.97 L 35.51 28.97 L 35.58 28.98 L 35.65 28.98 L 35.72 28.99 L 35.79 29 L 35.86 29 L 35.93 29.01 L 36 29.02 L 36.08 29.02 L 36.15 29.03 L 36.22 29.04 L 36.29 29.05 L 36.36 29.06 L 36.43 29.06 L 36.5 29.07 L 36.57 29.08 L 36.64 29.09 L 36.71 29.1 L 36.78 29.11 L 36.85 29.12 L 36.92 29.13 L 37 29.14 L 37.07 29.15 L 37.14 29.17 L 37.21 29.18 L 37.28 29.19 L 37.35 29.2 L 37.42 29.22 L 37.49 29.23 L 37.56 29.24 L 37.63 29.26 L 37.7 29.27 L 37.77 29.29 L 37.85 29.3 L 37.92 29.32 L 37.99 29.34 L 38.06 29.36 L 38.13 29.37 L 38.2 29.39 L 38.27 29.41 L 38.34 29.43 L 38.41 29.45 L 38.48 29.47 L 38.55 29.49 L 38.62 29.51 L 38.7 29.54 L 38.77 29.56 L 38.84 29.58 L 38.91 29.61 L 38.98 29.63 L 39.05 29.66 L 39.12 29.68 L 39.19 29.71 L 39.26 29.74 L 39.33 29.77 L 39.4 29.8 L 39.48 29.83 L 39.55 29.86 L 39.62 29.89 L 39.69 29.93 L 39.76 29.96 L 39.83 30 L 39.9 30.03 L 39.97 30.07 L 40.04 30.11 L 40.11 30.15 L 40.18 30.19 L 40.25 30.23 L 40.33 30.27 L 40.4 30.31 L 40.47 30.36 L 40.54 30.4 L 40.61 30.45 L 40.68 30.5 L 40.75 30.55 L 40.82 30.6 L 40.89 30.65 L 40.96 30.7 L 41.03 30.76 L 41.1 30.81 L 41.17 30.87 L 41.25 30.93 L 41.32 30.99 L 41.39 31.05 L 41.46 31.11 L 41.53 31.18 L 41.6 31.24 L 41.67 31.31 L 41.74 31.38 L 41.81 31.45 L 41.88 31.52 L 41.95 31.6 L 42.02 31.67 L 42.1 31.75 L 42.17 31.83 L 42.24 31.91 L 42.31 32 L 42.38 32.08 L 42.45 32.17 L 42.52 32.26 L 42.59 32.35 L 42.66 32.44 L 42.73 32.54 L 42.8 32.64 L 42.87 32.74 L 42.95 32.84 L 43.02 32.95 L 43.09 33.05 L 43.16 33.16 L 43.23 33.27 L 43.3 33.39 L 43.37 33.5 L 43.44 33.62 L 43.51 33.74 L 43.58 33.87 L 43.65 33.99 L 43.73 34.12 L 43.8 34.26 L 43.87 34.39 L 43.94 34.53 L 44.01 34.67 L 44.08 34.81 L 44.15 34.96 L 44.22 35.1 L 44.29 35.26 L 44.36 35.41 L 44.43 35.57 L 44.5 35.73 L 44.58 35.89 L 44.65 36.06 L 44.72 36.23 L 44.79 36.41 L 44.86 36.58 L 44.93 36.76 L 45 36.95 L 45.07 37.13 L 45.14 37.32 L 45.21 37.52 L 45.28 37.72 L 45.35 37.92 L 45.43 38.12 L 45.5 38.33 L 45.57 38.54 L 45.64 38.76 L 45.71 38.98 L 45.78 39.2 L 45.85 39.43 L 45.92 39.66 L 45.99 39.89 L 46.06 40.13 L 46.13 40.38 L 46.2 40.62 L 46.28 40.87 L 46.35 41.13 L 46.42 41.39 L 46.49 41.65 L 46.56 41.92 L 46.63 42.19 L 46.7 42.47 L 46.77 42.75 L 46.84 43.04 L 46.91 43.32 L 46.98 43.62 L 47.05 43.92 L 47.12 44.22 L 47.2 44.53 L 47.27 44.84 L 47.34 45.15 L 47.41 45.48 L 47.48 45.8 L 47.55 46.13 L 47.62 46.47 L 47.69 46.81 L 47.76 47.15 L 47.83 47.5 L 47.9 47.85 L 47.98 48.21 L 48.05 48.57 L 48.12 48.94 L 48.19 49.31 L 48.26 49.69 L 48.33 50.07 L 48.4 50.46 L 48.47 50.85 L 48.54 51.25 L 48.61 51.65 L 48.68 52.06 L 48.75 52.47 L 48.83 52.89 L 48.9 53.31 L 48.97 53.73 L 49.04 54.16 L 49.11 54.6 L 49.18 55.04 L 49.25 55.49 L 49.32 55.94 L 49.39 56.39 L 49.46 56.85 L 49.53 57.32 L 49.6 57.79 L 49.68 58.26 L 49.75 58.74 L 49.82 59.23 L 49.89 59.71 L 49.96 60.21 L 50.03 60.71 L 50.1 61.21 L 50.17 61.72 L 50.24 62.23 L 50.31 62.75 L 50.38 63.27 L 50.45 63.79 L 50.52 64.32 L 50.6 64.86 L 50.67 65.4 L 50.74 65.94 L 50.81 66.49 L 50.88 67.04 L 50.95 67.6 L 51.02 68.16 L 51.09 68.72 L 51.16 69.29 L 51.23 69.86 L 51.3 70.44 L 51.38 71.02 L 51.45 71.61 L 51.52 72.19 L 51.59 72.79 L 51.66 73.38 L 51.73 73.98 L 51.8 74.58 L 51.87 75.19 L 51.94 75.8 L 52.01 76.41 L 52.08 77.03 L 52.15 77.64 L 52.23 78.27 L 52.3 78.89 L 52.37 79.52 L 52.44 80.15 L 52.51 80.78 L 52.58 81.42 L 52.65 82.05 L 52.72 82.69 L 52.79 83.33 L 52.86 83.98 L 52.93 84.63 L 53 85.27 L 53.08 85.92 L 53.15 86.58 L 53.22 87.23 L 53.29 87.88 L 53.36 88.54 L 53.43 89.2 L 53.5 89.86 L 53.57 90.52 L 53.64 91.18 L 53.71 91.84 L 53.78 92.5 L 53.85 93.16 L 53.92 93.83 L 54 94.49 L 54.07 95.15 L 54.14 95.82 L 54.21 96.48 L 54.28 97.14 L 54.35 97.8 L 54.42 98.47 L 54.49 99.13 L 54.56 99.79 L 54.63 100.45 L 54.7 101.11 L 54.78 101.76 L 54.85 102.42 L 54.92 103.07 L 54.99 103.73 L 55.06 104.38 L 55.13 105.03 L 55.2 105.67 L 55.27 106.32 L 55.34 106.96 L 55.41 107.6 L 55.48 108.24 L 55.55 108.87 L 55.62 109.5 L 55.7 110.13 L 55.77 110.75 L 55.84 111.37 L 55.91 111.99 L 55.98 112.6 L 56.05 113.21 L 56.12 113.82 L 56.19 114.42 L 56.26 115.02 L 56.33 115.61 L 56.4 116.2 L 56.48 116.78 L 56.55 117.36 L 56.62 117.93 L 56.69 118.5 L 56.76 119.06 L 56.83 119.62 L 56.9 120.17 L 56.97 120.72 L 57.04 121.25 L 57.11 121.79 L 57.18 122.31 L 57.25 122.83 L 57.33 123.35 L 57.4 123.86 L 57.47 124.36 L 57.54 124.85 L 57.61 125.34 L 57.68 125.81 L 57.75 126.29 L 57.82 126.75 L 57.89 127.21 L 57.96 127.66 L 58.03 128.1 L 58.1 128.53 L 58.18 128.95 L 58.25 129.37 L 58.32 129.78 L 58.39 130.18 L 58.46 130.57 L 58.53 130.95 L 58.6 131.32 L 58.67 131.69 L 58.74 132.04 L 58.81 132.39 L 58.88 132.73 L 58.95 133.06 L 59.02 133.37 L 59.1 133.68 L 59.17 133.98 L 59.24 134.27 L 59.31 134.55 L 59.38 134.82 L 59.45 135.08 L 59.52 135.33 L 59.59 135.57 L 59.66 135.8 L 59.73 136.02 L 59.8 136.23 L 59.88 136.43 L 59.95 136.62 L 60.02 136.8 L 60.09 136.96 L 60.16 137.12 L 60.23 137.27 L 60.3 137.4 L 60.37 137.53 L 60.44 137.64 L 60.51 137.74 L 60.58 137.84 L 60.65 137.92 L 60.73 137.99 L 60.8 138.05 L 60.87 138.1 L 60.94 138.14 L 61.01 138.16 L 61.08 138.18 L 61.15 138.19 L 61.22 138.18 L 61.29 138.16 L 61.36 138.14 L 61.43 138.1 L 61.5 138.05 L 61.58 137.99 L 61.65 137.92 L 61.72 137.84 L 61.79 137.74 L 61.86 137.64 L 61.93 137.53 L 62 137.4 L 62.07 137.27 L 62.14 137.12 L 62.21 136.96 L 62.28 136.8 L 62.35 136.62 L 62.42 136.43 L 62.5 136.23 L 62.57 136.02 L 62.64 135.8 L 62.71 135.57 L 62.78 135.33 L 62.85 135.08 L 62.92 134.82 L 62.99 134.55 L 63.06 134.27 L 63.13 133.98 L 63.2 133.68 L 63.28 133.37 L 63.35 133.06 L 63.42 132.73 L 63.49 132.39 L 63.56 132.04 L 63.63 131.69 L 63.7 131.32 L 63.77 130.95 L 63.84 130.57 L 63.91 130.18 L 63.98 129.78 L 64.05 129.37 L 64.12 128.95 L 64.2 128.53 L 64.27 128.1 L 64.34 127.66 L 64.41 127.21 L 64.48 126.75 L 64.55 126.29 L 64.62 125.81 L 64.69 125.34 L 64.76 124.85 L 64.83 124.36 L 64.9 123.86 L 64.97 123.35 L 65.05 122.83 L 65.12 122.31 L 65.19 121.79 L 65.26 121.25 L 65.33 120.72 L 65.4 120.17 L 65.47 119.62 L 65.54 119.06 L 65.61 118.5 L 65.68 117.93 L 65.75 117.36 L 65.83 116.78 L 65.9 116.2 L 65.97 115.61 L 66.04 115.02 L 66.11 114.42 L 66.18 113.82 L 66.25 113.21 L 66.32 112.6 L 66.39 111.99 L 66.46 111.37 L 66.53 110.75 L 66.6 110.13 L 66.67 109.5 L 66.75 108.87 L 66.82 108.24 L 66.89 107.6 L 66.96 106.96 L 67.03 106.32 L 67.1 105.67 L 67.17 105.03 L 67.24 104.38 L 67.31 103.73 L 67.38 103.07 L 67.45 102.42 L 67.53 101.76 L 67.6 101.11 L 67.67 100.45 L 67.74 99.79 L 67.81 99.13 L 67.88 98.47 L 67.95 97.8 L 68.02 97.14 L 68.09 96.48 L 68.16 95.82 L 68.23 95.15 L 68.3 94.49 L 68.38 93.83 L 68.45 93.16 L 68.52 92.5 L 68.59 91.84 L 68.66 91.18 L 68.73 90.52 L 68.8 89.86 L 68.87 89.2 L 68.94 88.54 L 69.01 87.88 L 69.08 87.23 L 69.15 86.58 L 69.23 85.92 L 69.3 85.27 L 69.37 84.63 L 69.44 83.98 L 69.51 83.33 L 69.58 82.69 L 69.65 82.05 L 69.72 81.42 L 69.79 80.78 L 69.86 80.15 L 69.93 79.52 L 70 78.89 L 70.08 78.27 L 70.15 77.64 L 70.22 77.03 L 70.29 76.41 L 70.36 75.8 L 70.43 75.19 L 70.5 74.58 L 70.57 73.98 L 70.64 73.38 L 70.71 72.79 L 70.78 72.19 L 70.85 71.61 L 70.92 71.02 L 71 70.44 L 71.07 69.86 L 71.14 69.29 L 71.21 68.72 L 71.28 68.16 L 71.35 67.6 L 71.42 67.04 L 71.49 66.49 L 71.56 65.94 L 71.63 65.4 L 71.7 64.86 L 71.78 64.32 L 71.85 63.79 L 71.92 63.27 L 71.99 62.75 L 72.06 62.23 L 72.13 61.72 L 72.2 61.21 L 72.27 60.71 L 72.34 60.21 L 72.41 59.71 L 72.48 59.23 L 72.55 58.74 L 72.62 58.26 L 72.7 57.79 L 72.77 57.32 L 72.84 56.85 L 72.91 56.39 L 72.98 55.94 L 73.05 55.49 L 73.12 55.04 L 73.19 54.6 L 73.26 54.16 L 73.33 53.73 L 73.4 53.31 L 73.48 52.89 L 73.55 52.47 L 73.62 52.06 L 73.69 51.65 L 73.76 51.25 L 73.83 50.85 L 73.9 50.46 L 73.97 50.07 L 74.04 49.69 L 74.11 49.31 L 74.18 48.94 L 74.25 48.57 L 74.33 48.21 L 74.4 47.85 L 74.47 47.5 L 74.54 47.15 L 74.61 46.81 L 74.68 46.47 L 74.75 46.13 L 74.82 45.8 L 74.89 45.48 L 74.96 45.15 L 75.03 44.84 L 75.1 44.53 L 75.17 44.22 L 75.25 43.92 L 75.32 43.62 L 75.39 43.32 L 75.46 43.04 L 75.53 42.75 L 75.6 42.47 L 75.67 42.19 L 75.74 41.92 L 75.81 41.65 L 75.88 41.39 L 75.95 41.13 L 76.03 40.87 L 76.1 40.62 L 76.17 40.38 L 76.24 40.13 L 76.31 39.89 L 76.38 39.66 L 76.45 39.43 L 76.52 39.2 L 76.59 38.98 L 76.66 38.76 L 76.73 38.54 L 76.8 38.33 L 76.88 38.12 L 76.95 37.92 L 77.02 37.72 L 77.09 37.52 L 77.16 37.32 L 77.23 37.13 L 77.3 36.95 L 77.37 36.76 L 77.44 36.58 L 77.51 36.41 L 77.58 36.23 L 77.65 36.06 L 77.73 35.89 L 77.8 35.73 L 77.87 35.57 L 77.94 35.41 L 78.01 35.26 L 78.08 35.1 L 78.15 34.96 L 78.22 34.81 L 78.29 34.67 L 78.36 34.53 L 78.43 34.39 L 78.5 34.26 L 78.58 34.12 L 78.65 33.99 L 78.72 33.87 L 78.79 33.74 L 78.86 33.62 L 78.93 33.5 L 79 33.39 L 79.07 33.27 L 79.14 33.16 L 79.21 33.05 L 79.28 32.95 L 79.35 32.84 L 79.43 32.74 L 79.5 32.64 L 79.57 32.54 L 79.64 32.44 L 79.71 32.35 L 79.78 32.26 L 79.85 32.17 L 79.92 32.08 L 79.99 32 L 80.06 31.91 L 80.13 31.83 L 80.2 31.75 L 80.28 31.67 L 80.35 31.6 L 80.42 31.52 L 80.49 31.45 L 80.56 31.38 L 80.63 31.31 L 80.7 31.24 L 80.77 31.18 L 80.84 31.11 L 80.91 31.05 L 80.98 30.99 L 81.05 30.93 L 81.12 30.87 L 81.2 30.81 L 81.27 30.76 L 81.34 30.7 L 81.41 30.65 L 81.48 30.6 L 81.55 30.55 L 81.62 30.5 L 81.69 30.45 L 81.76 30.4 L 81.83 30.36 L 81.9 30.31 L 81.98 30.27 L 82.05 30.23 L 82.12 30.19 L 82.19 30.15 L 82.26 30.11 L 82.33 30.07 L 82.4 30.03 L 82.47 30 L 82.54 29.96 L 82.61 29.93 L 82.68 29.89 L 82.75 29.86 L 82.83 29.83 L 82.9 29.8 L 82.97 29.77 L 83.04 29.74 L 83.11 29.71 L 83.18 29.68 L 83.25 29.66 L 83.32 29.63 L 83.39 29.61 L 83.46 29.58 L 83.53 29.56 L 83.6 29.54 L 83.67 29.51 L 83.75 29.49 L 83.82 29.47 L 83.89 29.45 L 83.96 29.43 L 84.03 29.41 L 84.1 29.39 L 84.17 29.37 L 84.24 29.36 L 84.31 29.34 L 84.38 29.32 L 84.45 29.3 L 84.53 29.29 L 84.6 29.27 L 84.67 29.26 L 84.74 29.24 L 84.81 29.23 L 84.88 29.22 L 84.95 29.2 L 85.02 29.19 L 85.09 29.18 L 85.16 29.17 L 85.23 29.15 L 85.3 29.14 L 85.38 29.13 L 85.45 29.12 L 85.52 29.11 L 85.59 29.1 L 85.66 29.09 L 85.73 29.08 L 85.8 29.07 L 85.87 29.06 L 85.94 29.06 L 86.01 29.05 L 86.08 29.04 L 86.15 29.03 L 86.23 29.02 L 86.3 29.02 L 86.37 29.01 L 86.44 29 L 86.51 29 L 86.58 28.99 L 86.65 28.98 L 86.72 28.98 L 86.79 28.97 L 86.86 28.97 L 86.93 28.96 L 87 28.96 L 87.08 28.95 L 87.15 28.95 L 87.22 28.94 L 87.29 28.94 L 87.36 28.93 L 87.43 28.93 L 87.5 28.92 L 87.57 28.92 L 87.64 28.92 L 87.71 28.91 L 87.78 28.91 L 87.85 28.91 L 87.92 28.9 L 88 28.9 L 88.07 28.9 L 88.14 28.89 L 88.21 28.89 L 88.28 28.89 L 88.35 28.89 L 88.42 28.88 L 88.49 28.88 L 88.56 28.88 L 88.63 28.88 L 88.7 28.87 L 88.78 28.87 L 88.85 28.87 L 88.92 28.87 L 88.99 28.87 L 89.06 28.86 L 89.13 28.86 L 89.2 28.86 L 89.27 28.86 L 89.34 28.86 L 89.41 28.85 L 89.48 28.85 "/>
</g>
<path transform="matrix(1,0,0,-1,0,144)" stroke-width=".75" stroke-linecap="round" stroke-linejoin="round" fill="none" stroke="#000000" d="M 14.4 24.48 L 320.4 24.48 "/>
<path transform="matrix(1,0,0,-1,0,144)" stroke-width=".75" stroke-linecap="round" stroke-linejoin="round" fill="none" stroke="#000000" d="M 61.15 24.48 L 61.15 20.16 "/>
<path transform="matrix(1,0,0,-1,0,144)" stroke-width=".75" stroke-linecap="round" stroke-linejoin="round" fill="none" stroke="#000000" d="M 131.98 24.48 L 131.98 20.16 "/>
<path transform="matrix(1,0,0,-1,0,144)" stroke-width=".75" stroke-linecap="round" stroke-linejoin="round" fill="none" stroke="#000000" d="M 202.82 24.48 L 202.82 20.16 "/>
<path transform="matrix(1,0,0,-1,0,144)" stroke-width=".75" stroke-linecap="round" stroke-linejoin="round" fill="none" stroke="#000000" d="M 273.65 24.48 L 273.65 20.16 "/>
<text xml:space="preserve" transform="matrix(1 0 -0 1 0 144)" font-size="12" font-family="Helvetica"><tspan y="-5.04" x="57.81">0</tspan></text>
<text xml:space="preserve" transform="matrix(1 0 -0 1 0 144)" font-size="12" font-family="Helvetica"><tspan y="-5.04" x="125.31 131.982">10</tspan></text>
<text xml:space="preserve" transform="matrix(1 0 -0 1 0 144)" font-size="12" font-family="Helvetica"><tspan y="-5.04" x="196.14 202.812">20</tspan></text>
<text xml:space="preserve" transform="matrix(1 0 -0 1 0 144)" font-size="12" font-family="Helvetica"><tspan y="-5.04" x="266.98 273.652">30</tspan></text>
<clipPath id="cp1">
<path transform="matrix(1,0,0,-1,0,144)" d="M 14.4 24.48 L 320.4 24.48 L 320.4 142.56 L 14.4 142.56 Z "/>
</clipPath>
<g clip-path="url(#cp1)">
<path transform="matrix(1,0,0,-1,0,144)" stroke-width="2.25" stroke-linecap="round" stroke-linejoin="round" fill="none" stroke="#569bbd" d="M 32.82 28.85 L 32.89 28.85 L 32.96 28.86 L 33.03 28.86 L 33.1 28.86 L 33.17 28.86 L 33.24 28.86 L 33.31 28.87 L 33.38 28.87 L 33.45 28.87 L 33.52 28.87 L 33.6 28.87 L 33.67 28.88 L 33.74 28.88 L 33.81 28.88 L 33.88 28.88 L 33.95 28.89 L 34.02 28.89 L 34.09 28.89 L 34.16 28.89 L 34.23 28.9 L 34.3 28.9 L 34.38 28.9 L 34.45 28.91 L 34.52 28.91 L 34.59 28.91 L 34.66 28.92 L 34.73 28.92 L 34.8 28.92 L 34.87 28.93 L 34.94 28.93 L 35.01 28.94 L 35.08 28.94 L 35.15 28.95 L 35.23 28.95 L 35.3 28.96 L 35.37 28.96 L 35.44 28.97 L 35.51 28.97 L 35.58 28.98 L 35.65 28.98 L 35.72 28.99 L 35.79 29 L 35.86 29 L 35.93 29.01 L 36 29.02 L 36.08 29.02 L 36.15 29.03 L 36.22 29.04 L 36.29 29.05 L 36.36 29.06 L 36.43 29.06 L 36.5 29.07 L 36.57 29.08 L 36.64 29.09 L 36.71 29.1 L 36.78 29.11 L 36.85 29.12 L 36.92 29.13 L 37 29.14 L 37.07 29.15 L 37.14 29.17 L 37.21 29.18 L 37.28 29.19 L 37.35 29.2 L 37.42 29.22 L 37.49 29.23 L 37.56 29.24 L 37.63 29.26 L 37.7 29.27 L 37.77 29.29 L 37.85 29.3 L 37.92 29.32 L 37.99 29.34 L 38.06 29.36 L 38.13 29.37 L 38.2 29.39 L 38.27 29.41 L 38.34 29.43 L 38.41 29.45 L 38.48 29.47 L 38.55 29.49 L 38.62 29.51 L 38.7 29.54 L 38.77 29.56 L 38.84 29.58 L 38.91 29.61 L 38.98 29.63 L 39.05 29.66 L 39.12 29.68 L 39.19 29.71 L 39.26 29.74 L 39.33 29.77 L 39.4 29.8 L 39.48 29.83 L 39.55 29.86 L 39.62 29.89 L 39.69 29.93 L 39.76 29.96 L 39.83 30 L 39.9 30.03 L 39.97 30.07 L 40.04 30.11 L 40.11 30.15 L 40.18 30.19 L 40.25 30.23 L 40.33 30.27 L 40.4 30.31 L 40.47 30.36 L 40.54 30.4 L 40.61 30.45 L 40.68 30.5 L 40.75 30.55 L 40.82 30.6 L 40.89 30.65 L 40.96 30.7 L 41.03 30.76 L 41.1 30.81 L 41.17 30.87 L 41.25 30.93 L 41.32 30.99 L 41.39 31.05 L 41.46 31.11 L 41.53 31.18 L 41.6 31.24 L 41.67 31.31 L 41.74 31.38 L 41.81 31.45 L 41.88 31.52 L 41.95 31.6 L 42.02 31.67 L 42.1 31.75 L 42.17 31.83 L 42.24 31.91 L 42.31 32 L 42.38 32.08 L 42.45 32.17 L 42.52 32.26 L 42.59 32.35 L 42.66 32.44 L 42.73 32.54 L 42.8 32.64 L 42.87 32.74 L 42.95 32.84 L 43.02 32.95 L 43.09 33.05 L 43.16 33.16 L 43.23 33.27 L 43.3 33.39 L 43.37 33.5 L 43.44 33.62 L 43.51 33.74 L 43.58 33.87 L 43.65 33.99 L 43.73 34.12 L 43.8 34.26 L 43.87 34.39 L 43.94 34.53 L 44.01 34.67 L 44.08 34.81 L 44.15 34.96 L 44.22 35.1 L 44.29 35.26 L 44.36 35.41 L 44.43 35.57 L 44.5 35.73 L 44.58 35.89 L 44.65 36.06 L 44.72 36.23 L 44.79 36.41 L 44.86 36.58 L 44.93 36.76 L 45 36.95 L 45.07 37.13 L 45.14 37.32 L 45.21 37.52 L 45.28 37.72 L 45.35 37.92 L 45.43 38.12 L 45.5 38.33 L 45.57 38.54 L 45.64 38.76 L 45.71 38.98 L 45.78 39.2 L 45.85 39.43 L 45.92 39.66 L 45.99 39.89 L 46.06 40.13 L 46.13 40.38 L 46.2 40.62 L 46.28 40.87 L 46.35 41.13 L 46.42 41.39 L 46.49 41.65 L 46.56 41.92 L 46.63 42.19 L 46.7 42.47 L 46.77 42.75 L 46.84 43.04 L 46.91 43.32 L 46.98 43.62 L 47.05 43.92 L 47.12 44.22 L 47.2 44.53 L 47.27 44.84 L 47.34 45.15 L 47.41 45.48 L 47.48 45.8 L 47.55 46.13 L 47.62 46.47 L 47.69 46.81 L 47.76 47.15 L 47.83 47.5 L 47.9 47.85 L 47.98 48.21 L 48.05 48.57 L 48.12 48.94 L 48.19 49.31 L 48.26 49.69 L 48.33 50.07 L 48.4 50.46 L 48.47 50.85 L 48.54 51.25 L 48.61 51.65 L 48.68 52.06 L 48.75 52.47 L 48.83 52.89 L 48.9 53.31 L 48.97 53.73 L 49.04 54.16 L 49.11 54.6 L 49.18 55.04 L 49.25 55.49 L 49.32 55.94 L 49.39 56.39 L 49.46 56.85 L 49.53 57.32 L 49.6 57.79 L 49.68 58.26 L 49.75 58.74 L 49.82 59.23 L 49.89 59.71 L 49.96 60.21 L 50.03 60.71 L 50.1 61.21 L 50.17 61.72 L 50.24 62.23 L 50.31 62.75 L 50.38 63.27 L 50.45 63.79 L 50.52 64.32 L 50.6 64.86 L 50.67 65.4 L 50.74 65.94 L 50.81 66.49 L 50.88 67.04 L 50.95 67.6 L 51.02 68.16 L 51.09 68.72 L 51.16 69.29 L 51.23 69.86 L 51.3 70.44 L 51.38 71.02 L 51.45 71.61 L 51.52 72.19 L 51.59 72.79 L 51.66 73.38 L 51.73 73.98 L 51.8 74.58 L 51.87 75.19 L 51.94 75.8 L 52.01 76.41 L 52.08 77.03 L 52.15 77.64 L 52.23 78.27 L 52.3 78.89 L 52.37 79.52 L 52.44 80.15 L 52.51 80.78 L 52.58 81.42 L 52.65 82.05 L 52.72 82.69 L 52.79 83.33 L 52.86 83.98 L 52.93 84.63 L 53 85.27 L 53.08 85.92 L 53.15 86.58 L 53.22 87.23 L 53.29 87.88 L 53.36 88.54 L 53.43 89.2 L 53.5 89.86 L 53.57 90.52 L 53.64 91.18 L 53.71 91.84 L 53.78 92.5 L 53.85 93.16 L 53.92 93.83 L 54 94.49 L 54.07 95.15 L 54.14 95.82 L 54.21 96.48 L 54.28 97.14 L 54.35 97.8 L 54.42 98.47 L 54.49 99.13 L 54.56 99.79 L 54.63 100.45 L 54.7 101.11 L 54.78 101.76 L 54.85 102.42 L 54.92 103.07 L 54.99 103.73 L 55.06 104.38 L 55.13 105.03 L 55.2 105.67 L 55.27 106.32 L 55.34 106.96 L 55.41 107.6 L 55.48 108.24 L 55.55 108.87 L 55.62 109.5 L 55.7 110.13 L 55.77 110.75 L 55.84 111.37 L 55.91 111.99 L 55.98 112.6 L 56.05 113.21 L 56.12 113.82 L 56.19 114.42 L 56.26 115.02 L 56.33 115.61 L 56.4 116.2 L 56.48 116.78 L 56.55 117.36 L 56.62 117.93 L 56.69 118.5 L 56.76 119.06 L 56.83 119.62 L 56.9 120.17 L 56.97 120.72 L 57.04 121.25 L 57.11 121.79 L 57.18 122.31 L 57.25 122.83 L 57.33 123.35 L 57.4 123.86 L 57.47 124.36 L 57.54 124.85 L 57.61 125.34 L 57.68 125.81 L 57.75 126.29 L 57.82 126.75 L 57.89 127.21 L 57.96 127.66 L 58.03 128.1 L 58.1 128.53 L 58.18 128.95 L 58.25 129.37 L 58.32 129.78 L 58.39 130.18 L 58.46 130.57 L 58.53 130.95 L 58.6 131.32 L 58.67 131.69 L 58.74 132.04 L 58.81 132.39 L 58.88 132.73 L 58.95 133.06 L 59.02 133.37 L 59.1 133.68 L 59.17 133.98 L 59.24 134.27 L 59.31 134.55 L 59.38 134.82 L 59.45 135.08 L 59.52 135.33 L 59.59 135.57 L 59.66 135.8 L 59.73 136.02 L 59.8 136.23 L 59.88 136.43 L 59.95 136.62 L 60.02 136.8 L 60.09 136.96 L 60.16 137.12 L 60.23 137.27 L 60.3 137.4 L 60.37 137.53 L 60.44 137.64 L 60.51 137.74 L 60.58 137.84 L 60.65 137.92 L 60.73 137.99 L 60.8 138.05 L 60.87 138.1 L 60.94 138.14 L 61.01 138.16 L 61.08 138.18 L 61.15 138.19 L 61.22 138.18 L 61.29 138.16 L 61.36 138.14 L 61.43 138.1 L 61.5 138.05 L 61.58 137.99 L 61.65 137.92 L 61.72 137.84 L 61.79 137.74 L 61.86 137.64 L 61.93 137.53 L 62 137.4 L 62.07 137.27 L 62.14 137.12 L 62.21 136.96 L 62.28 136.8 L 62.35 136.62 L 62.42 136.43 L 62.5 136.23 L 62.57 136.02 L 62.64 135.8 L 62.71 135.57 L 62.78 135.33 L 62.85 135.08 L 62.92 134.82 L 62.99 134.55 L 63.06 134.27 L 63.13 133.98 L 63.2 133.68 L 63.28 133.37 L 63.35 133.06 L 63.42 132.73 L 63.49 132.39 L 63.56 132.04 L 63.63 131.69 L 63.7 131.32 L 63.77 130.95 L 63.84 130.57 L 63.91 130.18 L 63.98 129.78 L 64.05 129.37 L 64.12 128.95 L 64.2 128.53 L 64.27 128.1 L 64.34 127.66 L 64.41 127.21 L 64.48 126.75 L 64.55 126.29 L 64.62 125.81 L 64.69 125.34 L 64.76 124.85 L 64.83 124.36 L 64.9 123.86 L 64.97 123.35 L 65.05 122.83 L 65.12 122.31 L 65.19 121.79 L 65.26 121.25 L 65.33 120.72 L 65.4 120.17 L 65.47 119.62 L 65.54 119.06 L 65.61 118.5 L 65.68 117.93 L 65.75 117.36 L 65.83 116.78 L 65.9 116.2 L 65.97 115.61 L 66.04 115.02 L 66.11 114.42 L 66.18 113.82 L 66.25 113.21 L 66.32 112.6 L 66.39 111.99 L 66.46 111.37 L 66.53 110.75 L 66.6 110.13 L 66.67 109.5 L 66.75 108.87 L 66.82 108.24 L 66.89 107.6 L 66.96 106.96 L 67.03 106.32 L 67.1 105.67 L 67.17 105.03 L 67.24 104.38 L 67.31 103.73 L 67.38 103.07 L 67.45 102.42 L 67.53 101.76 L 67.6 101.11 L 67.67 100.45 L 67.74 99.79 L 67.81 99.13 L 67.88 98.47 L 67.95 97.8 L 68.02 97.14 L 68.09 96.48 L 68.16 95.82 L 68.23 95.15 L 68.3 94.49 L 68.38 93.83 L 68.45 93.16 L 68.52 92.5 L 68.59 91.84 L 68.66 91.18 L 68.73 90.52 L 68.8 89.86 L 68.87 89.2 L 68.94 88.54 L 69.01 87.88 L 69.08 87.23 L 69.15 86.58 L 69.23 85.92 L 69.3 85.27 L 69.37 84.63 L 69.44 83.98 L 69.51 83.33 L 69.58 82.69 L 69.65 82.05 L 69.72 81.42 L 69.79 80.78 L 69.86 80.15 L 69.93 79.52 L 70 78.89 L 70.08 78.27 L 70.15 77.64 L 70.22 77.03 L 70.29 76.41 L 70.36 75.8 L 70.43 75.19 L 70.5 74.58 L 70.57 73.98 L 70.64 73.38 L 70.71 72.79 L 70.78 72.19 L 70.85 71.61 L 70.92 71.02 L 71 70.44 L 71.07 69.86 L 71.14 69.29 L 71.21 68.72 L 71.28 68.16 L 71.35 67.6 L 71.42 67.04 L 71.49 66.49 L 71.56 65.94 L 71.63 65.4 L 71.7 64.86 L 71.78 64.32 L 71.85 63.79 L 71.92 63.27 L 71.99 62.75 L 72.06 62.23 L 72.13 61.72 L 72.2 61.21 L 72.27 60.71 L 72.34 60.21 L 72.41 59.71 L 72.48 59.23 L 72.55 58.74 L 72.62 58.26 L 72.7 57.79 L 72.77 57.32 L 72.84 56.85 L 72.91 56.39 L 72.98 55.94 L 73.05 55.49 L 73.12 55.04 L 73.19 54.6 L 73.26 54.16 L 73.33 53.73 L 73.4 53.31 L 73.48 52.89 L 73.55 52.47 L 73.62 52.06 L 73.69 51.65 L 73.76 51.25 L 73.83 50.85 L 73.9 50.46 L 73.97 50.07 L 74.04 49.69 L 74.11 49.31 L 74.18 48.94 L 74.25 48.57 L 74.33 48.21 L 74.4 47.85 L 74.47 47.5 L 74.54 47.15 L 74.61 46.81 L 74.68 46.47 L 74.75 46.13 L 74.82 45.8 L 74.89 45.48 L 74.96 45.15 L 75.03 44.84 L 75.1 44.53 L 75.17 44.22 L 75.25 43.92 L 75.32 43.62 L 75.39 43.32 L 75.46 43.04 L 75.53 42.75 L 75.6 42.47 L 75.67 42.19 L 75.74 41.92 L 75.81 41.65 L 75.88 41.39 L 75.95 41.13 L 76.03 40.87 L 76.1 40.62 L 76.17 40.38 L 76.24 40.13 L 76.31 39.89 L 76.38 39.66 L 76.45 39.43 L 76.52 39.2 L 76.59 38.98 L 76.66 38.76 L 76.73 38.54 L 76.8 38.33 L 76.88 38.12 L 76.95 37.92 L 77.02 37.72 L 77.09 37.52 L 77.16 37.32 L 77.23 37.13 L 77.3 36.95 L 77.37 36.76 L 77.44 36.58 L 77.51 36.41 L 77.58 36.23 L 77.65 36.06 L 77.73 35.89 L 77.8 35.73 L 77.87 35.57 L 77.94 35.41 L 78.01 35.26 L 78.08 35.1 L 78.15 34.96 L 78.22 34.81 L 78.29 34.67 L 78.36 34.53 L 78.43 34.39 L 78.5 34.26 L 78.58 34.12 L 78.65 33.99 L 78.72 33.87 L 78.79 33.74 L 78.86 33.62 L 78.93 33.5 L 79 33.39 L 79.07 33.27 L 79.14 33.16 L 79.21 33.05 L 79.28 32.95 L 79.35 32.84 L 79.43 32.74 L 79.5 32.64 L 79.57 32.54 L 79.64 32.44 L 79.71 32.35 L 79.78 32.26 L 79.85 32.17 L 79.92 32.08 L 79.99 32 L 80.06 31.91 L 80.13 31.83 L 80.2 31.75 L 80.28 31.67 L 80.35 31.6 L 80.42 31.52 L 80.49 31.45 L 80.56 31.38 L 80.63 31.31 L 80.7 31.24 L 80.77 31.18 L 80.84 31.11 L 80.91 31.05 L 80.98 30.99 L 81.05 30.93 L 81.12 30.87 L 81.2 30.81 L 81.27 30.76 L 81.34 30.7 L 81.41 30.65 L 81.48 30.6 L 81.55 30.55 L 81.62 30.5 L 81.69 30.45 L 81.76 30.4 L 81.83 30.36 L 81.9 30.31 L 81.98 30.27 L 82.05 30.23 L 82.12 30.19 L 82.19 30.15 L 82.26 30.11 L 82.33 30.07 L 82.4 30.03 L 82.47 30 L 82.54 29.96 L 82.61 29.93 L 82.68 29.89 L 82.75 29.86 L 82.83 29.83 L 82.9 29.8 L 82.97 29.77 L 83.04 29.74 L 83.11 29.71 L 83.18 29.68 L 83.25 29.66 L 83.32 29.63 L 83.39 29.61 L 83.46 29.58 L 83.53 29.56 L 83.6 29.54 L 83.67 29.51 L 83.75 29.49 L 83.82 29.47 L 83.89 29.45 L 83.96 29.43 L 84.03 29.41 L 84.1 29.39 L 84.17 29.37 L 84.24 29.36 L 84.31 29.34 L 84.38 29.32 L 84.45 29.3 L 84.53 29.29 L 84.6 29.27 L 84.67 29.26 L 84.74 29.24 L 84.81 29.23 L 84.88 29.22 L 84.95 29.2 L 85.02 29.19 L 85.09 29.18 L 85.16 29.17 L 85.23 29.15 L 85.3 29.14 L 85.38 29.13 L 85.45 29.12 L 85.52 29.11 L 85.59 29.1 L 85.66 29.09 L 85.73 29.08 L 85.8 29.07 L 85.87 29.06 L 85.94 29.06 L 86.01 29.05 L 86.08 29.04 L 86.15 29.03 L 86.23 29.02 L 86.3 29.02 L 86.37 29.01 L 86.44 29 L 86.51 29 L 86.58 28.99 L 86.65 28.98 L 86.72 28.98 L 86.79 28.97 L 86.86 28.97 L 86.93 28.96 L 87 28.96 L 87.08 28.95 L 87.15 28.95 L 87.22 28.94 L 87.29 28.94 L 87.36 28.93 L 87.43 28.93 L 87.5 28.92 L 87.57 28.92 L 87.64 28.92 L 87.71 28.91 L 87.78 28.91 L 87.85 28.91 L 87.92 28.9 L 88 28.9 L 88.07 28.9 L 88.14 28.89 L 88.21 28.89 L 88.28 28.89 L 88.35 28.89 L 88.42 28.88 L 88.49 28.88 L 88.56 28.88 L 88.63 28.88 L 88.7 28.87 L 88.78 28.87 L 88.85 28.87 L 88.92 28.87 L 88.99 28.87 L 89.06 28.86 L 89.13 28.86 L 89.2 28.86 L 89.27 28.86 L 89.34 28.86 L 89.41 28.85 L 89.48 28.85 "/>
<path transform="matrix(1,0,0,-1,0,144)" stroke-width=".75" stroke-linecap="round" stroke-linejoin="round" fill="none" stroke="#000000" d="M 14.4 28.82 L 320.4 28.82 "/>
<path transform="matrix(1,0,0,-1,0,144)" stroke-width="2.25" stroke-linecap="round" stroke-linejoin="round" fill="none" stroke="#4c721d" d="M 89.48 28.84 L 89.55 28.84 L 89.62 28.84 L 89.7 28.84 L 89.77 28.84 L 89.84 28.84 L 89.91 28.84 L 89.98 28.84 L 90.05 28.84 L 90.12 28.84 L 90.19 28.84 L 90.26 28.84 L 90.33 28.84 L 90.4 28.84 L 90.48 28.84 L 90.55 28.84 L 90.62 28.84 L 90.69 28.84 L 90.76 28.85 L 90.83 28.85 L 90.9 28.85 L 90.97 28.85 L 91.04 28.85 L 91.11 28.85 L 91.18 28.85 L 91.25 28.85 L 91.33 28.85 L 91.4 28.85 L 91.47 28.85 L 91.54 28.85 L 91.61 28.85 L 91.68 28.85 L 91.75 28.85 L 91.82 28.85 L 91.89 28.85 L 91.96 28.85 L 92.03 28.85 L 92.1 28.85 L 92.17 28.85 L 92.25 28.85 L 92.32 28.85 L 92.39 28.85 L 92.46 28.85 L 92.53 28.85 L 92.6 28.85 L 92.67 28.85 L 92.74 28.85 L 92.81 28.85 L 92.88 28.85 L 92.95 28.85 L 93.03 28.85 L 93.1 28.86 L 93.17 28.86 L 93.24 28.86 L 93.31 28.86 L 93.38 28.86 L 93.45 28.86 L 93.52 28.86 L 93.59 28.86 L 93.66 28.86 L 93.73 28.86 L 93.8 28.86 L 93.88 28.86 L 93.95 28.86 L 94.02 28.86 L 94.09 28.86 L 94.16 28.86 L 94.23 28.86 L 94.3 28.86 L 94.37 28.86 L 94.44 28.86 L 94.51 28.86 L 94.58 28.86 L 94.65 28.86 L 94.73 28.86 L 94.8 28.86 L 94.87 28.87 L 94.94 28.87 L 95.01 28.87 L 95.08 28.87 L 95.15 28.87 L 95.22 28.87 L 95.29 28.87 L 95.36 28.87 L 95.43 28.87 L 95.5 28.87 L 95.58 28.87 L 95.65 28.87 L 95.72 28.87 L 95.79 28.87 L 95.86 28.87 L 95.93 28.87 L 96 28.87 L 96.07 28.87 L 96.14 28.87 L 96.21 28.87 L 96.28 28.87 L 96.35 28.87 L 96.43 28.88 L 96.5 28.88 L 96.57 28.88 L 96.64 28.88 L 96.71 28.88 L 96.78 28.88 L 96.85 28.88 L 96.92 28.88 L 96.99 28.88 L 97.06 28.88 L 97.13 28.88 L 97.2 28.88 L 97.28 28.88 L 97.35 28.88 L 97.42 28.88 L 97.49 28.88 L 97.56 28.88 L 97.63 28.88 L 97.7 28.89 L 97.77 28.89 L 97.84 28.89 L 97.91 28.89 L 97.98 28.89 L 98.05 28.89 L 98.12 28.89 L 98.2 28.89 L 98.27 28.89 L 98.34 28.89 L 98.41 28.89 L 98.48 28.89 L 98.55 28.89 L 98.62 28.89 L 98.69 28.89 L 98.76 28.89 L 98.83 28.9 L 98.9 28.9 L 98.97 28.9 L 99.05 28.9 L 99.12 28.9 L 99.19 28.9 L 99.26 28.9 L 99.33 28.9 L 99.4 28.9 L 99.47 28.9 L 99.54 28.9 L 99.61 28.9 L 99.68 28.9 L 99.75 28.9 L 99.82 28.91 L 99.9 28.91 L 99.97 28.91 L 100.04 28.91 L 100.11 28.91 L 100.18 28.91 L 100.25 28.91 L 100.32 28.91 L 100.39 28.91 L 100.46 28.91 L 100.53 28.91 L 100.6 28.91 L 100.68 28.91 L 100.75 28.92 L 100.82 28.92 L 100.89 28.92 L 100.96 28.92 L 101.03 28.92 L 101.1 28.92 L 101.17 28.92 L 101.24 28.92 L 101.31 28.92 L 101.38 28.92 L 101.45 28.92 L 101.53 28.93 L 101.6 28.93 L 101.67 28.93 L 101.74 28.93 L 101.81 28.93 L 101.88 28.93 L 101.95 28.93 L 102.02 28.93 L 102.09 28.93 L 102.16 28.93 L 102.23 28.93 L 102.3 28.94 L 102.38 28.94 L 102.45 28.94 L 102.52 28.94 L 102.59 28.94 L 102.66 28.94 L 102.73 28.94 L 102.8 28.94 L 102.87 28.94 L 102.94 28.94 L 103.01 28.95 L 103.08 28.95 L 103.15 28.95 L 103.23 28.95 L 103.3 28.95 L 103.37 28.95 L 103.44 28.95 L 103.51 28.95 L 103.58 28.95 L 103.65 28.96 L 103.72 28.96 L 103.79 28.96 L 103.86 28.96 L 103.93 28.96 L 104 28.96 L 104.08 28.96 L 104.15 28.96 L 104.22 28.97 L 104.29 28.97 L 104.36 28.97 L 104.43 28.97 L 104.5 28.97 L 104.57 28.97 L 104.64 28.97 L 104.71 28.97 L 104.78 28.97 L 104.85 28.98 L 104.93 28.98 L 105 28.98 L 105.07 28.98 L 105.14 28.98 L 105.21 28.98 L 105.28 28.98 L 105.35 28.99 L 105.42 28.99 L 105.49 28.99 L 105.56 28.99 L 105.63 28.99 L 105.7 28.99 L 105.78 28.99 L 105.85 29 L 105.92 29 L 105.99 29 L 106.06 29 L 106.13 29 L 106.2 29 L 106.27 29 L 106.34 29.01 L 106.41 29.01 L 106.48 29.01 L 106.55 29.01 L 106.63 29.01 L 106.7 29.01 L 106.77 29.01 L 106.84 29.02 L 106.91 29.02 L 106.98 29.02 L 107.05 29.02 L 107.12 29.02 L 107.19 29.02 L 107.26 29.03 L 107.33 29.03 L 107.4 29.03 L 107.48 29.03 L 107.55 29.03 L 107.62 29.03 L 107.69 29.04 L 107.76 29.04 L 107.83 29.04 L 107.9 29.04 L 107.97 29.04 L 108.04 29.04 L 108.11 29.05 L 108.18 29.05 L 108.25 29.05 L 108.33 29.05 L 108.4 29.05 L 108.47 29.05 L 108.54 29.06 L 108.61 29.06 L 108.68 29.06 L 108.75 29.06 L 108.82 29.06 L 108.89 29.07 L 108.96 29.07 L 109.03 29.07 L 109.1 29.07 L 109.18 29.07 L 109.25 29.08 L 109.32 29.08 L 109.39 29.08 L 109.46 29.08 L 109.53 29.08 L 109.6 29.09 L 109.67 29.09 L 109.74 29.09 L 109.81 29.09 L 109.88 29.09 L 109.95 29.1 L 110.03 29.1 L 110.1 29.1 L 110.17 29.1 L 110.24 29.1 L 110.31 29.11 L 110.38 29.11 L 110.45 29.11 L 110.52 29.11 L 110.59 29.12 L 110.66 29.12 L 110.73 29.12 L 110.8 29.12 L 110.88 29.12 L 110.95 29.13 L 111.02 29.13 L 111.09 29.13 L 111.16 29.13 L 111.23 29.14 L 111.3 29.14 L 111.37 29.14 L 111.44 29.14 L 111.51 29.15 L 111.58 29.15 L 111.65 29.15 L 111.73 29.15 L 111.8 29.16 L 111.87 29.16 L 111.94 29.16 L 112.01 29.16 L 112.08 29.17 L 112.15 29.17 L 112.22 29.17 L 112.29 29.17 L 112.36 29.18 L 112.43 29.18 L 112.5 29.18 L 112.58 29.19 L 112.65 29.19 L 112.72 29.19 L 112.79 29.19 L 112.86 29.2 L 112.93 29.2 L 113 29.2 L 113.07 29.2 L 113.14 29.21 L 113.21 29.21 L 113.28 29.21 L 113.35 29.22 L 113.43 29.22 L 113.5 29.22 L 113.57 29.22 L 113.64 29.23 L 113.71 29.23 L 113.78 29.23 L 113.85 29.24 L 113.92 29.24 L 113.99 29.24 L 114.06 29.25 L 114.13 29.25 L 114.2 29.25 L 114.28 29.26 L 114.35 29.26 L 114.42 29.26 L 114.49 29.26 L 114.56 29.27 L 114.63 29.27 L 114.7 29.27 L 114.77 29.28 L 114.84 29.28 L 114.91 29.28 L 114.98 29.29 L 115.05 29.29 L 115.13 29.29 L 115.2 29.3 L 115.27 29.3 L 115.34 29.3 L 115.41 29.31 L 115.48 29.31 L 115.55 29.32 L 115.62 29.32 L 115.69 29.32 L 115.76 29.33 L 115.83 29.33 L 115.9 29.33 L 115.97 29.34 L 116.05 29.34 L 116.12 29.34 L 116.19 29.35 L 116.26 29.35 L 116.33 29.36 L 116.4 29.36 L 116.47 29.36 L 116.54 29.37 L 116.61 29.37 L 116.68 29.37 L 116.75 29.38 L 116.83 29.38 L 116.9 29.39 L 116.97 29.39 L 117.04 29.39 L 117.11 29.4 L 117.18 29.4 L 117.25 29.41 L 117.32 29.41 L 117.39 29.41 L 117.46 29.42 L 117.53 29.42 L 117.6 29.43 L 117.68 29.43 L 117.75 29.44 L 117.82 29.44 L 117.89 29.44 L 117.96 29.45 L 118.03 29.45 L 118.1 29.46 L 118.17 29.46 L 118.24 29.47 L 118.31 29.47 L 118.38 29.48 L 118.45 29.48 L 118.53 29.48 L 118.6 29.49 L 118.67 29.49 L 118.74 29.5 L 118.81 29.5 L 118.88 29.51 L 118.95 29.51 L 119.02 29.52 L 119.09 29.52 L 119.16 29.53 L 119.23 29.53 L 119.3 29.54 L 119.37 29.54 L 119.45 29.55 L 119.52 29.55 L 119.59 29.56 L 119.66 29.56 L 119.73 29.57 L 119.8 29.57 L 119.87 29.58 L 119.94 29.58 L 120.01 29.59 L 120.08 29.59 L 120.15 29.6 L 120.23 29.6 L 120.3 29.61 L 120.37 29.61 L 120.44 29.62 L 120.51 29.62 L 120.58 29.63 L 120.65 29.63 L 120.72 29.64 L 120.79 29.64 L 120.86 29.65 L 120.93 29.65 L 121 29.66 L 121.08 29.67 L 121.15 29.67 L 121.22 29.68 L 121.29 29.68 L 121.36 29.69 L 121.43 29.69 L 121.5 29.7 L 121.57 29.71 L 121.64 29.71 L 121.71 29.72 L 121.78 29.72 L 121.85 29.73 L 121.92 29.74 L 122 29.74 L 122.07 29.75 L 122.14 29.75 L 122.21 29.76 L 122.28 29.77 L 122.35 29.77 L 122.42 29.78 L 122.49 29.78 L 122.56 29.79 L 122.63 29.8 L 122.7 29.8 L 122.78 29.81 L 122.85 29.82 L 122.92 29.82 L 122.99 29.83 L 123.06 29.84 L 123.13 29.84 L 123.2 29.85 L 123.27 29.86 L 123.34 29.86 L 123.41 29.87 L 123.48 29.88 L 123.55 29.88 L 123.63 29.89 L 123.7 29.9 L 123.77 29.9 L 123.84 29.91 L 123.91 29.92 L 123.98 29.92 L 124.05 29.93 L 124.12 29.94 L 124.19 29.94 L 124.26 29.95 L 124.33 29.96 L 124.4 29.97 L 124.48 29.97 L 124.55 29.98 L 124.62 29.99 L 124.69 30 L 124.76 30 L 124.83 30.01 L 124.9 30.02 L 124.97 30.03 L 125.04 30.03 L 125.11 30.04 L 125.18 30.05 L 125.25 30.06 L 125.33 30.06 L 125.4 30.07 L 125.47 30.08 L 125.54 30.09 L 125.61 30.1 L 125.68 30.1 L 125.75 30.11 L 125.82 30.12 L 125.89 30.13 L 125.96 30.14 L 126.03 30.14 L 126.1 30.15 L 126.17 30.16 L 126.25 30.17 L 126.32 30.18 L 126.39 30.18 L 126.46 30.19 L 126.53 30.2 L 126.6 30.21 L 126.67 30.22 L 126.74 30.23 L 126.81 30.24 L 126.88 30.24 L 126.95 30.25 L 127.03 30.26 L 127.1 30.27 L 127.17 30.28 L 127.24 30.29 L 127.31 30.3 L 127.38 30.31 L 127.45 30.32 L 127.52 30.32 L 127.59 30.33 L 127.66 30.34 L 127.73 30.35 L 127.8 30.36 L 127.88 30.37 L 127.95 30.38 L 128.02 30.39 L 128.09 30.4 L 128.16 30.41 L 128.23 30.42 L 128.3 30.43 L 128.37 30.44 L 128.44 30.45 L 128.51 30.46 L 128.58 30.47 L 128.65 30.48 L 128.73 30.48 L 128.8 30.49 L 128.87 30.5 L 128.94 30.51 L 129.01 30.52 L 129.08 30.53 L 129.15 30.55 L 129.22 30.56 L 129.29 30.57 L 129.36 30.58 L 129.43 30.59 L 129.5 30.6 L 129.58 30.61 L 129.65 30.62 L 129.72 30.63 L 129.79 30.64 L 129.86 30.65 L 129.93 30.66 L 130 30.67 L 130.07 30.68 L 130.14 30.69 L 130.21 30.7 L 130.28 30.71 L 130.35 30.72 L 130.43 30.74 L 130.5 30.75 L 130.57 30.76 L 130.64 30.77 L 130.71 30.78 L 130.78 30.79 L 130.85 30.8 L 130.92 30.81 L 130.99 30.83 L 131.06 30.84 L 131.13 30.85 L 131.2 30.86 L 131.28 30.87 L 131.35 30.88 L 131.42 30.9 L 131.49 30.91 L 131.56 30.92 L 131.63 30.93 L 131.7 30.94 L 131.77 30.96 L 131.84 30.97 L 131.91 30.98 L 131.98 30.99 L 132.05 31 L 132.12 31.02 L 132.2 31.03 L 132.27 31.04 L 132.34 31.05 L 132.41 31.07 L 132.48 31.08 L 132.55 31.09 L 132.62 31.1 L 132.69 31.12 L 132.76 31.13 L 132.83 31.14 L 132.9 31.16 L 132.98 31.17 L 133.05 31.18 L 133.12 31.19 L 133.19 31.21 L 133.26 31.22 L 133.33 31.23 L 133.4 31.25 L 133.47 31.26 L 133.54 31.27 L 133.61 31.29 L 133.68 31.3 L 133.75 31.32 L 133.82 31.33 L 133.9 31.34 L 133.97 31.36 L 134.04 31.37 L 134.11 31.38 L 134.18 31.4 L 134.25 31.41 L 134.32 31.43 L 134.39 31.44 L 134.46 31.46 L 134.53 31.47 L 134.6 31.48 L 134.68 31.5 L 134.75 31.51 L 134.82 31.53 L 134.89 31.54 L 134.96 31.56 L 135.03 31.57 L 135.1 31.59 L 135.17 31.6 L 135.24 31.62 L 135.31 31.63 L 135.38 31.65 L 135.45 31.66 L 135.53 31.68 L 135.6 31.69 L 135.67 31.71 L 135.74 31.72 L 135.81 31.74 L 135.88 31.75 L 135.95 31.77 L 136.02 31.78 L 136.09 31.8 L 136.16 31.82 L 136.23 31.83 L 136.3 31.85 L 136.38 31.86 L 136.45 31.88 L 136.52 31.89 L 136.59 31.91 L 136.66 31.93 L 136.73 31.94 L 136.8 31.96 L 136.87 31.98 L 136.94 31.99 L 137.01 32.01 L 137.08 32.03 L 137.15 32.04 L 137.23 32.06 L 137.3 32.08 L 137.37 32.09 L 137.44 32.11 L 137.51 32.13 L 137.58 32.14 L 137.65 32.16 L 137.72 32.18 L 137.79 32.2 L 137.86 32.21 L 137.93 32.23 L 138 32.25 L 138.07 32.26 L 138.15 32.28 L 138.22 32.3 L 138.29 32.32 L 138.36 32.34 L 138.43 32.35 L 138.5 32.37 L 138.57 32.39 L 138.64 32.41 L 138.71 32.43 L 138.78 32.44 L 138.85 32.46 L 138.93 32.48 L 139 32.5 L 139.07 32.52 L 139.14 32.54 L 139.21 32.55 L 139.28 32.57 L 139.35 32.59 L 139.42 32.61 L 139.49 32.63 L 139.56 32.65 L 139.63 32.67 L 139.7 32.69 L 139.78 32.71 L 139.85 32.72 L 139.92 32.74 L 139.99 32.76 L 140.06 32.78 L 140.13 32.8 L 140.2 32.82 L 140.27 32.84 L 140.34 32.86 L 140.41 32.88 L 140.48 32.9 L 140.55 32.92 L 140.62 32.94 L 140.7 32.96 L 140.77 32.98 L 140.84 33 L 140.91 33.02 L 140.98 33.04 L 141.05 33.06 L 141.12 33.08 L 141.19 33.1 L 141.26 33.12 L 141.33 33.15 L 141.4 33.17 L 141.47 33.19 L 141.55 33.21 L 141.62 33.23 L 141.69 33.25 L 141.76 33.27 L 141.83 33.29 L 141.9 33.31 L 141.97 33.34 L 142.04 33.36 L 142.11 33.38 L 142.18 33.4 L 142.25 33.42 L 142.33 33.44 L 142.4 33.47 L 142.47 33.49 L 142.54 33.51 L 142.61 33.53 L 142.68 33.55 L 142.75 33.58 L 142.82 33.6 L 142.89 33.62 L 142.96 33.64 L 143.03 33.67 L 143.1 33.69 L 143.18 33.71 L 143.25 33.73 L 143.32 33.76 L 143.39 33.78 L 143.46 33.8 L 143.53 33.82 L 143.6 33.85 L 143.67 33.87 L 143.74 33.89 L 143.81 33.92 L 143.88 33.94 L 143.95 33.96 L 144.03 33.99 L 144.1 34.01 L 144.17 34.04 L 144.24 34.06 L 144.31 34.08 L 144.38 34.11 L 144.45 34.13 L 144.52 34.15 L 144.59 34.18 L 144.66 34.2 L 144.73 34.23 L 144.8 34.25 L 144.88 34.28 L 144.95 34.3 L 145.02 34.33 L 145.09 34.35 L 145.16 34.38 L 145.23 34.4 L 145.3 34.42 L 145.37 34.45 L 145.44 34.47 L 145.51 34.5 L 145.58 34.53 L 145.65 34.55 L 145.73 34.58 L 145.8 34.6 L 145.87 34.63 L 145.94 34.65 L 146.01 34.68 L 146.08 34.7 L 146.15 34.73 L 146.22 34.76 L 146.29 34.78 L 146.36 34.81 L 146.43 34.83 L 146.5 34.86 L 146.58 34.89 L 146.65 34.91 L 146.72 34.94 L 146.79 34.97 L 146.86 34.99 L 146.93 35.02 L 147 35.05 L 147.07 35.07 L 147.14 35.1 L 147.21 35.13 L 147.28 35.15 L 147.35 35.18 L 147.43 35.21 L 147.5 35.24 L 147.57 35.26 L 147.64 35.29 L 147.71 35.32 L 147.78 35.35 L 147.85 35.37 L 147.92 35.4 L 147.99 35.43 L 148.06 35.46 L 148.13 35.48 L 148.2 35.51 L 148.28 35.54 L 148.35 35.57 L 148.42 35.6 L 148.49 35.63 L 148.56 35.65 L 148.63 35.68 L 148.7 35.71 L 148.77 35.74 L 148.84 35.77 L 148.91 35.8 L 148.98 35.83 L 149.05 35.85 L 149.13 35.88 L 149.2 35.91 L 149.27 35.94 L 149.34 35.97 L 149.41 36 L 149.48 36.03 L 149.55 36.06 L 149.62 36.09 L 149.69 36.12 L 149.76 36.15 L 149.83 36.18 L 149.9 36.21 L 149.98 36.24 L 150.05 36.27 L 150.12 36.3 L 150.19 36.33 L 150.26 36.36 L 150.33 36.39 L 150.4 36.42 L 150.47 36.45 L 150.54 36.48 L 150.61 36.51 L 150.68 36.54 L 150.75 36.57 L 150.83 36.6 L 150.9 36.63 L 150.97 36.66 L 151.04 36.7 L 151.11 36.73 L 151.18 36.76 L 151.25 36.79 L 151.32 36.82 L 151.39 36.85 L 151.46 36.88 L 151.53 36.91 L 151.6 36.95 L 151.68 36.98 L 151.75 37.01 L 151.82 37.04 L 151.89 37.07 L 151.96 37.11 L 152.03 37.14 L 152.1 37.17 L 152.17 37.2 L 152.24 37.23 L 152.31 37.27 L 152.38 37.3 L 152.45 37.33 L 152.53 37.36 L 152.6 37.4 L 152.67 37.43 L 152.74 37.46 L 152.81 37.49 L 152.88 37.53 L 152.95 37.56 L 153.02 37.59 L 153.09 37.63 L 153.16 37.66 L 153.23 37.69 L 153.3 37.73 L 153.38 37.76 L 153.45 37.79 L 153.52 37.83 L 153.59 37.86 L 153.66 37.89 L 153.73 37.93 L 153.8 37.96 L 153.87 38 L 153.94 38.03 L 154.01 38.06 L 154.08 38.1 L 154.15 38.13 L 154.23 38.17 L 154.3 38.2 L 154.37 38.23 L 154.44 38.27 L 154.51 38.3 L 154.58 38.34 L 154.65 38.37 L 154.72 38.41 L 154.79 38.44 L 154.86 38.48 L 154.93 38.51 L 155 38.55 L 155.08 38.58 L 155.15 38.62 L 155.22 38.65 L 155.29 38.69 L 155.36 38.72 L 155.43 38.76 L 155.5 38.79 L 155.57 38.83 L 155.64 38.86 L 155.71 38.9 L 155.78 38.94 L 155.85 38.97 L 155.93 39.01 L 156 39.04 L 156.07 39.08 L 156.14 39.11 L 156.21 39.15 L 156.28 39.19 L 156.35 39.22 L 156.42 39.26 L 156.49 39.3 L 156.56 39.33 L 156.63 39.37 L 156.7 39.4 L 156.78 39.44 L 156.85 39.48 L 156.92 39.51 L 156.99 39.55 L 157.06 39.59 L 157.13 39.62 L 157.2 39.66 L 157.27 39.7 L 157.34 39.73 L 157.41 39.77 L 157.48 39.81 L 157.55 39.85 L 157.62 39.88 L 157.7 39.92 L 157.77 39.96 L 157.84 40 L 157.91 40.03 L 157.98 40.07 L 158.05 40.11 L 158.12 40.15 L 158.19 40.18 L 158.26 40.22 L 158.33 40.26 L 158.4 40.3 L 158.47 40.33 L 158.55 40.37 L 158.62 40.41 L 158.69 40.45 L 158.76 40.49 L 158.83 40.52 L 158.9 40.56 L 158.97 40.6 L 159.04 40.64 L 159.11 40.68 L 159.18 40.71 L 159.25 40.75 L 159.33 40.79 L 159.4 40.83 L 159.47 40.87 L 159.54 40.91 L 159.61 40.95 L 159.68 40.98 L 159.75 41.02 L 159.82 41.06 L 159.89 41.1 L 159.96 41.14 L 160.03 41.18 L 160.1 41.22 L 160.18 41.26 L 160.25 41.3 L 160.32 41.33 L 160.39 41.37 L 160.46 41.41 L 160.53 41.45 L 160.6 41.49 L 160.67 41.53 L 160.74 41.57 L 160.81 41.61 L 160.88 41.65 L 160.95 41.69 L 161.03 41.73 L 161.1 41.77 L 161.17 41.81 L 161.24 41.85 L 161.31 41.89 L 161.38 41.93 L 161.45 41.97 L 161.52 42.01 L 161.59 42.05 L 161.66 42.09 L 161.73 42.13 L 161.8 42.17 L 161.88 42.21 L 161.95 42.25 L 162.02 42.29 L 162.09 42.33 L 162.16 42.37 L 162.23 42.41 L 162.3 42.45 L 162.37 42.49 L 162.44 42.53 L 162.51 42.57 L 162.58 42.61 L 162.65 42.65 L 162.73 42.69 L 162.8 42.73 L 162.87 42.77 L 162.94 42.81 L 163.01 42.85 L 163.08 42.89 L 163.15 42.93 L 163.22 42.97 L 163.29 43.01 L 163.36 43.05 L 163.43 43.09 L 163.5 43.13 L 163.58 43.17 L 163.65 43.22 L 163.72 43.26 L 163.79 43.3 L 163.86 43.34 L 163.93 43.38 L 164 43.42 L 164.07 43.46 L 164.14 43.5 L 164.21 43.54 L 164.28 43.58 L 164.35 43.62 L 164.43 43.67 L 164.5 43.71 L 164.57 43.75 L 164.64 43.79 L 164.71 43.83 L 164.78 43.87 L 164.85 43.91 L 164.92 43.95 L 164.99 43.99 L 165.06 44.04 L 165.13 44.08 L 165.2 44.12 L 165.28 44.16 L 165.35 44.2 L 165.42 44.24 L 165.49 44.28 L 165.56 44.32 L 165.63 44.37 L 165.7 44.41 L 165.77 44.45 L 165.84 44.49 L 165.91 44.53 L 165.98 44.57 L 166.05 44.61 L 166.13 44.65 L 166.2 44.7 L 166.27 44.74 L 166.34 44.78 L 166.41 44.82 L 166.48 44.86 L 166.55 44.9 L 166.62 44.94 L 166.69 44.99 L 166.76 45.03 L 166.83 45.07 L 166.9 45.11 L 166.98 45.15 L 167.05 45.19 L 167.12 45.23 L 167.19 45.28 L 167.26 45.32 L 167.33 45.36 L 167.4 45.4 L 167.47 45.44 L 167.54 45.48 L 167.61 45.53 L 167.68 45.57 L 167.75 45.61 L 167.83 45.65 L 167.9 45.69 L 167.97 45.73 L 168.04 45.77 L 168.11 45.82 L 168.18 45.86 L 168.25 45.9 L 168.32 45.94 L 168.39 45.98 L 168.46 46.02 L 168.53 46.06 L 168.6 46.11 L 168.68 46.15 L 168.75 46.19 L 168.82 46.23 L 168.89 46.27 L 168.96 46.31 L 169.03 46.35 L 169.1 46.39 L 169.17 46.44 L 169.24 46.48 L 169.31 46.52 L 169.38 46.56 L 169.45 46.6 L 169.53 46.64 L 169.6 46.68 L 169.67 46.72 L 169.74 46.77 L 169.81 46.81 L 169.88 46.85 L 169.95 46.89 L 170.02 46.93 L 170.09 46.97 L 170.16 47.01 L 170.23 47.05 L 170.3 47.09 L 170.38 47.14 L 170.45 47.18 L 170.52 47.22 L 170.59 47.26 L 170.66 47.3 L 170.73 47.34 L 170.8 47.38 L 170.87 47.42 L 170.94 47.46 L 171.01 47.5 L 171.08 47.54 L 171.15 47.58 L 171.23 47.63 L 171.3 47.67 L 171.37 47.71 L 171.44 47.75 L 171.51 47.79 L 171.58 47.83 L 171.65 47.87 L 171.72 47.91 L 171.79 47.95 L 171.86 47.99 L 171.93 48.03 L 172 48.07 L 172.07 48.11 L 172.15 48.15 L 172.22 48.19 L 172.29 48.23 L 172.36 48.27 L 172.43 48.31 L 172.5 48.35 L 172.57 48.39 L 172.64 48.43 L 172.71 48.47 L 172.78 48.51 L 172.85 48.55 L 172.93 48.59 L 173 48.63 L 173.07 48.67 L 173.14 48.71 L 173.21 48.75 L 173.28 48.79 L 173.35 48.83 L 173.42 48.87 L 173.49 48.91 L 173.56 48.95 L 173.63 48.99 L 173.7 49.03 L 173.78 49.07 L 173.85 49.11 L 173.92 49.14 L 173.99 49.18 L 174.06 49.22 L 174.13 49.26 L 174.2 49.3 L 174.27 49.34 L 174.34 49.38 L 174.41 49.42 L 174.48 49.46 L 174.55 49.49 L 174.62 49.53 L 174.7 49.57 L 174.77 49.61 L 174.84 49.65 L 174.91 49.69 L 174.98 49.73 L 175.05 49.76 L 175.12 49.8 L 175.19 49.84 L 175.26 49.88 L 175.33 49.92 L 175.4 49.95 L 175.48 49.99 L 175.55 50.03 L 175.62 50.07 L 175.69 50.11 L 175.76 50.14 L 175.83 50.18 L 175.9 50.22 L 175.97 50.26 L 176.04 50.29 L 176.11 50.33 L 176.18 50.37 L 176.25 50.4 L 176.33 50.44 L 176.4 50.48 L 176.47 50.52 L 176.54 50.55 L 176.61 50.59 L 176.68 50.63 L 176.75 50.66 L 176.82 50.7 L 176.89 50.74 L 176.96 50.77 L 177.03 50.81 L 177.1 50.84 L 177.18 50.88 L 177.25 50.92 L 177.32 50.95 L 177.39 50.99 L 177.46 51.02 L 177.53 51.06 L 177.6 51.1 L 177.67 51.13 L 177.74 51.17 L 177.81 51.2 L 177.88 51.24 L 177.95 51.27 L 178.03 51.31 L 178.1 51.34 L 178.17 51.38 L 178.24 51.41 L 178.31 51.45 L 178.38 51.48 L 178.45 51.52 L 178.52 51.55 L 178.59 51.59 L 178.66 51.62 L 178.73 51.66 L 178.8 51.69 L 178.88 51.72 L 178.95 51.76 L 179.02 51.79 L 179.09 51.83 L 179.16 51.86 L 179.23 51.89 L 179.3 51.93 L 179.37 51.96 L 179.44 51.99 L 179.51 52.03 L 179.58 52.06 L 179.65 52.09 L 179.73 52.13 L 179.8 52.16 L 179.87 52.19 L 179.94 52.22 L 180.01 52.26 L 180.08 52.29 L 180.15 52.32 L 180.22 52.35 L 180.29 52.39 L 180.36 52.42 L 180.43 52.45 L 180.5 52.48 L 180.58 52.51 L 180.65 52.54 L 180.72 52.58 L 180.79 52.61 L 180.86 52.64 L 180.93 52.67 L 181 52.7 L 181.07 52.73 L 181.14 52.76 L 181.21 52.79 L 181.28 52.82 L 181.35 52.86 L 181.43 52.89 L 181.5 52.92 L 181.57 52.95 L 181.64 52.98 L 181.71 53.01 L 181.78 53.04 L 181.85 53.07 L 181.92 53.1 L 181.99 53.13 L 182.06 53.15 L 182.13 53.18 L 182.2 53.21 L 182.28 53.24 L 182.35 53.27 L 182.42 53.3 L 182.49 53.33 L 182.56 53.36 L 182.63 53.39 L 182.7 53.41 L 182.77 53.44 L 182.84 53.47 L 182.91 53.5 L 182.98 53.53 L 183.05 53.55 L 183.13 53.58 L 183.2 53.61 L 183.27 53.64 L 183.34 53.66 L 183.41 53.69 L 183.48 53.72 L 183.55 53.74 L 183.62 53.77 L 183.69 53.8 L 183.76 53.82 L 183.83 53.85 L 183.9 53.88 L 183.97 53.9 L 184.05 53.93 L 184.12 53.95 L 184.19 53.98 L 184.26 54.01 L 184.33 54.03 L 184.4 54.06 L 184.47 54.08 L 184.54 54.11 L 184.61 54.13 L 184.68 54.16 L 184.75 54.18 L 184.83 54.21 L 184.9 54.23 L 184.97 54.25 L 185.04 54.28 L 185.11 54.3 L 185.18 54.33 L 185.25 54.35 L 185.32 54.37 L 185.39 54.4 L 185.46 54.42 L 185.53 54.44 L 185.6 54.47 L 185.68 54.49 L 185.75 54.51 L 185.82 54.53 L 185.89 54.56 L 185.96 54.58 L 186.03 54.6 L 186.1 54.62 L 186.17 54.65 L 186.24 54.67 L 186.31 54.69 L 186.38 54.71 L 186.45 54.73 L 186.53 54.75 L 186.6 54.77 L 186.67 54.79 L 186.74 54.82 L 186.81 54.84 L 186.88 54.86 L 186.95 54.88 L 187.02 54.9 L 187.09 54.92 L 187.16 54.94 L 187.23 54.96 L 187.3 54.98 L 187.38 54.99 L 187.45 55.01 L 187.52 55.03 L 187.59 55.05 L 187.66 55.07 L 187.73 55.09 L 187.8 55.11 L 187.87 55.13 L 187.94 55.14 L 188.01 55.16 L 188.08 55.18 L 188.15 55.2 L 188.22 55.22 L 188.3 55.23 L 188.37 55.25 L 188.44 55.27 L 188.51 55.28 L 188.58 55.3 L 188.65 55.32 L 188.72 55.33 L 188.79 55.35 L 188.86 55.37 L 188.93 55.38 L 189 55.4 L 189.08 55.41 L 189.15 55.43 L 189.22 55.45 L 189.29 55.46 L 189.36 55.48 L 189.43 55.49 L 189.5 55.51 L 189.57 55.52 L 189.64 55.53 L 189.71 55.55 L 189.78 55.56 L 189.85 55.58 L 189.92 55.59 L 190 55.6 L 190.07 55.62 L 190.14 55.63 L 190.21 55.64 L 190.28 55.66 L 190.35 55.67 L 190.42 55.68 L 190.49 55.7 L 190.56 55.71 L 190.63 55.72 L 190.7 55.73 L 190.78 55.74 L 190.85 55.76 L 190.92 55.77 L 190.99 55.78 L 191.06 55.79 L 191.13 55.8 L 191.2 55.81 L 191.27 55.82 L 191.34 55.83 L 191.41 55.84 L 191.48 55.85 L 191.55 55.86 L 191.63 55.87 L 191.7 55.88 L 191.77 55.89 L 191.84 55.9 L 191.91 55.91 L 191.98 55.92 L 192.05 55.93 L 192.12 55.94 L 192.19 55.95 L 192.26 55.95 L 192.33 55.96 L 192.4 55.97 L 192.47 55.98 L 192.55 55.99 L 192.62 55.99 L 192.69 56 L 192.76 56.01 L 192.83 56.02 L 192.9 56.02 L 192.97 56.03 L 193.04 56.04 L 193.11 56.04 L 193.18 56.05 L 193.25 56.05 L 193.33 56.06 L 193.4 56.07 L 193.47 56.07 L 193.54 56.08 L 193.61 56.08 L 193.68 56.09 L 193.75 56.09 L 193.82 56.1 L 193.89 56.1 L 193.96 56.11 L 194.03 56.11 L 194.1 56.11 L 194.18 56.12 L 194.25 56.12 L 194.32 56.12 L 194.39 56.13 L 194.46 56.13 L 194.53 56.13 L 194.6 56.14 L 194.67 56.14 L 194.74 56.14 L 194.81 56.14 L 194.88 56.15 L 194.95 56.15 L 195.03 56.15 L 195.1 56.15 L 195.17 56.15 L 195.24 56.15 L 195.31 56.16 L 195.38 56.16 L 195.45 56.16 L 195.52 56.16 L 195.59 56.16 L 195.66 56.16 L 195.73 56.16 L 195.8 56.16 L 195.88 56.16 L 195.95 56.16 L 196.02 56.16 L 196.09 56.16 L 196.16 56.16 L 196.23 56.15 L 196.3 56.15 L 196.37 56.15 L 196.44 56.15 L 196.51 56.15 L 196.58 56.15 L 196.65 56.14 L 196.73 56.14 L 196.8 56.14 L 196.87 56.14 L 196.94 56.13 L 197.01 56.13 L 197.08 56.13 L 197.15 56.12 L 197.22 56.12 L 197.29 56.12 L 197.36 56.11 L 197.43 56.11 L 197.5 56.11 L 197.58 56.1 L 197.65 56.1 L 197.72 56.09 L 197.79 56.09 L 197.86 56.08 L 197.93 56.08 L 198 56.07 L 198.07 56.07 L 198.14 56.06 L 198.21 56.05 L 198.28 56.05 L 198.35 56.04 L 198.43 56.04 L 198.5 56.03 L 198.57 56.02 L 198.64 56.02 L 198.71 56.01 L 198.78 56 L 198.85 55.99 L 198.92 55.99 L 198.99 55.98 L 199.06 55.97 L 199.13 55.96 L 199.2 55.95 L 199.28 55.95 L 199.35 55.94 L 199.42 55.93 L 199.49 55.92 L 199.56 55.91 L 199.63 55.9 L 199.7 55.89 L 199.77 55.88 L 199.84 55.87 L 199.91 55.86 L 199.98 55.85 L 200.05 55.84 L 200.13 55.83 L 200.2 55.82 L 200.27 55.81 L 200.34 55.8 L 200.41 55.79 L 200.48 55.78 L 200.55 55.77 L 200.62 55.76 L 200.69 55.74 L 200.76 55.73 L 200.83 55.72 L 200.9 55.71 L 200.98 55.7 L 201.05 55.68 L 201.12 55.67 L 201.19 55.66 L 201.26 55.64 L 201.33 55.63 L 201.4 55.62 L 201.47 55.6 L 201.54 55.59 L 201.61 55.58 L 201.68 55.56 L 201.75 55.55 L 201.82 55.53 L 201.9 55.52 L 201.97 55.51 L 202.04 55.49 L 202.11 55.48 L 202.18 55.46 L 202.25 55.45 L 202.32 55.43 L 202.39 55.41 L 202.46 55.4 L 202.53 55.38 L 202.6 55.37 L 202.68 55.35 L 202.75 55.33 L 202.82 55.32 L 202.89 55.3 L 202.96 55.28 L 203.03 55.27 L 203.1 55.25 L 203.17 55.23 L 203.24 55.22 L 203.31 55.2 L 203.38 55.18 L 203.45 55.16 L 203.53 55.14 L 203.6 55.13 L 203.67 55.11 L 203.74 55.09 L 203.81 55.07 L 203.88 55.05 L 203.95 55.03 L 204.02 55.01 L 204.09 54.99 L 204.16 54.98 L 204.23 54.96 L 204.3 54.94 L 204.38 54.92 L 204.45 54.9 L 204.52 54.88 L 204.59 54.86 L 204.66 54.84 L 204.73 54.82 L 204.8 54.79 L 204.87 54.77 L 204.94 54.75 L 205.01 54.73 L 205.08 54.71 L 205.15 54.69 L 205.23 54.67 L 205.3 54.65 L 205.37 54.62 L 205.44 54.6 L 205.51 54.58 L 205.58 54.56 L 205.65 54.53 L 205.72 54.51 L 205.79 54.49 L 205.86 54.47 L 205.93 54.44 L 206 54.42 L 206.08 54.4 L 206.15 54.37 L 206.22 54.35 L 206.29 54.33 L 206.36 54.3 L 206.43 54.28 L 206.5 54.25 L 206.57 54.23 L 206.64 54.21 L 206.71 54.18 L 206.78 54.16 L 206.85 54.13 L 206.93 54.11 L 207 54.08 L 207.07 54.06 L 207.14 54.03 L 207.21 54.01 L 207.28 53.98 L 207.35 53.95 L 207.42 53.93 L 207.49 53.9 L 207.56 53.88 L 207.63 53.85 L 207.7 53.82 L 207.78 53.8 L 207.85 53.77 L 207.92 53.74 L 207.99 53.72 L 208.06 53.69 L 208.13 53.66 L 208.2 53.64 L 208.27 53.61 L 208.34 53.58 L 208.41 53.55 L 208.48 53.53 L 208.55 53.5 L 208.63 53.47 L 208.7 53.44 L 208.77 53.41 L 208.84 53.39 L 208.91 53.36 L 208.98 53.33 L 209.05 53.3 L 209.12 53.27 L 209.19 53.24 L 209.26 53.21 L 209.33 53.18 L 209.4 53.15 L 209.48 53.13 L 209.55 53.1 L 209.62 53.07 L 209.69 53.04 L 209.76 53.01 L 209.83 52.98 L 209.9 52.95 L 209.97 52.92 L 210.04 52.89 L 210.11 52.86 L 210.18 52.82 L 210.25 52.79 L 210.33 52.76 L 210.4 52.73 L 210.47 52.7 L 210.54 52.67 L 210.61 52.64 L 210.68 52.61 L 210.75 52.58 L 210.82 52.54 L 210.89 52.51 L 210.96 52.48 L 211.03 52.45 L 211.1 52.42 L 211.18 52.39 L 211.25 52.35 L 211.32 52.32 L 211.39 52.29 L 211.46 52.26 L 211.53 52.22 L 211.6 52.19 L 211.67 52.16 L 211.74 52.13 L 211.81 52.09 L 211.88 52.06 L 211.95 52.03 L 212.03 51.99 L 212.1 51.96 L 212.17 51.93 L 212.24 51.89 L 212.31 51.86 L 212.38 51.83 L 212.45 51.79 L 212.52 51.76 L 212.59 51.72 L 212.66 51.69 L 212.73 51.66 L 212.8 51.62 L 212.88 51.59 L 212.95 51.55 L 213.02 51.52 L 213.09 51.48 L 213.16 51.45 L 213.23 51.41 L 213.3 51.38 L 213.37 51.34 L 213.44 51.31 L 213.51 51.27 L 213.58 51.24 L 213.65 51.2 L 213.72 51.17 L 213.8 51.13 L 213.87 51.1 L 213.94 51.06 L 214.01 51.02 L 214.08 50.99 L 214.15 50.95 L 214.22 50.92 L 214.29 50.88 L 214.36 50.84 L 214.43 50.81 L 214.5 50.77 L 214.58 50.74 L 214.65 50.7 L 214.72 50.66 L 214.79 50.63 L 214.86 50.59 L 214.93 50.55 L 215 50.52 L 215.07 50.48 L 215.14 50.44 L 215.21 50.4 L 215.28 50.37 L 215.35 50.33 L 215.43 50.29 L 215.5 50.26 L 215.57 50.22 L 215.64 50.18 L 215.71 50.14 L 215.78 50.11 L 215.85 50.07 L 215.92 50.03 L 215.99 49.99 L 216.06 49.95 L 216.13 49.92 L 216.2 49.88 L 216.28 49.84 L 216.35 49.8 L 216.42 49.76 L 216.49 49.73 L 216.56 49.69 L 216.63 49.65 L 216.7 49.61 L 216.77 49.57 L 216.84 49.53 L 216.91 49.49 L 216.98 49.46 L 217.05 49.42 L 217.13 49.38 L 217.2 49.34 L 217.27 49.3 L 217.34 49.26 L 217.41 49.22 L 217.48 49.18 L 217.55 49.14 L 217.62 49.11 L 217.69 49.07 L 217.76 49.03 L 217.83 48.99 L 217.9 48.95 L 217.98 48.91 L 218.05 48.87 L 218.12 48.83 L 218.19 48.79 L 218.26 48.75 L 218.33 48.71 L 218.4 48.67 L 218.47 48.63 L 218.54 48.59 L 218.61 48.55 L 218.68 48.51 L 218.75 48.47 L 218.83 48.43 L 218.9 48.39 L 218.97 48.35 L 219.04 48.31 L 219.11 48.27 L 219.18 48.23 L 219.25 48.19 L 219.32 48.15 L 219.39 48.11 L 219.46 48.07 L 219.53 48.03 L 219.6 47.99 L 219.67 47.95 L 219.75 47.91 L 219.82 47.87 L 219.89 47.83 L 219.96 47.79 L 220.03 47.75 L 220.1 47.71 L 220.17 47.67 L 220.24 47.63 L 220.31 47.58 L 220.38 47.54 L 220.45 47.5 L 220.53 47.46 L 220.6 47.42 L 220.67 47.38 L 220.74 47.34 L 220.81 47.3 L 220.88 47.26 L 220.95 47.22 L 221.02 47.18 L 221.09 47.14 L 221.16 47.09 L 221.23 47.05 L 221.3 47.01 L 221.38 46.97 L 221.45 46.93 L 221.52 46.89 L 221.59 46.85 L 221.66 46.81 L 221.73 46.77 L 221.8 46.72 L 221.87 46.68 L 221.94 46.64 L 222.01 46.6 L 222.08 46.56 L 222.15 46.52 L 222.23 46.48 L 222.3 46.44 L 222.37 46.39 L 222.44 46.35 L 222.51 46.31 L 222.58 46.27 L 222.65 46.23 L 222.72 46.19 L 222.79 46.15 L 222.86 46.11 L 222.93 46.06 L 223 46.02 L 223.08 45.98 L 223.15 45.94 L 223.22 45.9 L 223.29 45.86 L 223.36 45.82 L 223.43 45.77 L 223.5 45.73 L 223.57 45.69 L 223.64 45.65 L 223.71 45.61 L 223.78 45.57 L 223.85 45.53 L 223.93 45.48 L 224 45.44 L 224.07 45.4 L 224.14 45.36 L 224.21 45.32 L 224.28 45.28 L 224.35 45.23 L 224.42 45.19 L 224.49 45.15 L 224.56 45.11 L 224.63 45.07 L 224.7 45.03 L 224.78 44.99 L 224.85 44.94 L 224.92 44.9 L 224.99 44.86 L 225.06 44.82 L 225.13 44.78 L 225.2 44.74 L 225.27 44.7 L 225.34 44.65 L 225.41 44.61 L 225.48 44.57 L 225.55 44.53 L 225.62 44.49 L 225.7 44.45 L 225.77 44.41 L 225.84 44.37 L 225.91 44.32 L 225.98 44.28 L 226.05 44.24 L 226.12 44.2 L 226.19 44.16 L 226.26 44.12 L 226.33 44.08 L 226.4 44.04 L 226.48 43.99 L 226.55 43.95 L 226.62 43.91 L 226.69 43.87 L 226.76 43.83 L 226.83 43.79 L 226.9 43.75 L 226.97 43.71 L 227.04 43.67 L 227.11 43.62 L 227.18 43.58 L 227.25 43.54 L 227.33 43.5 L 227.4 43.46 L 227.47 43.42 L 227.54 43.38 L 227.61 43.34 L 227.68 43.3 L 227.75 43.26 L 227.82 43.22 L 227.89 43.17 L 227.96 43.13 L 228.03 43.09 L 228.1 43.05 L 228.18 43.01 L 228.25 42.97 L 228.32 42.93 L 228.39 42.89 L 228.46 42.85 L 228.53 42.81 L 228.6 42.77 L 228.67 42.73 L 228.74 42.69 L 228.81 42.65 L 228.88 42.61 L 228.95 42.57 L 229.03 42.53 L 229.1 42.49 L 229.17 42.45 L 229.24 42.41 L 229.31 42.37 L 229.38 42.33 L 229.45 42.29 L 229.52 42.25 L 229.59 42.21 L 229.66 42.17 L 229.73 42.13 L 229.8 42.09 L 229.88 42.05 L 229.95 42.01 L 230.02 41.97 L 230.09 41.93 L 230.16 41.89 L 230.23 41.85 L 230.3 41.81 L 230.37 41.77 L 230.44 41.73 L 230.51 41.69 L 230.58 41.65 L 230.65 41.61 L 230.73 41.57 L 230.8 41.53 L 230.87 41.49 L 230.94 41.45 L 231.01 41.41 L 231.08 41.37 L 231.15 41.33 L 231.22 41.3 L 231.29 41.26 L 231.36 41.22 L 231.43 41.18 L 231.5 41.14 L 231.58 41.1 L 231.65 41.06 L 231.72 41.02 L 231.79 40.98 L 231.86 40.95 L 231.93 40.91 L 232 40.87 L 232.07 40.83 L 232.14 40.79 L 232.21 40.75 L 232.28 40.71 L 232.35 40.68 L 232.43 40.64 L 232.5 40.6 L 232.57 40.56 L 232.64 40.52 L 232.71 40.49 L 232.78 40.45 L 232.85 40.41 L 232.92 40.37 L 232.99 40.33 L 233.06 40.3 L 233.13 40.26 L 233.2 40.22 L 233.28 40.18 L 233.35 40.15 L 233.42 40.11 L 233.49 40.07 L 233.56 40.03 L 233.63 40 L 233.7 39.96 L 233.77 39.92 L 233.84 39.88 L 233.91 39.85 L 233.98 39.81 L 234.05 39.77 L 234.13 39.73 L 234.2 39.7 L 234.27 39.66 L 234.34 39.62 L 234.41 39.59 L 234.48 39.55 L 234.55 39.51 L 234.62 39.48 L 234.69 39.44 L 234.76 39.4 L 234.83 39.37 L 234.9 39.33 L 234.98 39.3 L 235.05 39.26 L 235.12 39.22 L 235.19 39.19 L 235.26 39.15 L 235.33 39.11 L 235.4 39.08 L 235.47 39.04 L 235.54 39.01 L 235.61 38.97 L 235.68 38.94 L 235.75 38.9 L 235.83 38.86 L 235.9 38.83 L 235.97 38.79 L 236.04 38.76 L 236.11 38.72 L 236.18 38.69 L 236.25 38.65 L 236.32 38.62 L 236.39 38.58 L 236.46 38.55 L 236.53 38.51 L 236.6 38.48 L 236.68 38.44 L 236.75 38.41 L 236.82 38.37 L 236.89 38.34 L 236.96 38.3 L 237.03 38.27 L 237.1 38.23 L 237.17 38.2 L 237.24 38.17 L 237.31 38.13 L 237.38 38.1 L 237.45 38.06 L 237.53 38.03 L 237.6 38 L 237.67 37.96 L 237.74 37.93 L 237.81 37.89 L 237.88 37.86 L 237.95 37.83 L 238.02 37.79 L 238.09 37.76 L 238.16 37.73 L 238.23 37.69 L 238.3 37.66 L 238.38 37.63 L 238.45 37.59 L 238.52 37.56 L 238.59 37.53 L 238.66 37.49 L 238.73 37.46 L 238.8 37.43 L 238.87 37.4 L 238.94 37.36 L 239.01 37.33 L 239.08 37.3 L 239.15 37.27 L 239.23 37.23 L 239.3 37.2 L 239.37 37.17 L 239.44 37.14 L 239.51 37.11 L 239.58 37.07 L 239.65 37.04 L 239.72 37.01 L 239.79 36.98 L 239.86 36.95 L 239.93 36.91 L 240 36.88 L 240.08 36.85 L 240.15 36.82 L 240.22 36.79 L 240.29 36.76 L 240.36 36.73 L 240.43 36.7 L 240.5 36.66 L 240.57 36.63 L 240.64 36.6 L 240.71 36.57 L 240.78 36.54 L 240.85 36.51 L 240.93 36.48 L 241 36.45 L 241.07 36.42 L 241.14 36.39 L 241.21 36.36 L 241.28 36.33 L 241.35 36.3 L 241.42 36.27 L 241.49 36.24 L 241.56 36.21 L 241.63 36.18 L 241.7 36.15 L 241.78 36.12 L 241.85 36.09 L 241.92 36.06 L 241.99 36.03 L 242.06 36 L 242.13 35.97 L 242.2 35.94 L 242.27 35.91 L 242.34 35.88 L 242.41 35.85 L 242.48 35.83 L 242.55 35.8 L 242.62 35.77 L 242.7 35.74 L 242.77 35.71 L 242.84 35.68 L 242.91 35.65 L 242.98 35.63 L 243.05 35.6 L 243.12 35.57 L 243.19 35.54 L 243.26 35.51 L 243.33 35.48 L 243.4 35.46 L 243.48 35.43 L 243.55 35.4 L 243.62 35.37 L 243.69 35.35 L 243.76 35.32 L 243.83 35.29 L 243.9 35.26 L 243.97 35.24 L 244.04 35.21 L 244.11 35.18 L 244.18 35.15 L 244.25 35.13 L 244.33 35.1 L 244.4 35.07 L 244.47 35.05 L 244.54 35.02 L 244.61 34.99 L 244.68 34.97 L 244.75 34.94 L 244.82 34.91 L 244.89 34.89 L 244.96 34.86 L 245.03 34.83 L 245.1 34.81 L 245.18 34.78 L 245.25 34.76 L 245.32 34.73 L 245.39 34.7 L 245.46 34.68 L 245.53 34.65 L 245.6 34.63 L 245.67 34.6 L 245.74 34.58 L 245.81 34.55 L 245.88 34.53 L 245.95 34.5 L 246.03 34.47 L 246.1 34.45 L 246.17 34.42 L 246.24 34.4 L 246.31 34.38 L 246.38 34.35 L 246.45 34.33 L 246.52 34.3 L 246.59 34.28 L 246.66 34.25 L 246.73 34.23 L 246.8 34.2 L 246.88 34.18 L 246.95 34.15 L 247.02 34.13 L 247.09 34.11 L 247.16 34.08 L 247.23 34.06 L 247.3 34.04 L 247.37 34.01 L 247.44 33.99 L 247.51 33.96 L 247.58 33.94 L 247.65 33.92 L 247.73 33.89 L 247.8 33.87 L 247.87 33.85 L 247.94 33.82 L 248.01 33.8 L 248.08 33.78 L 248.15 33.76 L 248.22 33.73 L 248.29 33.71 L 248.36 33.69 L 248.43 33.67 L 248.5 33.64 L 248.58 33.62 L 248.65 33.6 L 248.72 33.58 L 248.79 33.55 L 248.86 33.53 L 248.93 33.51 L 249 33.49 L 249.07 33.47 L 249.14 33.44 L 249.21 33.42 L 249.28 33.4 L 249.35 33.38 L 249.43 33.36 L 249.5 33.34 L 249.57 33.31 L 249.64 33.29 L 249.71 33.27 L 249.78 33.25 L 249.85 33.23 L 249.92 33.21 L 249.99 33.19 L 250.06 33.17 L 250.13 33.15 L 250.2 33.12 L 250.28 33.1 L 250.35 33.08 L 250.42 33.06 L 250.49 33.04 L 250.56 33.02 L 250.63 33 L 250.7 32.98 L 250.77 32.96 L 250.84 32.94 L 250.91 32.92 L 250.98 32.9 L 251.05 32.88 L 251.13 32.86 L 251.2 32.84 L 251.27 32.82 L 251.34 32.8 L 251.41 32.78 L 251.48 32.76 L 251.55 32.74 L 251.62 32.72 L 251.69 32.71 L 251.76 32.69 L 251.83 32.67 L 251.9 32.65 L 251.98 32.63 L 252.05 32.61 L 252.12 32.59 L 252.19 32.57 L 252.26 32.55 L 252.33 32.54 L 252.4 32.52 L 252.47 32.5 L 252.54 32.48 L 252.61 32.46 L 252.68 32.44 L 252.75 32.43 L 252.83 32.41 L 252.9 32.39 L 252.97 32.37 L 253.04 32.35 L 253.11 32.34 L 253.18 32.32 L 253.25 32.3 L 253.32 32.28 L 253.39 32.26 L 253.46 32.25 L 253.53 32.23 L 253.6 32.21 L 253.68 32.2 L 253.75 32.18 L 253.82 32.16 L 253.89 32.14 L 253.96 32.13 L 254.03 32.11 L 254.1 32.09 L 254.17 32.08 L 254.24 32.06 L 254.31 32.04 L 254.38 32.03 L 254.45 32.01 L 254.53 31.99 L 254.6 31.98 L 254.67 31.96 L 254.74 31.94 L 254.81 31.93 L 254.88 31.91 L 254.95 31.89 L 255.02 31.88 L 255.09 31.86 L 255.16 31.85 L 255.23 31.83 L 255.3 31.82 L 255.38 31.8 L 255.45 31.78 L 255.52 31.77 L 255.59 31.75 L 255.66 31.74 L 255.73 31.72 L 255.8 31.71 L 255.87 31.69 L 255.94 31.68 L 256.01 31.66 L 256.08 31.65 L 256.15 31.63 L 256.23 31.62 L 256.3 31.6 L 256.37 31.59 L 256.44 31.57 L 256.51 31.56 L 256.58 31.54 L 256.65 31.53 L 256.72 31.51 L 256.79 31.5 L 256.86 31.48 L 256.93 31.47 L 257 31.46 L 257.08 31.44 L 257.15 31.43 L 257.22 31.41 L 257.29 31.4 L 257.36 31.38 L 257.43 31.37 L 257.5 31.36 L 257.57 31.34 L 257.64 31.33 L 257.71 31.32 L 257.78 31.3 L 257.85 31.29 L 257.93 31.27 L 258 31.26 L 258.07 31.25 L 258.14 31.23 L 258.21 31.22 L 258.28 31.21 L 258.35 31.19 L 258.42 31.18 L 258.49 31.17 L 258.56 31.16 L 258.63 31.14 L 258.7 31.13 L 258.78 31.12 L 258.85 31.1 L 258.92 31.09 L 258.99 31.08 L 259.06 31.07 L 259.13 31.05 L 259.2 31.04 L 259.27 31.03 L 259.34 31.02 L 259.41 31 L 259.48 30.99 L 259.55 30.98 L 259.62 30.97 L 259.7 30.96 L 259.77 30.94 L 259.84 30.93 L 259.91 30.92 L 259.98 30.91 L 260.05 30.9 L 260.12 30.88 L 260.19 30.87 L 260.26 30.86 L 260.33 30.85 L 260.4 30.84 L 260.48 30.83 L 260.55 30.81 L 260.62 30.8 L 260.69 30.79 L 260.76 30.78 L 260.83 30.77 L 260.9 30.76 L 260.97 30.75 L 261.04 30.74 L 261.11 30.72 L 261.18 30.71 L 261.25 30.7 L 261.33 30.69 L 261.4 30.68 L 261.47 30.67 L 261.54 30.66 L 261.61 30.65 L 261.68 30.64 L 261.75 30.63 L 261.82 30.62 L 261.89 30.61 L 261.96 30.6 L 262.03 30.59 L 262.1 30.58 L 262.18 30.57 L 262.25 30.56 L 262.32 30.55 L 262.39 30.53 L 262.46 30.52 L 262.53 30.51 L 262.6 30.5 L 262.67 30.49 L 262.74 30.48 L 262.81 30.48 L 262.88 30.47 L 262.95 30.46 L 263.03 30.45 L 263.1 30.44 L 263.17 30.43 L 263.24 30.42 L 263.31 30.41 L 263.38 30.4 L 263.45 30.39 L 263.52 30.38 L 263.59 30.37 L 263.66 30.36 L 263.73 30.35 L 263.8 30.34 L 263.88 30.33 L 263.95 30.32 L 264.02 30.32 L 264.09 30.31 L 264.16 30.3 L 264.23 30.29 L 264.3 30.28 L 264.37 30.27 L 264.44 30.26 L 264.51 30.25 L 264.58 30.24 L 264.65 30.24 L 264.73 30.23 L 264.8 30.22 L 264.87 30.21 L 264.94 30.2 L 265.01 30.19 L 265.08 30.18 L 265.15 30.18 L 265.22 30.17 L 265.29 30.16 L 265.36 30.15 L 265.43 30.14 L 265.5 30.14 L 265.58 30.13 L 265.65 30.12 L 265.72 30.11 L 265.79 30.1 L 265.86 30.1 L 265.93 30.09 L 266 30.08 L 266.07 30.07 L 266.14 30.06 L 266.21 30.06 L 266.28 30.05 L 266.35 30.04 L 266.43 30.03 L 266.5 30.03 L 266.57 30.02 L 266.64 30.01 L 266.71 30 L 266.78 30 L 266.85 29.99 L 266.92 29.98 L 266.99 29.97 L 267.06 29.97 L 267.13 29.96 L 267.2 29.95 L 267.28 29.94 L 267.35 29.94 L 267.42 29.93 L 267.49 29.92 L 267.56 29.92 L 267.63 29.91 L 267.7 29.9 L 267.77 29.9 L 267.84 29.89 L 267.91 29.88 L 267.98 29.88 L 268.05 29.87 L 268.12 29.86 L 268.2 29.86 L 268.27 29.85 L 268.34 29.84 L 268.41 29.84 L 268.48 29.83 L 268.55 29.82 L 268.62 29.82 L 268.69 29.81 L 268.76 29.8 L 268.83 29.8 L 268.9 29.79 L 268.98 29.78 L 269.05 29.78 L 269.12 29.77 L 269.19 29.77 L 269.26 29.76 L 269.33 29.75 L 269.4 29.75 L 269.47 29.74 L 269.54 29.74 L 269.61 29.73 L 269.68 29.72 L 269.75 29.72 L 269.83 29.71 L 269.9 29.71 L 269.97 29.7 L 270.04 29.69 L 270.11 29.69 L 270.18 29.68 L 270.25 29.68 L 270.32 29.67 L 270.39 29.67 L 270.46 29.66 L 270.53 29.65 L 270.6 29.65 L 270.68 29.64 L 270.75 29.64 L 270.82 29.63 L 270.89 29.63 L 270.96 29.62 L 271.03 29.62 L 271.1 29.61 L 271.17 29.61 L 271.24 29.6 L 271.31 29.6 L 271.38 29.59 L 271.45 29.59 L 271.53 29.58 L 271.6 29.58 L 271.67 29.57 L 271.74 29.57 L 271.81 29.56 L 271.88 29.56 L 271.95 29.55 L 272.02 29.55 L 272.09 29.54 L 272.16 29.54 L 272.23 29.53 L 272.3 29.53 L 272.38 29.52 L 272.45 29.52 L 272.52 29.51 L 272.59 29.51 L 272.66 29.5 L 272.73 29.5 L 272.8 29.49 L 272.87 29.49 L 272.94 29.48 L 273.01 29.48 L 273.08 29.48 L 273.15 29.47 L 273.23 29.47 L 273.3 29.46 L 273.37 29.46 L 273.44 29.45 L 273.51 29.45 L 273.58 29.44 L 273.65 29.44 L 273.72 29.44 L 273.79 29.43 L 273.86 29.43 L 273.93 29.42 L 274 29.42 L 274.08 29.41 L 274.15 29.41 L 274.22 29.41 L 274.29 29.4 L 274.36 29.4 L 274.43 29.39 L 274.5 29.39 L 274.57 29.39 L 274.64 29.38 L 274.71 29.38 L 274.78 29.37 L 274.85 29.37 L 274.93 29.37 L 275 29.36 L 275.07 29.36 L 275.14 29.36 L 275.21 29.35 L 275.28 29.35 L 275.35 29.34 L 275.42 29.34 L 275.49 29.34 L 275.56 29.33 L 275.63 29.33 L 275.7 29.33 L 275.78 29.32 L 275.85 29.32 L 275.92 29.32 L 275.99 29.31 L 276.06 29.31 L 276.13 29.3 L 276.2 29.3 L 276.27 29.3 L 276.34 29.29 L 276.41 29.29 L 276.48 29.29 L 276.55 29.28 L 276.63 29.28 L 276.7 29.28 L 276.77 29.27 L 276.84 29.27 L 276.91 29.27 L 276.98 29.26 L 277.05 29.26 L 277.12 29.26 L 277.19 29.26 L 277.26 29.25 L 277.33 29.25 L 277.4 29.25 L 277.48 29.24 L 277.55 29.24 L 277.62 29.24 L 277.69 29.23 L 277.76 29.23 L 277.83 29.23 L 277.9 29.22 L 277.97 29.22 L 278.04 29.22 L 278.11 29.22 L 278.18 29.21 L 278.25 29.21 L 278.33 29.21 L 278.4 29.2 L 278.47 29.2 L 278.54 29.2 L 278.61 29.2 L 278.68 29.19 L 278.75 29.19 L 278.82 29.19 L 278.89 29.19 L 278.96 29.18 L 279.03 29.18 L 279.1 29.18 L 279.18 29.17 L 279.25 29.17 L 279.32 29.17 L 279.39 29.17 L 279.46 29.16 L 279.53 29.16 L 279.6 29.16 L 279.67 29.16 L 279.74 29.15 L 279.81 29.15 L 279.88 29.15 L 279.95 29.15 L 280.03 29.14 L 280.1 29.14 L 280.17 29.14 L 280.24 29.14 L 280.31 29.13 L 280.38 29.13 L 280.45 29.13 L 280.52 29.13 L 280.59 29.12 L 280.66 29.12 L 280.73 29.12 L 280.8 29.12 L 280.88 29.12 L 280.95 29.11 L 281.02 29.11 L 281.09 29.11 L 281.16 29.11 L 281.23 29.1 L 281.3 29.1 L 281.37 29.1 L 281.44 29.1 L 281.51 29.1 L 281.58 29.09 L 281.65 29.09 L 281.73 29.09 L 281.8 29.09 L 281.87 29.09 L 281.94 29.08 L 282.01 29.08 L 282.08 29.08 L 282.15 29.08 L 282.22 29.08 L 282.29 29.07 L 282.36 29.07 L 282.43 29.07 L 282.5 29.07 L 282.58 29.07 L 282.65 29.06 L 282.72 29.06 L 282.79 29.06 L 282.86 29.06 L 282.93 29.06 L 283 29.05 L 283.07 29.05 L 283.14 29.05 L 283.21 29.05 L 283.28 29.05 L 283.35 29.05 L 283.43 29.04 L 283.5 29.04 L 283.57 29.04 L 283.64 29.04 L 283.71 29.04 L 283.78 29.04 L 283.85 29.03 L 283.92 29.03 L 283.99 29.03 L 284.06 29.03 L 284.13 29.03 L 284.2 29.03 L 284.28 29.02 L 284.35 29.02 L 284.42 29.02 L 284.49 29.02 L 284.56 29.02 L 284.63 29.02 L 284.7 29.01 L 284.77 29.01 L 284.84 29.01 L 284.91 29.01 L 284.98 29.01 L 285.05 29.01 L 285.12 29.01 L 285.2 29 L 285.27 29 L 285.34 29 L 285.41 29 L 285.48 29 L 285.55 29 L 285.62 29 L 285.69 28.99 L 285.76 28.99 L 285.83 28.99 L 285.9 28.99 L 285.98 28.99 L 286.05 28.99 L 286.12 28.99 L 286.19 28.98 L 286.26 28.98 L 286.33 28.98 L 286.4 28.98 L 286.47 28.98 L 286.54 28.98 L 286.61 28.98 L 286.68 28.97 L 286.75 28.97 L 286.82 28.97 L 286.9 28.97 L 286.97 28.97 L 287.04 28.97 L 287.11 28.97 L 287.18 28.97 L 287.25 28.97 L 287.32 28.96 L 287.39 28.96 L 287.46 28.96 L 287.53 28.96 L 287.6 28.96 L 287.68 28.96 L 287.75 28.96 L 287.82 28.96 L 287.89 28.95 L 287.96 28.95 L 288.03 28.95 L 288.1 28.95 L 288.17 28.95 L 288.24 28.95 L 288.31 28.95 L 288.38 28.95 L 288.45 28.95 L 288.53 28.94 L 288.6 28.94 L 288.67 28.94 L 288.74 28.94 L 288.81 28.94 L 288.88 28.94 L 288.95 28.94 L 289.02 28.94 L 289.09 28.94 L 289.16 28.94 L 289.23 28.93 L 289.3 28.93 L 289.38 28.93 L 289.45 28.93 L 289.52 28.93 L 289.59 28.93 L 289.66 28.93 L 289.73 28.93 L 289.8 28.93 L 289.87 28.93 L 289.94 28.93 L 290.01 28.92 L 290.08 28.92 L 290.15 28.92 L 290.23 28.92 L 290.3 28.92 L 290.37 28.92 L 290.44 28.92 L 290.51 28.92 L 290.58 28.92 L 290.65 28.92 L 290.72 28.92 L 290.79 28.91 L 290.86 28.91 L 290.93 28.91 L 291 28.91 L 291.08 28.91 L 291.15 28.91 L 291.22 28.91 L 291.29 28.91 L 291.36 28.91 L 291.43 28.91 L 291.5 28.91 L 291.57 28.91 L 291.64 28.91 L 291.71 28.9 L 291.78 28.9 L 291.85 28.9 L 291.93 28.9 L 292 28.9 L 292.07 28.9 L 292.14 28.9 L 292.21 28.9 L 292.28 28.9 L 292.35 28.9 L 292.42 28.9 L 292.49 28.9 L 292.56 28.9 L 292.63 28.9 L 292.7 28.89 L 292.78 28.89 L 292.85 28.89 L 292.92 28.89 L 292.99 28.89 L 293.06 28.89 L 293.13 28.89 L 293.2 28.89 L 293.27 28.89 L 293.34 28.89 L 293.41 28.89 L 293.48 28.89 L 293.55 28.89 L 293.62 28.89 L 293.7 28.89 L 293.77 28.89 L 293.84 28.88 L 293.91 28.88 L 293.98 28.88 L 294.05 28.88 L 294.12 28.88 L 294.19 28.88 L 294.26 28.88 L 294.33 28.88 L 294.4 28.88 L 294.48 28.88 L 294.55 28.88 L 294.62 28.88 L 294.69 28.88 L 294.76 28.88 L 294.83 28.88 L 294.9 28.88 L 294.97 28.88 L 295.04 28.88 L 295.11 28.87 L 295.18 28.87 L 295.25 28.87 L 295.33 28.87 L 295.4 28.87 L 295.47 28.87 L 295.54 28.87 L 295.61 28.87 L 295.68 28.87 L 295.75 28.87 L 295.82 28.87 L 295.89 28.87 L 295.96 28.87 L 296.03 28.87 L 296.1 28.87 L 296.18 28.87 L 296.25 28.87 L 296.32 28.87 L 296.39 28.87 L 296.46 28.87 L 296.53 28.87 L 296.6 28.87 L 296.67 28.86 L 296.74 28.86 L 296.81 28.86 L 296.88 28.86 L 296.95 28.86 L 297.03 28.86 L 297.1 28.86 L 297.17 28.86 L 297.24 28.86 L 297.31 28.86 L 297.38 28.86 L 297.45 28.86 L 297.52 28.86 L 297.59 28.86 L 297.66 28.86 L 297.73 28.86 L 297.8 28.86 L 297.88 28.86 L 297.95 28.86 L 298.02 28.86 L 298.09 28.86 L 298.16 28.86 L 298.23 28.86 L 298.3 28.86 L 298.37 28.86 L 298.44 28.85 L 298.51 28.85 L 298.58 28.85 L 298.65 28.85 L 298.73 28.85 L 298.8 28.85 L 298.87 28.85 L 298.94 28.85 L 299.01 28.85 L 299.08 28.85 L 299.15 28.85 L 299.22 28.85 L 299.29 28.85 L 299.36 28.85 L 299.43 28.85 L 299.5 28.85 L 299.57 28.85 L 299.65 28.85 L 299.72 28.85 L 299.79 28.85 L 299.86 28.85 L 299.93 28.85 L 300 28.85 L 300.07 28.85 L 300.14 28.85 L 300.21 28.85 L 300.28 28.85 L 300.35 28.85 L 300.43 28.85 L 300.5 28.85 L 300.57 28.85 L 300.64 28.85 L 300.71 28.85 L 300.78 28.84 L 300.85 28.84 L 300.92 28.84 L 300.99 28.84 L 301.06 28.84 L 301.13 28.84 L 301.2 28.84 L 301.28 28.84 L 301.35 28.84 L 301.42 28.84 L 301.49 28.84 L 301.56 28.84 L 301.63 28.84 L 301.7 28.84 L 301.77 28.84 L 301.84 28.84 L 301.91 28.84 L 301.98 28.84 L 302.05 28.84 L 302.12 28.84 L 302.2 28.84 L 302.27 28.84 L 302.34 28.84 L 302.41 28.84 L 302.48 28.84 L 302.55 28.84 L 302.62 28.84 L 302.69 28.84 L 302.76 28.84 L 302.83 28.84 L 302.9 28.84 L 302.98 28.84 L 303.05 28.84 L 303.12 28.84 L 303.19 28.84 L 303.26 28.84 L 303.33 28.84 L 303.4 28.84 L 303.47 28.84 L 303.54 28.84 L 303.61 28.84 L 303.68 28.84 L 303.75 28.84 L 303.83 28.84 L 303.9 28.84 L 303.97 28.84 L 304.04 28.84 L 304.11 28.83 L 304.18 28.83 L 304.25 28.83 L 304.32 28.83 L 304.39 28.83 L 304.46 28.83 L 304.53 28.83 L 304.6 28.83 L 304.68 28.83 L 304.75 28.83 L 304.82 28.83 L 304.89 28.83 L 304.96 28.83 L 305.03 28.83 L 305.1 28.83 L 305.17 28.83 L 305.24 28.83 L 305.31 28.83 L 305.38 28.83 L 305.45 28.83 L 305.53 28.83 L 305.6 28.83 L 305.67 28.83 L 305.74 28.83 L 305.81 28.83 L 305.88 28.83 L 305.95 28.83 L 306.02 28.83 L 306.09 28.83 L 306.16 28.83 L 306.23 28.83 L 306.3 28.83 L 306.38 28.83 L 306.45 28.83 L 306.52 28.83 L 306.59 28.83 L 306.66 28.83 L 306.73 28.83 L 306.8 28.83 L 306.87 28.83 L 306.94 28.83 L 307.01 28.83 L 307.08 28.83 L 307.15 28.83 L 307.23 28.83 L 307.3 28.83 L 307.37 28.83 L 307.44 28.83 L 307.51 28.83 L 307.58 28.83 L 307.65 28.83 L 307.72 28.83 L 307.79 28.83 L 307.86 28.83 L 307.93 28.83 L 308 28.83 L 308.08 28.83 L 308.15 28.83 L 308.22 28.83 L 308.29 28.83 L 308.36 28.83 L 308.43 28.83 L 308.5 28.83 L 308.57 28.83 L 308.64 28.83 L 308.71 28.83 L 308.78 28.83 L 308.85 28.83 L 308.93 28.83 L 309 28.83 L 309.07 28.83 "/>
</g>
</g>
</svg>
